<svg width="232" height="250" viewBox="0 0 232 250" fill="none" xmlns="http://www.w3.org/2000/svg">
<path fill-rule="evenodd" clip-rule="evenodd" d="M181.62 241.01C181.62 245.975 155.848 250 124.058 250C92.2688 250 66.4995 245.975 66.4995 241.01C66.4995 236.044 92.2688 232.019 124.058 232.019C155.848 232.019 181.62 236.044 181.62 241.01Z" fill="#B8BACF" fill-opacity="0.25"/>
<path fill-rule="evenodd" clip-rule="evenodd" d="M169.62 54.9033C154.661 33.1465 118.286 33.1465 118.286 33.1465C118.286 33.1465 81.9114 33.1465 66.9533 54.9033C53.2254 74.8705 53.3555 102.157 53.3555 102.157L66.6135 119.154H169.958L183.216 102.157C183.216 102.157 183.347 74.8705 169.62 54.9033Z" fill="#98BDFE"/>
<path fill-rule="evenodd" clip-rule="evenodd" d="M169.64 54.9033C163.776 46.3717 154.619 41.1865 145.654 38.0334C150.292 40.921 154.514 44.6018 157.742 49.2921C171.469 69.2626 171.338 96.5454 171.338 96.5454L158.08 113.543H62.2588L66.6338 119.154H169.981L183.239 102.157C183.239 102.157 183.367 74.8706 169.64 54.9033Z" fill="#8087DE"/>
<path fill-rule="evenodd" clip-rule="evenodd" d="M151.784 58.925C137.808 48.3583 99.6352 48.3583 85.6584 58.925C70.4862 70.3963 71.0021 97.7816 71.0021 97.7816H166.441C166.441 97.7816 166.954 70.3963 151.784 58.925Z" fill="#002B43"/>
<path fill-rule="evenodd" clip-rule="evenodd" d="M71.3994 97.7816C72.3363 88.8472 75.4385 73.8958 85.6584 66.1669C99.6352 55.6009 137.808 55.6009 151.784 66.1669C162.005 73.8958 165.107 88.8472 166.04 97.7816H166.441C166.441 97.7816 166.954 70.3963 151.784 58.925C137.808 48.3583 99.6352 48.3583 85.6584 58.925C70.4862 70.3963 71.0021 97.7816 71.0021 97.7816H71.3994Z" fill="#000F16"/>
<path fill-rule="evenodd" clip-rule="evenodd" d="M132.21 82.6632C131.77 82.6494 131.402 82.9975 131.388 83.4385C131.385 83.4868 131.244 87.0701 128.963 88.9498C126.788 90.7454 122.841 91.3465 120.925 91.3409C119.134 91.4194 115.062 90.7454 112.883 88.9498C110.606 87.0701 110.465 83.4868 110.461 83.4385C110.448 82.9975 110.08 82.6494 109.64 82.6632C109.199 82.6751 108.851 83.0431 108.864 83.4845C108.867 83.661 109.019 87.8322 111.868 90.1828C114.776 92.5831 118.529 92.9479 120.544 92.9479C122.949 92.9479 127.074 92.5831 129.982 90.1828C132.831 87.8322 132.979 83.661 132.986 83.4845C132.999 83.0431 132.65 82.6751 132.21 82.6632Z" fill="#3AEDB1"/>
<path fill-rule="evenodd" clip-rule="evenodd" d="M93.4745 70.6554C93.4745 73.2594 91.3644 75.3702 88.762 75.3702C86.156 75.3702 84.0459 73.2594 84.0459 70.6554C84.0459 68.0514 86.156 65.9409 88.762 65.9409C91.3644 65.9409 93.4745 68.0514 93.4745 70.6554Z" fill="#3AEDB1"/>
<path fill-rule="evenodd" clip-rule="evenodd" d="M153.399 70.6554C153.399 73.2594 151.286 75.3702 148.684 75.3702C146.081 75.3702 143.968 73.2594 143.968 70.6554C143.968 68.0514 146.081 65.9409 148.684 65.9409C151.286 65.9409 153.399 68.0514 153.399 70.6554Z" fill="#3AEDB1"/>
<path fill-rule="evenodd" clip-rule="evenodd" d="M131.715 37.2239C131.715 38.3514 130.8 39.2658 129.676 39.2658H106.897C105.772 39.2658 104.858 38.3514 104.858 37.2239V30.0852C104.858 28.961 105.772 28.0466 106.897 28.0466H129.676C130.8 28.0466 131.715 28.961 131.715 30.0852V37.2239Z" fill="#98BDFE"/>
<path fill-rule="evenodd" clip-rule="evenodd" d="M112.223 33.4841L115.281 4.9295H119.361L124.35 33.6545L112.223 33.4841Z" fill="#98BDFE"/>
<path fill-rule="evenodd" clip-rule="evenodd" d="M122.367 4.92953C122.367 7.65323 120.158 9.85906 117.437 9.85906C114.714 9.85906 112.508 7.65323 112.508 4.92953C112.508 2.20583 114.714 0 117.437 0C120.158 0 122.367 2.20583 122.367 4.92953Z" fill="#98BDFE"/>
<path fill-rule="evenodd" clip-rule="evenodd" d="M120.512 1.07831C120.83 1.73055 121.007 2.45819 121.007 3.22843C121.007 5.95212 118.798 8.15795 116.077 8.15795C114.914 8.15795 113.842 7.75481 113 7.07962C113.799 8.72498 115.484 9.85904 117.437 9.85904C120.158 9.85904 122.367 7.6532 122.367 4.9295C122.367 3.37264 121.643 1.98293 120.512 1.07831Z" fill="#8087DE"/>
<path fill-rule="evenodd" clip-rule="evenodd" d="M66.6134 119.154H169.958L183.216 102.157H53.3555L66.6134 119.154Z" fill="#8087DE"/>
<path fill-rule="evenodd" clip-rule="evenodd" d="M131.715 33.8873C131.715 34.6051 131.259 35.1852 130.696 35.1852H119.306C118.742 35.1852 118.287 34.6051 118.287 33.8873V29.3445C118.287 28.6267 118.742 28.0466 119.306 28.0466H130.696C131.259 28.0466 131.715 28.6267 131.715 29.3445V33.8873Z" fill="#8087DE"/>
<path fill-rule="evenodd" clip-rule="evenodd" d="M97.9455 42.5237C96.287 39.3543 88.7944 41.1668 86.346 42.3238C84.3434 43.2678 80.7249 45.3622 78.4142 47.5811C76.5853 49.0396 74.9498 50.7375 73.5273 52.6516C72.3441 54.2412 70.1153 57.5156 71.5443 59.6034C73.1176 61.8977 75.7724 59.9082 77.09 58.5841C80.5217 55.1327 83.1569 51.4356 87.8111 49.3346C90.0989 48.3022 99.8957 46.2602 97.9455 42.5237Z" fill="white"/>
<path fill-rule="evenodd" clip-rule="evenodd" d="M115.474 2.08779C113.15 2.64826 114.038 7.49913 116.893 4.88687C119.165 2.81214 116.785 1.50437 115.474 2.08779Z" fill="white"/>
<path fill-rule="evenodd" clip-rule="evenodd" d="M188.729 157.66L168.532 122.825H68.0417L47.8438 157.66C47.8438 157.66 48.7084 172.176 53.5802 185.444C61.0696 205.841 68.2085 213.999 68.2085 213.999L92.9277 223.546L118.06 225.857V225.9C118.06 225.9 118.231 225.877 118.287 225.877C118.342 225.877 118.513 225.9 118.513 225.9V225.857L143.645 223.546L168.365 213.999C168.365 213.999 177.333 202.442 182.993 185.444C187.457 172.032 188.729 157.66 188.729 157.66Z" fill="#98BDFE"/>
<path fill-rule="evenodd" clip-rule="evenodd" d="M168.532 122.825H144.733L164.933 157.66C164.933 157.66 163.662 172.032 159.198 185.444C153.537 202.442 151.004 209.21 144.566 213.999C139.253 217.955 119.847 223.546 119.847 223.546L106.389 224.785L118.06 225.857V225.9C118.06 225.9 118.231 225.877 118.286 225.877C118.342 225.877 118.513 225.9 118.513 225.9V225.857L143.645 223.546L168.365 213.999C168.365 213.999 177.333 202.442 182.993 185.444C187.457 172.032 188.729 157.66 188.729 157.66L168.532 122.825Z" fill="#8087DE"/>
<path fill-rule="evenodd" clip-rule="evenodd" d="M47.8438 157.66H188.729L183.239 168.106L47.8438 157.66Z" fill="#8087DE"/>
<path fill-rule="evenodd" clip-rule="evenodd" d="M76.1266 180.761C75.7235 175.706 79.1748 168.738 73.4062 166.067C70.4399 164.697 65.4337 164.133 63.1404 167.08C62.2961 168.161 61.87 169.528 61.7906 170.944C60.964 174.549 62.905 179.823 63.8113 183.055C64.8782 186.86 68.5796 200.239 75.3957 196.595C80.0401 194.11 76.4216 184.504 76.1266 180.761Z" fill="white"/>
<path fill-rule="evenodd" clip-rule="evenodd" d="M83.5374 130.098C80.4728 125.726 76.1595 127.185 73.0916 130.357C66.2634 134.513 59.0133 151.495 69.3358 153.156C75.2876 154.114 77.11 146.863 79.1257 142.943C80.9743 139.348 86.5462 134.392 83.5374 130.098Z" fill="white"/>
<path fill-rule="evenodd" clip-rule="evenodd" d="M174.389 122.825C174.389 122.825 218.581 95.3556 227.08 95.3556C235.579 95.3556 232.18 110.656 218.581 127.365C205.389 143.576 192.406 153.242 192.406 153.242L174.389 122.825Z" fill="#98BDFE"/>
<path fill-rule="evenodd" clip-rule="evenodd" d="M227.08 95.3556C226.231 95.3556 225.025 95.6309 223.544 96.1258C223.301 102.101 218.795 111.852 210.424 122.14C201.364 133.271 192.406 141.314 187.68 145.267L192.406 153.242C192.406 153.242 205.389 143.576 218.582 127.365C232.18 110.656 235.579 95.3556 227.08 95.3556Z" fill="#8087DE"/>
<path fill-rule="evenodd" clip-rule="evenodd" d="M64.1799 122.825C64.1799 122.825 9.19788 113.946 2.43092 116.762C-4.33604 119.577 3.50958 131.645 19.9494 141.557C35.9022 151.173 45.192 153.792 45.192 153.792L64.1799 122.825Z" fill="#98BDFE"/>
<path fill-rule="evenodd" clip-rule="evenodd" d="M2.43092 116.762C3.10709 116.48 4.15986 116.319 5.50598 116.254C7.70755 121.327 14.5696 128.246 24.6915 134.349C35.6436 140.95 43.9593 144.749 51.5735 143.386L45.192 153.792C45.192 153.792 35.9022 151.173 19.9494 141.557C3.50958 131.645 -4.33604 119.577 2.43092 116.762Z" fill="#8087DE"/>
<path fill-rule="evenodd" clip-rule="evenodd" d="M27.5786 122.881C26.0198 120.403 20.496 118.918 17.8975 119.056C16.5616 119.131 15.6769 119.587 15.1738 120.22C13.9493 120.987 14.066 121.98 14.9559 122.976C15.3829 123.861 16.2495 124.615 17.4445 124.864L17.44 124.818C22.5173 127.637 31.5212 129.151 27.5786 122.881Z" fill="white"/>
<path fill-rule="evenodd" clip-rule="evenodd" d="M217.575 101.747C216.412 100.987 213.036 102.704 212.079 103.176C210.476 103.963 206.336 106.565 205.471 109.053C204.511 110.351 204.34 111.636 205.93 112.425C208.329 113.618 215.006 108.21 216.454 106.431C217.359 105.32 219.165 102.789 217.575 101.747Z" fill="white"/>
<path fill-rule="evenodd" clip-rule="evenodd" d="M67.9248 217.008C67.9248 217.008 76.8966 240.41 84.4122 241.177C91.9245 241.94 92.1441 225.9 92.1441 225.9L67.9248 217.008Z" fill="#98BDFE"/>
<path fill-rule="evenodd" clip-rule="evenodd" d="M86.1001 223.586C86.0116 225.857 85.3167 236.932 80.0332 238.335C81.5802 239.948 83.1535 241.023 84.6645 241.177C92.18 241.94 92.3997 225.9 92.3997 225.9L86.1001 223.586Z" fill="#8087DE"/>
<path fill-rule="evenodd" clip-rule="evenodd" d="M146.195 225.9C146.195 225.9 157.674 243.533 172.456 239.849C178.637 238.306 168.886 217.008 168.886 217.008L146.195 225.9Z" fill="#98BDFE"/>
<path fill-rule="evenodd" clip-rule="evenodd" d="M168.886 217.008L162.731 219.42C165.209 225.654 169.129 237.198 164.635 238.319C163.423 238.62 162.233 238.777 161.069 238.814C164.491 240.249 168.346 240.872 172.456 239.849C178.637 238.305 168.886 217.008 168.886 217.008Z" fill="#8087DE"/>
</svg>
