<svg width="260" height="210" viewBox="0 0 260 210" fill="none" xmlns="http://www.w3.org/2000/svg">
<path fill-rule="evenodd" clip-rule="evenodd" d="M181.363 197.789C181.363 201.772 160.691 205 135.192 205C109.694 205 89.022 201.772 89.022 197.789C89.022 193.807 109.694 190.579 135.192 190.579C160.691 190.579 181.363 193.807 181.363 197.789Z" fill="#B8BACF" fill-opacity="0.25"/>
<path fill-rule="evenodd" clip-rule="evenodd" d="M171.504 49.0372C159.505 31.5859 130.329 31.5859 130.329 31.5859C130.329 31.5859 101.152 31.5859 89.1534 49.0372C78.1431 65.0541 78.2456 86.9398 78.2456 86.9398L88.8828 100.574H171.775L182.409 86.9398C182.409 86.9398 182.514 65.0541 171.504 49.0372Z" fill="#98BDFE"/>
<path fill-rule="evenodd" clip-rule="evenodd" d="M171.519 49.0372C166.816 42.1955 159.471 38.0364 152.28 35.5076C156 37.8229 159.387 40.7745 161.976 44.5379C172.986 60.5551 172.881 82.4404 172.881 82.4404L162.247 96.0742H85.3882L88.8979 100.574H171.79L182.427 86.9397C182.427 86.9397 182.53 65.0541 171.519 49.0372Z" fill="#8087DE"/>
<path fill-rule="evenodd" clip-rule="evenodd" d="M156.778 52.5821C145.597 44.1289 115.059 44.1289 103.878 52.5821C91.7398 61.7592 92.1526 83.6674 92.1526 83.6674H168.504C168.504 83.6674 168.914 61.7592 156.778 52.5821Z" fill="#002B43"/>
<path fill-rule="evenodd" clip-rule="evenodd" d="M92.4704 83.6674C93.2199 76.52 95.7017 64.5588 103.878 58.3757C115.059 49.9229 145.597 49.9229 156.778 58.3757C164.955 64.5588 167.437 76.52 168.183 83.6674H168.504C168.504 83.6674 168.914 61.7592 156.778 52.5821C145.597 44.1289 115.059 44.1289 103.878 52.5821C91.7398 61.7592 92.1526 83.6674 92.1526 83.6674H92.4704Z" fill="#000F16"/>
<path fill-rule="evenodd" clip-rule="evenodd" d="M141.1 34.8584C141.1 35.7619 140.367 36.4944 139.465 36.4944H121.193C120.292 36.4944 119.558 35.7619 119.558 34.8584V29.1321C119.558 28.2286 120.292 27.4958 121.193 27.4958H139.465C140.367 27.4958 141.1 28.2286 141.1 29.1321V34.8584Z" fill="#98BDFE"/>
<path fill-rule="evenodd" clip-rule="evenodd" d="M125.464 31.8585L127.917 8.95361H131.191L135.192 31.9955L125.464 31.8585Z" fill="#98BDFE"/>
<path fill-rule="evenodd" clip-rule="evenodd" d="M133.602 8.95349C133.602 11.1371 131.83 12.9078 129.648 12.9078C127.463 12.9078 125.694 11.1371 125.694 8.95349C125.694 6.76984 127.463 5 129.648 5C131.83 5 133.602 6.76984 133.602 8.95349Z" fill="#98BDFE"/>
<path fill-rule="evenodd" clip-rule="evenodd" d="M132.114 5.86548C132.369 6.38707 132.511 6.97202 132.511 7.59036C132.511 9.77375 130.739 11.5439 128.557 11.5439C127.624 11.5439 126.764 11.2197 126.088 10.6786C126.73 11.9976 128.081 12.9078 129.648 12.9078C131.83 12.9078 133.602 11.1371 133.602 8.9535C133.602 7.7042 133.021 6.59003 132.114 5.86548Z" fill="#8087DE"/>
<path fill-rule="evenodd" clip-rule="evenodd" d="M88.8828 100.574H171.775L182.409 86.9399H78.2456L88.8828 100.574Z" fill="#8087DE"/>
<path fill-rule="evenodd" clip-rule="evenodd" d="M141.1 32.1812C141.1 32.7562 140.734 33.2223 140.282 33.2223H131.146C130.694 33.2223 130.329 32.7562 130.329 32.1812V28.5369C130.329 27.962 130.694 27.4958 131.146 27.4958H140.282C140.734 27.4958 141.1 27.962 141.1 28.5369V32.1812Z" fill="#8087DE"/>
<path fill-rule="evenodd" clip-rule="evenodd" d="M114.011 39.1075C112.683 36.5652 106.673 38.0212 104.707 38.9484C103.103 39.7058 100.198 41.3844 98.347 43.165C96.8798 44.3352 95.5653 45.6968 94.4272 47.2316C93.4781 48.5067 91.6904 51.1338 92.8364 52.8082C94.0986 54.649 96.2281 53.0532 97.2849 51.9898C100.037 49.2225 102.151 46.2578 105.884 44.5726C107.719 43.7437 115.577 42.1048 114.011 39.1075Z" fill="white"/>
<path fill-rule="evenodd" clip-rule="evenodd" d="M128.073 6.67393C126.209 7.12401 126.921 11.0141 129.211 8.92014C131.033 7.2552 129.124 6.20781 128.073 6.67393Z" fill="white"/>
<path fill-rule="evenodd" clip-rule="evenodd" d="M186.832 131.46L170.632 103.519H90.0265L73.8267 131.46C73.8267 131.46 74.5207 143.103 78.4274 153.746C84.4347 170.107 90.1606 176.651 90.1606 176.651L109.988 184.308L130.148 186.161V186.194C130.148 186.194 130.284 186.178 130.329 186.178C130.374 186.178 130.508 186.194 130.508 186.194V186.161L150.669 184.308L170.498 176.651C170.498 176.651 177.69 167.38 182.231 153.746C185.811 142.989 186.832 131.46 186.832 131.46Z" fill="#98BDFE"/>
<path fill-rule="evenodd" clip-rule="evenodd" d="M170.631 103.519H151.542L167.745 131.46C167.745 131.46 166.725 142.989 163.141 153.746C158.604 167.38 156.572 172.81 151.408 176.651C147.147 179.823 131.58 184.308 131.58 184.308L120.786 185.3L130.148 186.161V186.194C130.148 186.194 130.284 186.178 130.329 186.178C130.374 186.178 130.508 186.194 130.508 186.194V186.161L150.669 184.308L170.497 176.651C170.497 176.651 177.69 167.38 182.231 153.746C185.811 142.989 186.831 131.46 186.831 131.46L170.631 103.519Z" fill="#8087DE"/>
<path fill-rule="evenodd" clip-rule="evenodd" d="M73.8267 131.46H186.832L182.428 139.839L73.8267 131.46Z" fill="#8087DE"/>
<path fill-rule="evenodd" clip-rule="evenodd" d="M96.5091 149.989C96.1884 145.935 98.957 140.345 94.33 138.204C91.9504 137.105 87.9333 136.653 86.0957 139.015C85.4176 139.884 85.0756 140.979 85.0125 142.115C84.35 145.008 85.9066 149.238 86.6323 151.83C87.4893 154.881 90.4574 165.612 95.9255 162.69C99.651 160.698 96.7484 152.992 96.5091 149.989Z" fill="white"/>
<path fill-rule="evenodd" clip-rule="evenodd" d="M102.456 109.354C99.9953 105.847 96.5384 107.015 94.0774 109.56C88.6015 112.894 82.7861 126.516 91.0648 127.848C95.8391 128.616 97.3005 122.799 98.9174 119.655C100.4 116.771 104.87 112.797 102.456 109.354Z" fill="white"/>
<path fill-rule="evenodd" clip-rule="evenodd" d="M89.9341 179.064C89.9341 179.064 97.1296 197.836 103.158 198.449C109.184 199.062 109.359 186.195 109.359 186.195L89.9341 179.064Z" fill="#98BDFE"/>
<path fill-rule="evenodd" clip-rule="evenodd" d="M104.512 184.34C104.441 186.161 103.884 195.044 99.646 196.171C100.887 197.465 102.149 198.325 103.361 198.449C109.389 199.063 109.565 186.195 109.565 186.195L104.512 184.34Z" fill="#8087DE"/>
<path fill-rule="evenodd" clip-rule="evenodd" d="M152.715 186.195C152.715 186.195 161.922 200.339 173.779 197.384C178.737 196.148 170.916 179.064 170.916 179.064L152.715 186.195Z" fill="#98BDFE"/>
<path fill-rule="evenodd" clip-rule="evenodd" d="M170.915 179.064L165.978 180.998C167.965 185.998 171.109 195.259 167.505 196.157C166.533 196.399 165.578 196.524 164.645 196.554C167.39 197.704 170.481 198.205 173.778 197.384C178.736 196.148 170.915 179.064 170.915 179.064Z" fill="#8087DE"/>
<path fill-rule="evenodd" clip-rule="evenodd" d="M141.119 71.5728C140.767 71.5618 140.472 71.8402 140.462 72.193C140.459 72.2317 140.346 75.0983 138.521 76.6021C136.781 78.0386 133.624 78.5194 132.091 78.515C130.658 78.5778 127.4 78.0386 125.657 76.6021C123.836 75.0983 123.722 72.2317 123.72 72.193C123.71 71.8402 123.415 71.5618 123.063 71.5728C122.71 71.5823 122.432 71.8767 122.442 72.2298C122.445 72.371 122.566 75.708 124.845 77.5885C127.172 79.5087 130.174 79.8005 131.786 79.8005C133.71 79.8005 137.01 79.5087 139.336 77.5885C141.616 75.708 141.734 72.371 141.739 72.2298C141.75 71.8767 141.471 71.5823 141.119 71.5728Z" fill="#3AEDB1"/>
<path fill-rule="evenodd" clip-rule="evenodd" d="M110.13 61.9664C110.13 64.0496 108.442 65.7382 106.36 65.7382C104.275 65.7382 102.587 64.0496 102.587 61.9664C102.587 59.8832 104.275 58.1948 106.36 58.1948C108.442 58.1948 110.13 59.8832 110.13 61.9664Z" fill="#3AEDB1"/>
<path fill-rule="evenodd" clip-rule="evenodd" d="M158.07 61.9664C158.07 64.0496 156.38 65.7382 154.298 65.7382C152.215 65.7382 150.525 64.0496 150.525 61.9664C150.525 59.8832 152.215 58.1948 154.298 58.1948C156.38 58.1948 158.07 59.8832 158.07 61.9664Z" fill="#3AEDB1"/>
<path fill-rule="evenodd" clip-rule="evenodd" d="M211.541 90.7809C211.075 90.8643 210.625 90.5556 210.542 90.0896L201.58 41.1286C201.493 40.6632 201.801 40.2131 202.271 40.1301C202.348 40.1152 202.425 40.1108 202.501 40.1176C202.877 40.1504 203.198 40.4292 203.269 40.8214L212.232 89.7824C212.314 90.2483 212.007 90.694 211.541 90.7809Z" fill="#2E313C"/>
<path fill-rule="evenodd" clip-rule="evenodd" d="M257.747 46.8754C241.81 55.444 223.262 51.2171 207.104 58.7087C206.393 59.0347 205.683 59.3878 204.982 59.765C204.495 57.1419 204.006 54.5242 203.519 51.9011C202.549 46.694 201.578 41.4836 200.604 36.2775C200.143 33.8039 199.684 31.3342 199.224 28.8607C199.802 28.6012 200.38 28.3595 200.966 28.1338C217.151 21.839 235.755 27.3982 251.759 20.2163C251.306 23.6497 251.23 26.9573 251.524 30.1143C251.823 33.2844 252.496 36.3021 253.55 39.1277C254.585 41.9042 255.98 44.4959 257.747 46.8754Z" fill="#446EB5"/>
<path d="M201.39 40.407L203.032 49.1855C203.032 49.1855 207.222 47.1902 211.888 45.9667C217.779 44.4222 222.387 44.211 228.511 43.6258C233.916 43.1093 236.972 42.6933 242.217 41.2848C246.532 40.1262 253.008 37.4808 253.008 37.4808C253.008 37.4808 252.298 35.204 252.01 33.6767C251.714 32.1007 251.549 29.5801 251.549 29.5801C251.549 29.5801 246.883 31.6284 241.926 33.0915C236.641 34.6513 232.594 34.8472 226.47 35.1398L226.239 35.1509C221.769 35.3642 217.449 35.5704 212.763 36.6029C207.062 37.8591 201.39 40.407 201.39 40.407Z" fill="#FBB91C"/>
<path d="M205.076 48.3076L203.027 49.1855L204.959 59.7783L207.124 58.7249C207.124 58.7249 207.124 56.2083 206.539 53.5748C205.954 50.9412 205.076 48.3076 205.076 48.3076Z" fill="#4466A0"/>
<path d="M200.979 28.1169L199.224 28.8778L201.389 40.4069L202.852 39.8217C202.852 39.8217 202.559 36.0177 202.559 33.3841C202.559 30.7505 200.979 28.1169 200.979 28.1169Z" fill="#4466A0"/>
<path d="M201.389 40.407L203.027 49.1856L205.075 48.3077C205.075 48.3077 204.105 45.5169 203.671 43.8599C203.237 42.2029 202.852 39.8218 202.852 39.8218L201.389 40.407Z" fill="#DCA626"/>
<path d="M221.756 37.4809C220.822 32.5671 219.24 24.7812 219.24 24.7812C219.24 24.7812 216.982 24.9596 215.611 25.0739C214.24 25.1882 212.1 25.425 212.1 25.425C212.1 25.425 213.882 34.462 214.967 40.2901C216.053 46.1181 217.659 55.2721 217.659 55.2721C217.659 55.2721 219.799 54.8569 221.171 54.6284C222.542 54.3998 224.682 54.1017 224.682 54.1017C224.682 54.1017 222.994 43.9946 221.756 37.4809Z" fill="#FBB91C"/>
<path fill-rule="evenodd" clip-rule="evenodd" d="M69.7563 129.412C69.7563 129.412 58.3603 143.135 52.8783 147.187C48.7192 150.259 44.6547 134.792 58.8887 120.265C72.8078 106.059 84.5795 103.32 84.5795 103.32L69.7563 129.412Z" fill="#98BDFE"/>
<path fill-rule="evenodd" clip-rule="evenodd" d="M58.8887 120.265C72.8078 106.059 84.5795 103.32 84.5795 103.32L83.3479 105.491C78.8561 108.04 73.1052 112.085 66.9278 118.39C57.3668 128.147 56.0604 138.333 57.4967 143.033C55.7807 144.75 54.1657 146.235 52.8783 147.187C48.7192 150.259 44.6547 134.792 58.8887 120.265Z" fill="#8087DE"/>
<path fill-rule="evenodd" clip-rule="evenodd" d="M175.01 103.519C175.01 103.519 210.459 81.4863 217.276 81.4863C224.093 81.4863 221.366 93.7567 210.459 107.159C199.875 120.164 189.462 127.917 189.462 127.917L175.01 103.519Z" fill="#98BDFE"/>
<path fill-rule="evenodd" clip-rule="evenodd" d="M217.276 81.4863C216.594 81.4863 215.627 81.7066 214.438 82.1026C214.243 86.8965 210.63 94.7176 203.913 102.969C196.649 111.898 189.464 118.35 185.673 121.518L189.462 127.917C189.462 127.917 199.875 120.164 210.459 107.159C221.366 93.7567 224.093 81.4863 217.276 81.4863Z" fill="#8087DE"/>
<path fill-rule="evenodd" clip-rule="evenodd" d="M209.649 86.6126C208.716 86.0011 206.008 87.3787 205.241 87.7567C203.955 88.3887 200.635 90.4772 199.943 92.471C199.171 93.514 199.037 94.5432 200.311 95.1776C202.236 96.1351 207.591 91.797 208.753 90.3676C209.476 89.4771 210.926 87.4486 209.649 86.6126Z" fill="white"/>
</svg>
