<svg width="220" height="250" viewBox="0 0 220 250" fill="none" xmlns="http://www.w3.org/2000/svg">
<path fill-rule="evenodd" clip-rule="evenodd" d="M183.042 240.986C183.042 245.964 157.202 250 125.329 250C93.4555 250 67.6191 245.964 67.6191 240.986C67.6191 236.008 93.4555 231.973 125.329 231.973C157.202 231.973 183.042 236.008 183.042 240.986Z" fill="#B8BACF" fill-opacity="0.25"/>
<path fill-rule="evenodd" clip-rule="evenodd" d="M170.064 55.0472C155.069 33.2328 118.598 33.2328 118.598 33.2328C118.598 33.2328 82.1277 33.2328 67.1293 55.0472C53.3665 75.0679 53.4947 102.425 53.4947 102.425L66.7908 119.467H170.406L183.699 102.425C183.699 102.425 183.83 75.0679 170.064 55.0472Z" fill="#98BDFE"/>
<path fill-rule="evenodd" clip-rule="evenodd" d="M170.087 55.0471C164.208 46.4947 155.026 41.2962 146.038 38.1351C150.688 41.0293 154.921 44.7181 158.158 49.423C171.921 69.4438 171.789 96.8007 171.789 96.8007L158.497 113.843H62.4233L66.8105 119.467H170.426L183.722 102.424C183.722 102.424 183.85 75.0679 170.087 55.0471Z" fill="#8087DE"/>
<path fill-rule="evenodd" clip-rule="evenodd" d="M132.062 37.3229C132.062 38.4524 131.145 39.3679 130.018 39.3679H107.179C106.052 39.3679 105.135 38.4524 105.135 37.3229V30.1648C105.135 29.0353 106.052 28.1201 107.179 28.1201H130.018C131.145 28.1201 132.062 29.0353 132.062 30.1648V37.3229Z" fill="#98BDFE"/>
<path fill-rule="evenodd" clip-rule="evenodd" d="M112.519 33.5739L115.585 4.9425H119.676L124.678 33.7438L112.519 33.5739Z" fill="#98BDFE"/>
<path fill-rule="evenodd" clip-rule="evenodd" d="M122.687 4.9425C122.687 7.67205 120.475 9.885 117.748 9.885C115.017 9.885 112.805 7.67205 112.805 4.9425C112.805 2.21262 115.017 0 117.748 0C120.475 0 122.687 2.21262 122.687 4.9425Z" fill="#98BDFE"/>
<path fill-rule="evenodd" clip-rule="evenodd" d="M120.83 1.08252C121.149 1.73385 121.326 2.46537 121.326 3.23797C121.326 5.96784 119.111 8.1808 116.384 8.1808C115.214 8.1808 114.142 7.77495 113.298 7.09798C114.1 8.74768 115.789 9.88504 117.747 9.88504C120.475 9.88504 122.687 7.67209 122.687 4.94254C122.687 3.37993 121.964 1.98821 120.83 1.08252Z" fill="#8087DE"/>
<path fill-rule="evenodd" clip-rule="evenodd" d="M66.7907 119.467H170.406L183.699 102.425H53.4946L66.7907 119.467Z" fill="#8087DE"/>
<path fill-rule="evenodd" clip-rule="evenodd" d="M132.062 33.9765C132.062 34.6952 131.602 35.2782 131.04 35.2782H119.621C119.055 35.2782 118.599 34.6952 118.599 33.9765V29.4218C118.599 28.7031 119.055 28.1201 119.621 28.1201H131.04C131.602 28.1201 132.062 28.7031 132.062 29.4218V33.9765Z" fill="#8087DE"/>
<path fill-rule="evenodd" clip-rule="evenodd" d="M98.2042 42.6347C96.5413 39.4569 89.029 41.2762 86.5709 42.4352C84.5663 43.3826 80.9383 45.4802 78.6215 47.7067C76.7878 49.1687 75.1479 50.871 73.7217 52.7895C72.5354 54.3836 70.3007 57.6673 71.7335 59.7599C73.3109 62.0616 75.9728 60.0662 77.2938 58.7376C80.7345 55.2782 83.3767 51.5729 88.0431 49.4658C90.3369 48.43 100.159 46.381 98.2042 42.6347Z" fill="white"/>
<path fill-rule="evenodd" clip-rule="evenodd" d="M115.776 2.09298C113.449 2.65559 114.34 7.5179 117.202 4.90009C119.479 2.81891 117.094 1.50968 115.776 2.09298Z" fill="white"/>
<path fill-rule="evenodd" clip-rule="evenodd" d="M189.226 158.075L168.977 123.148H68.2205L47.9707 158.075C47.9707 158.075 48.8383 172.628 53.7216 185.932C61.2307 206.383 68.3881 214.563 68.3881 214.563L93.1729 224.135L118.372 226.452V226.493C118.372 226.493 118.543 226.472 118.599 226.472C118.654 226.472 118.822 226.493 118.822 226.493V226.452L144.024 224.135L168.809 214.563C168.809 214.563 177.8 202.975 183.475 185.932C187.951 172.486 189.226 158.075 189.226 158.075Z" fill="#98BDFE"/>
<path fill-rule="evenodd" clip-rule="evenodd" d="M168.977 123.148H145.115L165.368 158.075C165.368 158.075 164.093 172.486 159.614 185.932C153.942 202.975 151.402 209.763 144.948 214.563C139.621 218.529 120.163 224.135 120.163 224.135L106.669 225.375L118.372 226.452V226.493C118.372 226.493 118.543 226.472 118.598 226.472C118.654 226.472 118.822 226.493 118.822 226.493V226.452L144.024 224.135L168.809 214.563C168.809 214.563 177.8 202.975 183.475 185.932C187.951 172.486 189.226 158.075 189.226 158.075L168.977 123.148Z" fill="#8087DE"/>
<path fill-rule="evenodd" clip-rule="evenodd" d="M47.9707 158.075H189.226L183.722 168.549L47.9707 158.075Z" fill="#8087DE"/>
<path fill-rule="evenodd" clip-rule="evenodd" d="M76.3243 181.236C75.9233 176.169 79.3837 169.181 73.6 166.505C70.6259 165.131 65.6046 164.566 63.3075 167.518C62.4596 168.605 62.0324 169.974 61.9535 171.394C61.1254 175.01 63.0709 180.297 63.9779 183.536C65.0492 187.351 68.7593 200.765 75.5947 197.112C80.2513 194.622 76.6233 184.989 76.3243 181.236Z" fill="white"/>
<path fill-rule="evenodd" clip-rule="evenodd" d="M83.7576 130.442C80.6817 126.058 76.3603 127.519 73.2844 130.7C66.4392 134.868 59.17 151.894 69.5184 153.559C75.4862 154.52 77.3133 147.249 79.3344 143.318C81.1878 139.714 86.7744 134.746 83.7576 130.442Z" fill="white"/>
<path fill-rule="evenodd" clip-rule="evenodd" d="M193.423 155.848C193.423 155.848 207.892 172.813 214.81 177.787C220.058 181.56 224.885 162.16 206.857 144.236C189.226 126.71 174.468 123.478 174.468 123.478L193.423 155.848Z" fill="#98BDFE"/>
<path fill-rule="evenodd" clip-rule="evenodd" d="M206.857 144.236C189.226 126.71 174.468 123.478 174.468 123.478L176.045 126.171C181.698 129.285 188.954 134.247 196.778 142.025C208.891 154.065 210.685 166.773 208.97 172.673C211.142 174.789 213.186 176.619 214.81 177.787C220.058 181.561 224.885 162.16 206.857 144.236Z" fill="#8087DE"/>
<path fill-rule="evenodd" clip-rule="evenodd" d="M64.3493 123.148C64.3493 123.148 9.22261 114.247 2.43653 117.069C-4.34627 119.891 3.51771 131.993 20.0015 141.929C35.9956 151.57 45.3121 154.197 45.3121 154.197L64.3493 123.148Z" fill="#98BDFE"/>
<path fill-rule="evenodd" clip-rule="evenodd" d="M2.43653 117.069C3.11678 116.788 4.17166 116.625 5.52231 116.56C7.72737 121.647 14.6088 128.586 24.7567 134.703C35.7393 141.322 44.0765 145.132 51.7104 143.762L45.3121 154.198C45.3121 154.198 35.9956 151.57 20.0015 141.929C3.51771 131.993 -4.34626 119.891 2.43653 117.069Z" fill="#8087DE"/>
<path fill-rule="evenodd" clip-rule="evenodd" d="M27.6517 123.205C26.0875 120.721 20.5502 119.23 17.9442 119.371C16.6067 119.443 15.7194 119.902 15.2133 120.534C13.9876 121.306 14.1026 122.301 14.9964 123.299C15.4237 124.187 16.2912 124.944 17.4907 125.193L17.4874 125.147C22.5778 127.971 31.6051 129.491 27.6517 123.205Z" fill="white"/>
<path fill-rule="evenodd" clip-rule="evenodd" d="M68.1055 217.58C68.1055 217.58 77.0999 241.044 84.6353 241.81C92.1673 242.577 92.3875 226.493 92.3875 226.493L68.1055 217.58Z" fill="#98BDFE"/>
<path fill-rule="evenodd" clip-rule="evenodd" d="M86.3275 224.174C86.2387 226.451 85.542 237.555 80.2446 238.962C81.7957 240.58 83.3731 241.656 84.8881 241.81C92.4234 242.577 92.6436 226.493 92.6436 226.493L86.3275 224.174Z" fill="#8087DE"/>
<path fill-rule="evenodd" clip-rule="evenodd" d="M146.581 226.493C146.581 226.493 158.089 244.173 172.91 240.479C179.108 238.934 169.332 217.58 169.332 217.58L146.581 226.493Z" fill="#98BDFE"/>
<path fill-rule="evenodd" clip-rule="evenodd" d="M169.331 217.58L163.16 219.998C165.644 226.247 169.575 237.822 165.069 238.945C163.853 239.248 162.66 239.405 161.494 239.442C164.924 240.88 168.789 241.506 172.91 240.479C179.108 238.934 169.331 217.58 169.331 217.58Z" fill="#8087DE"/>
<path fill-rule="evenodd" clip-rule="evenodd" d="M151.784 59.925C137.808 49.3583 99.6352 49.3583 85.6584 59.925C70.4862 71.3963 71.0021 98.7816 71.0021 98.7816H166.441C166.441 98.7816 166.954 71.3963 151.784 59.925Z" fill="#002B43"/>
<path fill-rule="evenodd" clip-rule="evenodd" d="M71.3994 98.7816C72.3363 89.8472 75.4385 74.8958 85.6584 67.1669C99.6352 56.6009 137.808 56.6009 151.784 67.1669C162.005 74.8958 165.107 89.8472 166.04 98.7816H166.441C166.441 98.7816 166.954 71.3963 151.784 59.925C137.808 49.3583 99.6352 49.3583 85.6584 59.925C70.4862 71.3963 71.0021 98.7816 71.0021 98.7816H71.3994Z" fill="#000F16"/>
<path fill-rule="evenodd" clip-rule="evenodd" d="M132.21 85.6632C131.77 85.6494 131.402 85.9975 131.388 86.4385C131.385 86.4868 131.244 87.0701 128.963 88.9498C126.788 90.7454 122.841 91.3465 120.925 91.3409C119.134 91.4194 115.062 90.7454 112.883 88.9498C110.606 87.0701 110.465 86.4868 110.461 86.4385C110.448 85.9975 110.08 85.6494 109.64 85.6632C109.199 85.6751 108.851 86.0431 108.864 86.4845C108.867 86.661 109.019 87.8322 111.868 90.1828C114.776 92.5831 118.529 92.9479 120.544 92.9479C122.949 92.9479 127.074 92.5831 129.982 90.1828C132.831 87.8322 132.979 86.661 132.986 86.4845C132.999 86.0431 132.65 85.6751 132.21 85.6632Z" fill="#3AEDB1"/>
<path fill-rule="evenodd" clip-rule="evenodd" d="M93.4745 71.6554C93.4745 74.2594 91.3644 76.3702 88.762 76.3702C86.156 76.3702 84.0459 74.2594 84.0459 71.6554C84.0459 69.0514 86.156 66.9409 88.762 66.9409C91.3644 66.9409 93.4745 69.0514 93.4745 71.6554Z" fill="#3AEDB1"/>
<path fill-rule="evenodd" clip-rule="evenodd" d="M153.399 71.6554C153.399 74.2594 151.286 76.3702 148.684 76.3702C146.081 76.3702 143.968 74.2594 143.968 71.6554C143.968 69.0514 146.081 66.9409 148.684 66.9409C151.286 66.9409 153.399 69.0514 153.399 71.6554Z" fill="#3AEDB1"/>
</svg>
