<svg width="209" height="250" viewBox="0 0 209 250" fill="none" xmlns="http://www.w3.org/2000/svg">
<path fill-rule="evenodd" clip-rule="evenodd" d="M165.763 241.017C165.763 245.978 140.014 250 108.249 250C76.4836 250 50.7314 245.978 50.7314 241.017C50.7314 236.056 76.4836 232.034 108.249 232.034C140.014 232.034 165.763 236.056 165.763 241.017Z" fill="#B8BACF" fill-opacity="0.25"/>
<path fill-rule="evenodd" clip-rule="evenodd" d="M155.466 54.86C140.519 33.1195 104.171 33.1195 104.171 33.1195C104.171 33.1195 67.8243 33.1195 52.8767 54.86C39.1605 74.8129 39.2915 102.078 39.2915 102.078L52.5394 119.062H155.803L169.055 102.078C169.055 102.078 169.182 74.8129 155.466 54.86Z" fill="#98BDFE"/>
<path fill-rule="evenodd" clip-rule="evenodd" d="M155.486 54.86C149.626 46.3366 140.476 41.1557 131.518 38.0054C136.153 40.8898 140.371 44.5664 143.597 49.255C157.313 69.208 157.182 96.4726 157.182 96.4726L143.934 113.457H48.1865L52.5588 119.062H155.826L169.074 102.078C169.074 102.078 169.202 74.813 155.486 54.86Z" fill="#8087DE"/>
<path fill-rule="evenodd" clip-rule="evenodd" d="M136.784 58.9247C122.808 48.3584 84.6351 48.3584 70.6587 58.9247C55.4862 70.396 56.0021 97.7812 56.0021 97.7812H151.441C151.441 97.7812 151.954 70.396 136.784 58.9247Z" fill="#002B43"/>
<path fill-rule="evenodd" clip-rule="evenodd" d="M56.3997 97.7812C57.3363 88.8472 60.4385 73.8951 70.6587 66.1669C84.6351 55.6003 122.808 55.6003 136.784 66.1669C147.005 73.8951 150.107 88.8472 151.04 97.7812H151.441C151.441 97.7812 151.954 70.396 136.784 58.9247C122.808 48.3584 84.6351 48.3584 70.6587 58.9247C55.4862 70.396 56.0021 97.7812 56.0021 97.7812H56.3997Z" fill="#000F16"/>
<path fill-rule="evenodd" clip-rule="evenodd" d="M88.2629 75.886C87.6385 75.886 87.1259 75.3826 87.1193 74.7546C87.1193 74.747 87.0766 73.3461 86.2353 72.005C85.1476 70.2754 83.2251 69.399 80.5173 69.399H80.4614C74.6185 69.4243 73.8134 74.3214 73.7838 74.5301C73.6885 75.1552 73.1035 75.586 72.4791 75.492C71.8548 75.3977 71.4243 74.8144 71.5196 74.1893C71.8843 71.7523 74.2241 67.1361 80.4515 67.1098L80.5173 67.1091C89.2192 67.1091 89.4065 74.6517 89.4065 74.7283C89.4164 75.3602 88.9103 75.8788 88.2761 75.8857L88.2629 75.886Z" fill="#30E2CF"/>
<path fill-rule="evenodd" clip-rule="evenodd" d="M134.816 75.886C134.191 75.886 133.679 75.3826 133.672 74.7546C133.672 74.747 133.629 73.3461 132.788 72.005C131.7 70.2754 129.778 69.399 127.07 69.399H127.014C121.171 69.4243 120.366 74.3214 120.337 74.5301C120.241 75.1552 119.656 75.586 119.032 75.492C118.407 75.3977 117.977 74.8144 118.072 74.1893C118.437 71.7523 120.777 67.1361 127.004 67.1098L127.07 67.1091C135.772 67.1091 135.959 74.6517 135.963 74.7283C135.969 75.3602 135.463 75.8788 134.829 75.8857L134.816 75.886Z" fill="#30E2CF"/>
<path fill-rule="evenodd" clip-rule="evenodd" d="M108.74 85.9866C108.74 89.5561 106.679 92.4497 104.139 92.4497C101.599 92.4497 99.5381 89.5561 99.5381 85.9866C99.5381 82.4171 101.599 79.5239 104.139 79.5239C106.679 79.5239 108.74 82.4171 108.74 85.9866Z" fill="#30E2CF"/>
<path fill-rule="evenodd" clip-rule="evenodd" d="M117.59 37.1957C117.59 38.3214 116.676 39.2338 115.553 39.2338H92.7905C91.6672 39.2338 90.7534 38.3214 90.7534 37.1957V30.0628C90.7534 28.9372 91.6672 28.0244 92.7905 28.0244H115.553C116.676 28.0244 117.59 28.9372 117.59 30.0628V37.1957Z" fill="#98BDFE"/>
<path fill-rule="evenodd" clip-rule="evenodd" d="M98.1123 33.4591L101.168 4.92511H105.245L110.23 33.6291L98.1123 33.4591Z" fill="#98BDFE"/>
<path fill-rule="evenodd" clip-rule="evenodd" d="M108.249 4.92511C108.249 7.64541 106.042 9.85087 103.323 9.85087C100.602 9.85087 98.3975 7.64541 98.3975 4.92511C98.3975 2.20481 100.602 0 103.323 0C106.042 0 108.249 2.20481 108.249 4.92511Z" fill="#98BDFE"/>
<path fill-rule="evenodd" clip-rule="evenodd" d="M106.395 1.07819C106.713 1.72731 106.89 2.45635 106.89 3.22665C106.89 5.94696 104.682 8.15209 101.964 8.15209C100.801 8.15209 99.7304 7.74794 98.8887 7.07393C99.6878 8.71737 101.371 9.85088 103.323 9.85088C106.041 9.85088 108.249 7.64543 108.249 4.92513C108.249 3.36814 107.525 1.98081 106.395 1.07819Z" fill="#8087DE"/>
<path fill-rule="evenodd" clip-rule="evenodd" d="M52.5393 119.062H155.803L169.054 102.078H39.2915L52.5393 119.062Z" fill="#8087DE"/>
<path fill-rule="evenodd" clip-rule="evenodd" d="M117.59 33.8606C117.59 34.5769 117.134 35.1579 116.571 35.1579H105.19C104.627 35.1579 104.171 34.5769 104.171 33.8606V29.321C104.171 28.6048 104.627 28.0244 105.19 28.0244H116.571C117.134 28.0244 117.59 28.6048 117.59 29.321V33.8606Z" fill="#8087DE"/>
<path fill-rule="evenodd" clip-rule="evenodd" d="M83.8458 42.4897C82.1886 39.3223 74.7017 41.1361 72.2552 42.2909C70.2541 43.2351 66.6384 45.3262 64.3328 47.5441C62.502 49.0022 60.8677 50.6981 59.4463 52.6101C58.264 54.1985 56.0369 57.4713 57.4649 59.5569C59.0369 61.8508 61.6897 59.8621 63.0063 58.538C66.4354 55.0906 69.0686 51.3973 73.7192 49.2976C76.0052 48.2653 85.7978 46.223 83.8458 42.4897Z" fill="white"/>
<path fill-rule="evenodd" clip-rule="evenodd" d="M174.56 157.54L154.379 122.731H53.9639L33.7827 157.54C33.7827 157.54 34.6473 172.043 39.5142 185.302C46.9978 205.684 54.131 213.836 54.131 213.836L78.8318 223.375L103.945 225.684V225.725C103.945 225.725 104.116 225.704 104.171 225.704C104.227 225.704 104.397 225.725 104.397 225.725V225.684L129.511 223.375L154.212 213.836C154.212 213.836 163.172 202.286 168.828 185.302C173.289 171.901 174.56 157.54 174.56 157.54Z" fill="#98BDFE"/>
<path fill-rule="evenodd" clip-rule="evenodd" d="M154.379 122.731H130.598L150.783 157.54C150.783 157.54 149.512 171.901 145.051 185.302C139.395 202.286 136.863 209.051 130.434 213.836C125.122 217.788 105.73 223.375 105.73 223.375L92.2827 224.611L103.945 225.684V225.725C103.945 225.725 104.116 225.704 104.171 225.704C104.227 225.704 104.397 225.725 104.397 225.725V225.684L129.511 223.375L154.212 213.836C154.212 213.836 163.172 202.286 168.829 185.302C173.289 171.901 174.56 157.54 174.56 157.54L154.379 122.731Z" fill="#8087DE"/>
<path fill-rule="evenodd" clip-rule="evenodd" d="M33.7827 157.54H174.56L169.074 167.978L33.7827 157.54Z" fill="#8087DE"/>
<path fill-rule="evenodd" clip-rule="evenodd" d="M62.0438 180.622C61.6409 175.571 65.0896 168.607 59.3254 165.94C56.3648 164.571 51.3604 164.008 49.0678 166.95C48.2228 168.033 47.7971 169.398 47.7185 170.812C46.8931 174.416 48.832 179.686 49.7392 182.915C50.8036 186.715 54.5045 200.084 61.3134 196.444C65.9543 193.963 62.3385 184.362 62.0438 180.622Z" fill="white"/>
<path fill-rule="evenodd" clip-rule="evenodd" d="M69.4487 130C66.3865 125.631 62.0765 127.086 59.011 130.257C52.1889 134.41 44.9444 151.379 55.2577 153.039C61.2053 153.996 63.0263 146.749 65.0405 142.832C66.8909 139.24 72.4553 134.289 69.4487 130Z" fill="white"/>
<path fill-rule="evenodd" clip-rule="evenodd" d="M157.687 122.499C157.687 122.499 193.645 84.9896 201.867 82.885C210.089 80.7836 210.587 96.4225 201.566 115.953C192.814 134.904 177.826 154.582 177.826 154.582L157.687 122.499Z" fill="#98BDFE"/>
<path fill-rule="evenodd" clip-rule="evenodd" d="M201.868 82.885C201.046 83.0945 199.946 83.6607 198.637 84.5052C199.881 90.3477 197.933 100.894 192.382 112.919C186.373 125.93 175.015 139.385 171.418 144.377L177.827 154.582C177.827 154.582 192.814 134.904 201.567 115.953C210.587 96.4225 210.09 80.7836 201.868 82.885Z" fill="#8087DE"/>
<path fill-rule="evenodd" clip-rule="evenodd" d="M194.251 91.4212C192.938 90.9728 190.097 93.4669 189.289 94.1608C187.934 95.3195 184.572 98.8643 184.35 101.483C183.741 102.979 183.895 104.262 185.63 104.635C188.248 105.195 193.367 98.3111 194.329 96.2262C194.925 94.93 196.048 92.0366 194.251 91.4212Z" fill="white"/>
<path fill-rule="evenodd" clip-rule="evenodd" d="M50.4798 122.611C50.4798 122.611 14.5411 85.0811 6.31901 82.9733C-1.89977 80.8654 -2.4071 96.5043 6.60376 116.041C15.3462 134.996 30.324 154.684 30.324 154.684L50.4798 122.611Z" fill="#98BDFE"/>
<path fill-rule="evenodd" clip-rule="evenodd" d="M6.31901 82.9733C7.14056 83.1827 8.24032 83.749 9.55283 84.5934C8.30578 90.4359 10.2435 100.985 15.7914 113.011C21.7943 126.024 33.1421 139.487 36.736 144.478L30.324 154.684C30.324 154.684 15.3462 134.996 6.60376 116.041C-2.4071 96.5043 -1.89977 80.8654 6.31901 82.9733Z" fill="#8087DE"/>
<path fill-rule="evenodd" clip-rule="evenodd" d="M13.9321 101.513C15.2446 101.064 18.0857 103.562 18.8941 104.256C20.2492 105.414 23.6074 108.962 23.8267 111.581C24.4355 113.077 24.2817 114.36 22.5469 114.73C19.9284 115.289 14.8126 108.403 13.8535 106.318C13.2546 105.022 12.1352 102.128 13.9321 101.513Z" fill="white"/>
<path fill-rule="evenodd" clip-rule="evenodd" d="M53.8496 216.842C53.8496 216.842 62.8136 240.226 70.3234 240.991C77.8299 241.755 78.0494 225.725 78.0494 225.725L53.8496 216.842Z" fill="#98BDFE"/>
<path fill-rule="evenodd" clip-rule="evenodd" d="M72.0096 223.414C71.9212 225.683 71.2269 236.75 65.9507 238.153C67.4933 239.765 69.0653 240.837 70.5784 240.991C78.0849 241.755 78.3044 225.725 78.3044 225.725L72.0096 223.414Z" fill="#8087DE"/>
<path fill-rule="evenodd" clip-rule="evenodd" d="M156.865 215.344C156.865 215.344 149.715 239.345 142.284 240.68C134.856 242.016 133.412 226.05 133.412 226.05L156.865 215.344Z" fill="#98BDFE"/>
<path fill-rule="evenodd" clip-rule="evenodd" d="M139.261 223.284C139.519 225.54 141.059 236.521 146.427 237.517C145.012 239.242 143.525 240.431 142.031 240.7C134.604 242.036 133.159 226.069 133.159 226.069L139.261 223.284Z" fill="#8087DE"/>
<path fill-rule="evenodd" clip-rule="evenodd" d="M101.439 2.15029C98.9193 2.7587 99.8824 8.01724 102.977 5.18665C105.441 2.93603 102.86 1.52021 101.439 2.15029Z" fill="white"/>
</svg>
