<svg width="315" height="250" viewBox="0 0 315 250" fill="none" xmlns="http://www.w3.org/2000/svg">
<path fill-rule="evenodd" clip-rule="evenodd" d="M283.065 241.017C283.065 245.978 257.315 250 225.55 250C193.785 250 168.034 245.978 168.034 241.017C168.034 236.055 193.785 232.033 225.55 232.033C257.315 232.033 283.065 236.055 283.065 241.017Z" fill="#B8BACF" fill-opacity="0.25"/>
<path fill-rule="evenodd" clip-rule="evenodd" d="M266.886 54.8608C251.939 33.1208 215.593 33.1208 215.593 33.1208C215.593 33.1208 179.246 33.1208 164.3 54.8608C150.582 74.8126 150.712 102.078 150.712 102.078L163.96 119.062H267.226L280.473 102.078C280.473 102.078 280.604 74.8126 266.886 54.8608Z" fill="#98BDFE"/>
<path fill-rule="evenodd" clip-rule="evenodd" d="M266.906 54.8609C261.046 46.3391 251.898 41.158 242.94 38.0073C247.574 40.8894 251.794 44.5673 255.017 49.2572C268.735 69.209 268.605 96.4741 268.605 96.4741L255.357 113.459H159.608L163.98 119.062H267.246L280.494 102.078C280.494 102.078 280.624 74.8127 266.906 54.8609Z" fill="#8087DE"/>
<path fill-rule="evenodd" clip-rule="evenodd" d="M248.543 59.2757C234.616 48.7463 196.57 48.7463 182.643 59.2757C167.523 70.709 168.036 98.0002 168.036 98.0002H263.149C263.149 98.0002 263.663 70.709 248.543 59.2757Z" fill="#002B43"/>
<path fill-rule="evenodd" clip-rule="evenodd" d="M168.433 98.0002C169.366 89.0986 172.456 74.197 182.643 66.494C196.57 55.9646 234.616 55.9646 248.543 66.494C258.73 74.197 261.82 89.0986 262.753 98.0002H263.149C263.149 98.0002 263.663 70.709 248.543 59.2757C234.616 48.7463 196.57 48.7463 182.643 59.2757C167.523 70.709 168.036 98.0002 168.036 98.0002H168.433Z" fill="#000F16"/>
<path fill-rule="evenodd" clip-rule="evenodd" d="M229.011 37.1984C229.011 38.3218 228.098 39.2355 226.972 39.2355H204.213C203.088 39.2355 202.175 38.3218 202.175 37.1984V30.062C202.175 28.9386 203.088 28.0249 204.213 28.0249H226.972C228.098 28.0249 229.011 28.9386 229.011 30.062V37.1984Z" fill="#98BDFE"/>
<path fill-rule="evenodd" clip-rule="evenodd" d="M209.533 33.4616L212.59 4.92578H216.667L221.652 33.6286L209.533 33.4616Z" fill="#98BDFE"/>
<path fill-rule="evenodd" clip-rule="evenodd" d="M219.669 4.92572C219.669 7.64731 217.464 9.85144 214.744 9.85144C212.023 9.85144 209.818 7.64731 209.818 4.92572C209.818 2.2074 212.023 0 214.744 0C217.464 0 219.669 2.2074 219.669 4.92572Z" fill="#98BDFE"/>
<path fill-rule="evenodd" clip-rule="evenodd" d="M217.818 1.08081C218.133 1.72928 218.311 2.45634 218.311 3.22926C218.311 5.94758 216.105 8.15498 213.385 8.15498C212.222 8.15498 211.154 7.74887 210.311 7.0742C211.109 8.7183 212.794 9.85148 214.744 9.85148C217.464 9.85148 219.669 7.64734 219.669 4.92575C219.669 3.37009 218.946 1.98146 217.818 1.08081Z" fill="#8087DE"/>
<path fill-rule="evenodd" clip-rule="evenodd" d="M163.96 119.062H267.226L280.474 102.078H150.712L163.96 119.062Z" fill="#8087DE"/>
<path fill-rule="evenodd" clip-rule="evenodd" d="M229.01 33.8611C229.01 34.5783 228.554 35.158 227.991 35.158H216.612C216.049 35.158 215.593 34.5783 215.593 33.8611V29.3218C215.593 28.6046 216.049 28.0249 216.612 28.0249H227.991C228.554 28.0249 229.01 28.6046 229.01 29.3218V33.8611Z" fill="#8087DE"/>
<path fill-rule="evenodd" clip-rule="evenodd" d="M212.782 2.0862C210.462 2.64623 211.349 7.49335 214.203 4.88312C216.471 2.80999 214.094 1.50651 212.782 2.0862Z" fill="white"/>
<path fill-rule="evenodd" clip-rule="evenodd" d="M285.981 157.538L265.799 122.73H165.386L145.204 157.538C145.204 157.538 146.068 172.043 150.936 185.301C158.42 205.682 165.553 213.837 165.553 213.837L190.254 223.374L215.368 225.683V225.725C215.368 225.725 215.536 225.706 215.593 225.706C215.649 225.706 215.817 225.725 215.817 225.725V225.683L240.931 223.374L265.632 213.837C265.632 213.837 274.594 202.285 280.249 185.301C284.711 171.903 285.981 157.538 285.981 157.538Z" fill="#98BDFE"/>
<path fill-rule="evenodd" clip-rule="evenodd" d="M265.799 122.73H242.02L262.203 157.538C262.203 157.538 260.932 171.903 256.471 185.301C250.815 202.285 248.284 209.052 241.854 213.837C236.543 217.786 217.153 223.374 217.153 223.374L203.704 224.612L215.368 225.683V225.725C215.368 225.725 215.536 225.706 215.593 225.706C215.649 225.706 215.817 225.725 215.817 225.725V225.683L240.931 223.374L265.632 213.837C265.632 213.837 274.594 202.285 280.249 185.301C284.711 171.903 285.981 157.538 285.981 157.538L265.799 122.73Z" fill="#8087DE"/>
<path fill-rule="evenodd" clip-rule="evenodd" d="M145.204 157.538H285.981L280.494 167.979L145.204 157.538Z" fill="#8087DE"/>
<path fill-rule="evenodd" clip-rule="evenodd" d="M173.464 180.621C173.064 175.57 176.512 168.608 170.746 165.942C167.785 164.569 162.781 164.009 160.489 166.95C159.646 168.031 159.22 169.397 159.141 170.812C158.315 174.418 160.254 179.684 161.16 182.913C162.226 186.716 165.925 200.084 172.735 196.443C177.376 193.963 173.761 184.361 173.464 180.621Z" fill="white"/>
<path fill-rule="evenodd" clip-rule="evenodd" d="M180.869 130.001C177.807 125.632 173.499 127.086 170.433 130.256C163.61 134.409 156.365 151.381 166.68 153.038C172.627 153.994 174.448 146.75 176.463 142.833C178.311 139.24 183.876 134.288 180.869 130.001Z" fill="white"/>
<path fill-rule="evenodd" clip-rule="evenodd" d="M161.528 122.73C161.528 122.73 116.589 116.249 109.828 119.062C103.066 121.876 100.905 131.547 117.332 141.447C133.272 151.057 142.555 153.673 142.555 153.673L161.528 122.73Z" fill="#98BDFE"/>
<path fill-rule="evenodd" clip-rule="evenodd" d="M109.302 119.062C109.978 118.781 116.635 118.113 117.98 118.047C120.18 123.12 111.956 128.151 122.07 134.246C133.014 140.842 141.323 144.641 148.932 143.275L142.555 153.673C142.555 153.673 133.272 151.057 117.332 141.448C100.905 131.547 102.54 121.876 109.302 119.062Z" fill="#8087DE"/>
<path fill-rule="evenodd" clip-rule="evenodd" d="M165.27 216.843C165.27 216.843 174.235 240.227 181.744 240.99C189.253 241.753 189.472 225.725 189.472 225.725L165.27 216.843Z" fill="#98BDFE"/>
<path fill-rule="evenodd" clip-rule="evenodd" d="M183.43 223.413C183.343 225.682 182.649 236.749 177.371 238.151C178.916 239.765 180.487 240.836 181.998 240.99C189.507 241.753 189.727 225.725 189.727 225.725L183.43 223.413Z" fill="#8087DE"/>
<path fill-rule="evenodd" clip-rule="evenodd" d="M243.479 225.725C243.479 225.725 254.949 243.345 269.719 239.664C275.898 238.124 266.153 216.843 266.153 216.843L243.479 225.725Z" fill="#98BDFE"/>
<path fill-rule="evenodd" clip-rule="evenodd" d="M266.153 216.843L260.002 219.25C262.48 225.479 266.395 237.018 261.907 238.134C260.695 238.436 259.505 238.593 258.343 238.629C261.763 240.063 265.613 240.686 269.719 239.664C275.898 238.124 266.153 216.843 266.153 216.843Z" fill="#8087DE"/>
<path fill-rule="evenodd" clip-rule="evenodd" d="M229.033 82.9349C228.596 82.9218 228.227 83.269 228.214 83.7079C228.213 83.7537 228.071 87.3268 225.8 89.2002C223.631 90.9884 219.697 91.5877 217.787 91.5844C216.004 91.6597 211.945 90.9884 209.775 89.2002C207.504 87.3268 207.362 83.7537 207.361 83.7079C207.348 83.269 206.979 82.9218 206.542 82.9349C206.102 82.9448 205.755 83.3116 205.768 83.7537C205.773 83.9273 205.921 88.0866 208.761 90.4283C211.66 92.8191 215.401 93.1827 217.409 93.1827C219.806 93.1827 223.915 92.8191 226.814 90.4283C229.654 88.0866 229.802 83.9273 229.807 83.7537C229.819 83.3116 229.473 82.9448 229.033 82.9349Z" fill="#30E2CF"/>
<path fill-rule="evenodd" clip-rule="evenodd" d="M246.583 76.1816C245.959 76.1816 245.45 75.6772 245.442 75.0517C245.442 75.0451 245.401 73.6499 244.561 72.3137C243.479 70.5877 241.561 69.7166 238.862 69.7166H238.808C232.984 69.7395 232.182 74.6226 232.151 74.829C232.058 75.4512 231.475 75.8803 230.853 75.7886C230.23 75.6936 229.801 75.1139 229.895 74.4884C230.26 72.0615 232.591 67.46 238.798 67.4338H238.863C247.536 67.4338 247.723 74.9501 247.724 75.0255C247.731 75.6576 247.226 76.1718 246.596 76.1816H246.583Z" fill="#30E2CF"/>
<path fill-rule="evenodd" clip-rule="evenodd" d="M153.352 88.7939L99.685 133.178L99.7348 133.24C96.6127 136.528 96.1181 141.372 98.7565 144.562C101.395 147.752 106.247 148.178 110.063 145.728L110.113 145.787L163.78 101.403L153.352 88.7939Z" fill="#2A56F4"/>
<path fill-rule="evenodd" clip-rule="evenodd" d="M161.748 98.8943L112.122 139.938L112.073 139.879C108.257 142.328 103.404 141.903 100.766 138.713C99.6129 137.321 99.0584 135.608 99.0597 133.853C96.5087 137.095 96.2546 141.487 98.7057 144.451C101.344 147.641 106.196 148.066 110.013 145.617L110.062 145.676L163.728 101.288L161.748 98.8943Z" fill="#0643F2"/>
<path fill-rule="evenodd" clip-rule="evenodd" d="M206.653 105.834C190.089 119.534 165.555 117.212 151.856 100.65C138.156 84.0845 140.478 59.5508 157.042 45.8512C173.607 32.1515 198.141 34.4736 211.84 51.0389C225.54 67.601 223.217 92.1346 206.653 105.834Z" fill="#2A56F4"/>
<path fill-rule="evenodd" clip-rule="evenodd" d="M219.218 64.6926C221.796 78.1925 217.132 92.6454 205.795 102.022C189.23 115.722 164.697 113.4 150.997 96.8376C147.597 92.7241 145.184 88.1226 143.731 83.3147C144.919 89.5374 147.645 95.557 151.967 100.784C165.667 117.349 190.2 119.671 206.765 105.972C219.217 95.6716 223.62 79.2504 219.218 64.6926Z" fill="#0643F2"/>
<path fill-rule="evenodd" clip-rule="evenodd" d="M201.8 96.9783C188.391 108.068 168.531 106.188 157.442 92.7796C146.352 79.3714 148.232 59.5114 161.641 48.4219C175.049 37.3325 194.909 39.2124 205.998 52.6206C217.088 66.0288 215.208 85.8888 201.8 96.9783Z" fill="#0643F2"/>
<path fill-rule="evenodd" clip-rule="evenodd" d="M201.917 100.109C188.515 111.192 168.665 109.312 157.581 95.9108C146.497 82.5092 148.376 62.6622 161.778 51.576C175.18 40.4932 195.03 42.3731 206.114 55.7747C217.198 69.1763 215.319 89.0233 201.917 100.109Z" fill="#000F16"/>
<path fill-rule="evenodd" clip-rule="evenodd" d="M109.764 134.855C109.178 134.855 108.596 134.602 108.193 134.114C107.476 133.25 107.598 131.963 108.465 131.246L145.135 100.918C145.515 100.604 145.975 100.45 146.432 100.45C147.018 100.45 147.6 100.702 148.003 101.19C148.72 102.058 148.599 103.342 147.731 104.059L111.062 134.386C110.682 134.701 110.222 134.855 109.764 134.855Z" fill="#6A89F7"/>
<path fill-rule="evenodd" clip-rule="evenodd" d="M201.099 80.3475C199.651 80.3475 198.469 79.1816 198.452 77.7275C198.452 77.7111 198.356 74.472 196.408 71.3705C193.895 67.3717 189.445 65.3411 183.182 65.3411C183.14 65.3411 183.098 65.3411 183.056 65.3444C169.54 65.4001 167.681 76.7286 167.608 77.21C167.391 78.6543 166.039 79.6532 164.596 79.4338C163.15 79.2144 162.154 77.8683 162.372 76.4207C163.22 70.7843 168.63 60.1108 183.034 60.0486C183.083 60.0486 183.136 60.0486 183.184 60.0486C203.311 60.0486 203.745 77.4917 203.747 77.6685C203.764 79.1292 202.592 80.3279 201.13 80.3443L201.099 80.3475Z" fill="#30E2CF"/>
<path fill-rule="evenodd" clip-rule="evenodd" d="M163.482 84.8245C162.018 84.8245 160.577 84.3758 159.39 83.3605C155.929 80.3933 155.875 74.4621 156.558 70.3617C157.555 64.3847 161.855 57.9819 166.863 54.7527C173.272 50.6195 177.199 49.9678 180.02 49.9678C180.445 49.9678 180.845 49.9842 181.224 50.0038C184.061 50.1512 188.782 50.5999 189.083 54.3695C189.392 58.2341 184.068 58.9382 181.442 59.8749C181.192 59.9633 180.949 60.0583 180.714 60.1533C168.043 61.2799 163.173 71.0986 162.371 76.4206C162.154 77.8682 163.15 79.2142 164.596 79.4337C164.729 79.4533 164.862 79.4632 164.993 79.4632C166.279 79.4632 167.411 78.5232 167.608 77.2099C167.658 76.8758 168.563 71.3508 173.592 67.9611C173.496 68.2133 173.402 68.472 173.31 68.7373C171.931 72.7034 172.637 77.675 170.259 81.2251C168.811 83.3834 166.109 84.8245 163.482 84.8245Z" fill="#4D575C"/>
<path fill-rule="evenodd" clip-rule="evenodd" d="M164.993 79.4632C164.862 79.4632 164.729 79.4534 164.596 79.4337C163.15 79.2143 162.154 77.8682 162.372 76.4207C163.173 71.0986 168.043 61.2799 180.714 60.1533C177.047 61.6566 175.066 64.0867 173.592 67.9611C168.563 71.3508 167.659 76.8759 167.608 77.2099C167.411 78.5232 166.279 79.4632 164.993 79.4632Z" fill="#75F2C9"/>
<path fill-rule="evenodd" clip-rule="evenodd" d="M288.387 156.742C288.387 156.742 302.807 173.648 309.702 178.606C314.933 182.366 319.743 163.033 301.774 145.168C284.205 127.702 269.496 124.479 269.496 124.479L288.387 156.742Z" fill="#98BDFE"/>
<path fill-rule="evenodd" clip-rule="evenodd" d="M301.774 145.168C284.205 127.702 269.496 124.479 269.496 124.479L271.067 127.165C276.702 130.27 283.934 135.212 291.731 142.964C303.801 154.964 305.593 167.628 303.882 173.507C306.048 175.616 308.083 177.441 309.702 178.606C314.933 182.366 319.743 163.033 301.774 145.168Z" fill="#8087DE"/>
<path d="M6.63281 27.375H5.2207C5.19727 27.6328 5.14648 27.8613 5.06836 28.0605C4.99023 28.2598 4.88672 28.4258 4.75781 28.5586C4.625 28.6953 4.46484 28.7988 4.27734 28.8691C4.08984 28.9395 3.875 28.9746 3.63281 28.9746C3.42969 28.9746 3.24805 28.9473 3.08789 28.8926C2.93164 28.834 2.79297 28.75 2.67188 28.6406C2.55469 28.5391 2.45312 28.418 2.36719 28.2773C2.28516 28.1367 2.2168 27.9805 2.16211 27.8086C2.0918 27.6016 2.03906 27.373 2.00391 27.123C1.97266 26.873 1.95703 26.6055 1.95703 26.3203V25.1426C1.95703 24.9121 1.96875 24.6875 1.99219 24.4688C2.01953 24.2461 2.05859 24.0371 2.10938 23.8418C2.17578 23.6191 2.25977 23.418 2.36133 23.2383C2.4668 23.0547 2.59766 22.9062 2.75391 22.793C2.86719 22.6992 2.99609 22.627 3.14062 22.5762C3.28906 22.5254 3.45508 22.5 3.63867 22.5C3.90039 22.5 4.125 22.5391 4.3125 22.6172C4.5 22.6914 4.6582 22.8008 4.78711 22.9453C4.91211 23.0898 5.00977 23.2656 5.08008 23.4727C5.1543 23.6758 5.20312 23.9043 5.22656 24.1582H6.63281C6.58984 23.7324 6.49414 23.3457 6.3457 22.998C6.20117 22.6504 6.00195 22.3535 5.74805 22.1074C5.49805 21.8652 5.19531 21.6777 4.83984 21.5449C4.48828 21.4121 4.08789 21.3457 3.63867 21.3457C3.30664 21.3457 3 21.3906 2.71875 21.4805C2.44141 21.5703 2.1875 21.6953 1.95703 21.8555C1.71484 22.0312 1.5 22.2441 1.3125 22.4941C1.12891 22.7402 0.978516 23.0156 0.861328 23.3203C0.751953 23.5938 0.669922 23.8848 0.615234 24.1934C0.560547 24.502 0.533203 24.8223 0.533203 25.1543V26.3203C0.533203 26.668 0.560547 27.002 0.615234 27.3223C0.673828 27.6426 0.759766 27.9395 0.873047 28.2129C0.986328 28.4902 1.125 28.7461 1.28906 28.9805C1.45703 29.2109 1.65234 29.4082 1.875 29.5723C2.10547 29.748 2.36719 29.8848 2.66016 29.9824C2.95703 30.0762 3.28125 30.123 3.63281 30.123C4.0625 30.123 4.45312 30.0586 4.80469 29.9297C5.16016 29.7969 5.4668 29.6094 5.72461 29.3672C5.97852 29.1289 6.18359 28.8418 6.33984 28.5059C6.49609 28.166 6.59375 27.7891 6.63281 27.375ZM12.1641 30H13.5938V29.9004C13.5156 29.7363 13.4551 29.541 13.4121 29.3145C13.373 29.084 13.3535 28.8262 13.3535 28.541V25.7227C13.3535 25.3633 13.2871 25.0469 13.1543 24.7734C13.0215 24.4961 12.8379 24.2676 12.6035 24.0879C12.3691 23.9082 12.0898 23.7734 11.7656 23.6836C11.4453 23.5898 11.0996 23.543 10.7285 23.543C10.3145 23.543 9.94531 23.5977 9.62109 23.707C9.30078 23.8125 9.03125 23.957 8.8125 24.1406C8.58594 24.3203 8.41406 24.5273 8.29688 24.7617C8.17969 24.9961 8.11914 25.2402 8.11523 25.4941H9.52148C9.52148 25.373 9.54297 25.2598 9.58594 25.1543C9.63281 25.0449 9.70312 24.9531 9.79688 24.8789C9.89062 24.7969 10.0078 24.7324 10.1484 24.6855C10.293 24.6387 10.4609 24.6152 10.6523 24.6152C10.8633 24.6152 11.0488 24.6426 11.209 24.6973C11.373 24.748 11.5117 24.8223 11.625 24.9199C11.7305 25.0176 11.8105 25.1328 11.8652 25.2656C11.9238 25.3984 11.9531 25.5469 11.9531 25.7109V26.1387H10.9336C10.4766 26.1387 10.0664 26.1816 9.70312 26.2676C9.34375 26.3535 9.04102 26.4785 8.79492 26.6426C8.5293 26.8184 8.32617 27.041 8.18555 27.3105C8.04883 27.5762 7.98047 27.8828 7.98047 28.2305C7.98047 28.5 8.0332 28.752 8.13867 28.9863C8.24805 29.2168 8.40039 29.4141 8.5957 29.5781C8.78711 29.7461 9.01758 29.8789 9.28711 29.9766C9.56055 30.0703 9.86133 30.1172 10.1895 30.1172C10.3926 30.1172 10.582 30.0977 10.7578 30.0586C10.9336 30.0195 11.0977 29.9648 11.25 29.8945C11.4023 29.8281 11.5391 29.75 11.6602 29.6602C11.7852 29.5664 11.8965 29.4688 11.9941 29.3672C12.0137 29.4883 12.0352 29.6055 12.0586 29.7188C12.0859 29.8281 12.1211 29.9219 12.1641 30ZM10.459 28.9922C10.2793 28.9922 10.123 28.9707 9.99023 28.9277C9.85742 28.8809 9.74609 28.8184 9.65625 28.7402C9.56641 28.6621 9.49805 28.5684 9.45117 28.459C9.4043 28.3457 9.38086 28.2246 9.38086 28.0957C9.38086 27.9395 9.4082 27.7988 9.46289 27.6738C9.52148 27.5488 9.60938 27.4414 9.72656 27.3516C9.85938 27.2461 10.0371 27.166 10.2598 27.1113C10.4824 27.0527 10.7461 27.0234 11.0508 27.0234H11.9531V28.1953C11.9023 28.2969 11.8301 28.3945 11.7363 28.4883C11.6426 28.582 11.5312 28.666 11.4023 28.7402C11.2734 28.8145 11.1289 28.875 10.9688 28.9219C10.8125 28.9688 10.6426 28.9922 10.459 28.9922ZM15.3223 30H16.7227V25.4766C16.7852 25.3711 16.8574 25.2734 16.9395 25.1836C17.0215 25.0938 17.1094 25.0176 17.2031 24.9551C17.3242 24.873 17.459 24.8105 17.6074 24.7676C17.7559 24.7207 17.916 24.6973 18.0879 24.6973C18.2949 24.6973 18.4785 24.7207 18.6387 24.7676C18.7988 24.8105 18.9355 24.8848 19.0488 24.9902C19.1621 25.0957 19.248 25.2363 19.3066 25.4121C19.3652 25.5879 19.3945 25.8066 19.3945 26.0684V30H20.7949V26.0449C20.7949 25.5996 20.7422 25.2207 20.6367 24.9082C20.5312 24.5918 20.3828 24.332 20.1914 24.1289C20 23.9258 19.7695 23.7773 19.5 23.6836C19.2305 23.5898 18.9336 23.543 18.6094 23.543C18.3633 23.543 18.1289 23.5781 17.9062 23.6484C17.6836 23.7188 17.4785 23.8184 17.291 23.9473C17.1738 24.0293 17.0625 24.123 16.957 24.2285C16.8555 24.3301 16.7617 24.4414 16.6758 24.5625L16.5879 23.6602H15.3223V30ZM29.9121 21.4688V22.6348H31.6934V28.8398H29.9121V30H34.9395V28.8398H33.1172V22.6348H34.9395V21.4688H29.9121ZM45.5508 24.5625V21H44.1504V30H45.5508V25.4121C45.6172 25.3105 45.6934 25.2188 45.7793 25.1367C45.8691 25.0547 45.9648 24.9844 46.0664 24.9258C46.1875 24.8516 46.3203 24.7949 46.4648 24.7559C46.6133 24.7168 46.7695 24.6973 46.9336 24.6973C47.1445 24.6973 47.3301 24.7266 47.4902 24.7852C47.6543 24.8398 47.793 24.9258 47.9062 25.043C48.0156 25.1523 48.0977 25.2949 48.1523 25.4707C48.2109 25.6465 48.2402 25.8516 48.2402 26.0859V30H49.6406V26.0977C49.6406 25.6484 49.5859 25.2637 49.4766 24.9434C49.3711 24.6191 49.2207 24.3535 49.0254 24.1465C48.8301 23.9395 48.5938 23.7871 48.3164 23.6895C48.043 23.5918 47.7402 23.543 47.4082 23.543C47.1699 23.543 46.9434 23.5781 46.7285 23.6484C46.5176 23.7148 46.3242 23.8125 46.1484 23.9414C46.0352 24.0195 45.9277 24.1113 45.8262 24.2168C45.7246 24.3223 45.6328 24.4375 45.5508 24.5625ZM54.3164 30.1172C54.9336 30.1172 55.459 29.9961 55.8926 29.7539C56.3301 29.5117 56.6543 29.2383 56.8652 28.9336L56.1152 28.207C55.9199 28.457 55.6719 28.6504 55.3711 28.7871C55.0703 28.9199 54.7461 28.9863 54.3984 28.9863C54.1445 28.9863 53.9102 28.9434 53.6953 28.8574C53.4844 28.7715 53.3008 28.6504 53.1445 28.4941C52.9883 28.3457 52.8652 28.1777 52.7754 27.9902C52.6855 27.8027 52.6191 27.5703 52.5762 27.293V27.2637H56.9707V26.6602C56.9707 26.207 56.9102 25.7891 56.7891 25.4062C56.668 25.0234 56.4883 24.6934 56.25 24.416C56.0117 24.1426 55.7168 23.9297 55.3652 23.7773C55.0137 23.6211 54.6094 23.543 54.1523 23.543C53.7422 23.543 53.3555 23.6211 52.9922 23.7773C52.6328 23.9297 52.3164 24.1484 52.043 24.4336C51.7695 24.7188 51.5547 25.0625 51.3984 25.4648C51.2422 25.8672 51.1641 26.3164 51.1641 26.8125V27.0527C51.1641 27.4863 51.2383 27.8906 51.3867 28.2656C51.5391 28.6367 51.7539 28.959 52.0312 29.2324C52.3086 29.5098 52.6406 29.7266 53.0273 29.8828C53.418 30.0391 53.8477 30.1172 54.3164 30.1172ZM54.1465 24.6797C54.3809 24.6797 54.5859 24.7207 54.7617 24.8027C54.9414 24.8809 55.0898 24.9863 55.207 25.1191C55.3281 25.2559 55.4219 25.416 55.4883 25.5996C55.5547 25.7793 55.5879 25.9609 55.5879 26.1445V26.2383H52.6055C52.6484 25.9961 52.7148 25.7793 52.8047 25.5879C52.8945 25.3965 53.0059 25.2324 53.1387 25.0957C53.2715 24.9629 53.4219 24.8613 53.5898 24.791C53.7617 24.7168 53.9473 24.6797 54.1465 24.6797ZM58.834 21V22.166H60.8379V28.8398H58.834V30H64.1719V28.8398H62.25V21H58.834ZM65.7832 32.4375H67.1836V29.4258C67.2578 29.5078 67.3379 29.584 67.4238 29.6543C67.5098 29.7246 67.5996 29.7871 67.6934 29.8418C67.8535 29.9316 68.0273 30 68.2148 30.0469C68.4062 30.0938 68.6152 30.1172 68.8418 30.1172C69.2402 30.1172 69.5938 30.0352 69.9023 29.8711C70.2109 29.707 70.4707 29.4805 70.6816 29.1914C70.8926 28.9062 71.0508 28.5664 71.1562 28.1719C71.2656 27.7773 71.3203 27.3516 71.3203 26.8945V26.7715C71.3203 26.2949 71.2656 25.8594 71.1562 25.4648C71.0469 25.0664 70.8887 24.7246 70.6816 24.4395C70.4707 24.1543 70.209 23.9336 69.8965 23.7773C69.5879 23.6211 69.2305 23.543 68.8242 23.543C68.6172 23.543 68.4219 23.5664 68.2383 23.6133C68.0547 23.6562 67.8867 23.7188 67.7344 23.8008C67.6172 23.8633 67.5078 23.9375 67.4062 24.0234C67.3047 24.1094 67.2109 24.2051 67.125 24.3105L67.0723 23.6602H65.7832V32.4375ZM69.9199 26.7715V26.8945C69.9199 27.1758 69.8926 27.4434 69.8379 27.6973C69.7832 27.9473 69.6953 28.1699 69.5742 28.3652C69.457 28.5566 69.3047 28.709 69.1172 28.8223C68.9336 28.9316 68.7109 28.9863 68.4492 28.9863C68.2891 28.9863 68.1426 28.9688 68.0098 28.9336C67.877 28.8945 67.7578 28.8438 67.6523 28.7812C67.5508 28.7148 67.4609 28.6367 67.3828 28.5469C67.3047 28.457 67.2383 28.3574 67.1836 28.248V25.4297C67.2461 25.3125 67.3184 25.207 67.4004 25.1133C67.4863 25.0195 67.5859 24.9414 67.6992 24.8789C67.7969 24.8203 67.9082 24.7754 68.0332 24.7441C68.1582 24.7129 68.293 24.6973 68.4375 24.6973C68.6992 24.6973 68.9238 24.752 69.1113 24.8613C69.2988 24.9707 69.4531 25.1191 69.5742 25.3066C69.6914 25.4941 69.7773 25.7148 69.832 25.9688C69.8906 26.2188 69.9199 26.4863 69.9199 26.7715ZM75.0234 27.4863H76.3301C76.3301 27.334 76.334 27.2012 76.3418 27.0879C76.3496 26.9707 76.3691 26.8633 76.4004 26.7656C76.4277 26.668 76.4746 26.5723 76.541 26.4785C76.6074 26.3809 76.6992 26.2754 76.8164 26.1621C77.0039 25.9941 77.1914 25.8184 77.3789 25.6348C77.5703 25.4512 77.7402 25.2559 77.8887 25.0488C78.041 24.8418 78.1641 24.6211 78.2578 24.3867C78.3555 24.1484 78.4043 23.8887 78.4043 23.6074C78.4043 23.2441 78.3438 22.9219 78.2227 22.6406C78.1016 22.3594 77.9277 22.123 77.7012 21.9316C77.4746 21.7402 77.1953 21.5957 76.8633 21.498C76.5352 21.3965 76.1621 21.3457 75.7441 21.3457C75.3691 21.3457 75.0215 21.3945 74.7012 21.4922C74.3809 21.5859 74.1016 21.7285 73.8633 21.9199C73.625 22.1074 73.4355 22.3418 73.2949 22.623C73.1582 22.9043 73.0879 23.2305 73.084 23.6016H74.4902C74.4902 23.4102 74.5254 23.2461 74.5957 23.1094C74.6699 22.9727 74.7656 22.8613 74.8828 22.7754C75 22.6895 75.1328 22.627 75.2812 22.5879C75.4297 22.5449 75.584 22.5234 75.7441 22.5234C75.9473 22.5234 76.127 22.5488 76.2832 22.5996C76.4434 22.6465 76.5781 22.7188 76.6875 22.8164C76.7852 22.9102 76.8594 23.0293 76.9102 23.1738C76.9648 23.3145 76.9922 23.4785 76.9922 23.666C76.9922 23.834 76.957 23.998 76.8867 24.1582C76.8203 24.3184 76.7324 24.4727 76.623 24.6211C76.5098 24.7734 76.3848 24.9199 76.248 25.0605C76.1152 25.1973 75.9824 25.3281 75.8496 25.4531C75.6621 25.6133 75.5137 25.7578 75.4043 25.8867C75.2949 26.0156 75.2129 26.1523 75.1582 26.2969C75.1035 26.4453 75.0664 26.6133 75.0469 26.8008C75.0312 26.9844 75.0234 27.2129 75.0234 27.4863ZM74.8301 29.291C74.8301 29.5098 74.9023 29.6953 75.0469 29.8477C75.1914 29.9961 75.3965 30.0703 75.6621 30.0703C75.9238 30.0703 76.1289 29.9961 76.2773 29.8477C76.4297 29.6953 76.5059 29.5098 76.5059 29.291C76.5059 29.0605 76.4297 28.8691 76.2773 28.7168C76.1289 28.5645 75.9238 28.4883 75.6621 28.4883C75.3965 28.4883 75.1914 28.5645 75.0469 28.7168C74.9023 28.8691 74.8301 29.0605 74.8301 29.291ZM1.08398 37.4688V38.6348H2.86523V44.8398H1.08398V46H6.11133V44.8398H4.28906V38.6348H6.11133V37.4688H1.08398ZM11.6543 37.8145V36.8652H10.4531V37.8203C10.4531 38.1836 10.4062 38.5117 10.3125 38.8047C10.2188 39.0938 10.0898 39.3691 9.92578 39.6309L10.6055 40.0762C10.7617 39.9395 10.9023 39.7812 11.0273 39.6016C11.1562 39.418 11.2695 39.2266 11.3672 39.0273C11.457 38.8281 11.5273 38.625 11.5781 38.418C11.6289 38.207 11.6543 38.0059 11.6543 37.8145ZM16.1191 39.6602H14.9004V46H16.1895V41.1309C16.2129 41.0723 16.2383 41.0195 16.2656 40.9727C16.2969 40.9258 16.332 40.8848 16.3711 40.8496C16.4219 40.7988 16.4824 40.7617 16.5527 40.7383C16.627 40.7109 16.7109 40.6973 16.8047 40.6973C16.8906 40.6973 16.9668 40.709 17.0332 40.7324C17.1035 40.7559 17.1641 40.793 17.2148 40.8438C17.2656 40.8945 17.3027 40.9648 17.3262 41.0547C17.3535 41.1406 17.3672 41.2461 17.3672 41.3711V46H18.6328V41.2949C18.6328 41.2559 18.6328 41.2266 18.6328 41.207C18.6328 41.1836 18.6328 41.1641 18.6328 41.1484C18.6484 41.082 18.6719 41.0234 18.7031 40.9727C18.7344 40.918 18.7734 40.8711 18.8203 40.832C18.8711 40.7891 18.9297 40.7559 18.9961 40.7324C19.0625 40.709 19.1406 40.6973 19.2305 40.6973C19.3164 40.6973 19.3945 40.709 19.4648 40.7324C19.5391 40.7559 19.6016 40.793 19.6523 40.8438C19.7031 40.8984 19.7422 40.9707 19.7695 41.0605C19.7969 41.1465 19.8105 41.252 19.8105 41.377V46H21.0996V41.3887C21.0996 41.0566 21.0645 40.7734 20.9941 40.5391C20.9277 40.3008 20.832 40.1074 20.707 39.959C20.582 39.8184 20.4336 39.7148 20.2617 39.6484C20.0938 39.5781 19.9082 39.543 19.7051 39.543C19.5488 39.543 19.4043 39.5625 19.2715 39.6016C19.1426 39.6406 19.0254 39.6953 18.9199 39.7656C18.8379 39.8203 18.7617 39.8867 18.6914 39.9648C18.6211 40.043 18.5586 40.127 18.5039 40.2168C18.4648 40.1191 18.418 40.0332 18.3633 39.959C18.3086 39.8809 18.2461 39.8145 18.1758 39.7598C18.0859 39.6855 17.9785 39.6309 17.8535 39.5957C17.7285 39.5605 17.5879 39.543 17.4316 39.543C17.1309 39.543 16.873 39.6152 16.6582 39.7598C16.4473 39.9043 16.2812 40.1035 16.1602 40.3574L16.1191 39.6602ZM34.1191 39.543C33.6816 39.543 33.2812 39.6445 32.918 39.8477C32.5586 40.0508 32.25 40.3301 31.9922 40.6855L31.9863 40.5391L31.9277 39.6602H30.6152V46H32.0156V42.0859C32.0898 41.8984 32.1816 41.7324 32.291 41.5879C32.4004 41.4434 32.5332 41.3242 32.6895 41.2305C32.834 41.1328 33 41.0605 33.1875 41.0137C33.375 40.9668 33.5859 40.9434 33.8203 40.9434C34.0273 40.9434 34.2344 40.9551 34.4414 40.9785C34.6523 41.002 34.8652 41.0371 35.0801 41.084L35.2793 39.7012C35.1582 39.6582 34.9902 39.6211 34.7754 39.5898C34.5645 39.5586 34.3457 39.543 34.1191 39.543ZM39.9023 46.1172C40.5195 46.1172 41.0449 45.9961 41.4785 45.7539C41.916 45.5117 42.2402 45.2383 42.4512 44.9336L41.7012 44.207C41.5059 44.457 41.2578 44.6504 40.957 44.7871C40.6562 44.9199 40.332 44.9863 39.9844 44.9863C39.7305 44.9863 39.4961 44.9434 39.2812 44.8574C39.0703 44.7715 38.8867 44.6504 38.7305 44.4941C38.5742 44.3457 38.4512 44.1777 38.3613 43.9902C38.2715 43.8027 38.2051 43.5703 38.1621 43.293V43.2637H42.5566V42.6602C42.5566 42.207 42.4961 41.7891 42.375 41.4062C42.2539 41.0234 42.0742 40.6934 41.8359 40.416C41.5977 40.1426 41.3027 39.9297 40.9512 39.7773C40.5996 39.6211 40.1953 39.543 39.7383 39.543C39.3281 39.543 38.9414 39.6211 38.5781 39.7773C38.2188 39.9297 37.9023 40.1484 37.6289 40.4336C37.3555 40.7188 37.1406 41.0625 36.9844 41.4648C36.8281 41.8672 36.75 42.3164 36.75 42.8125V43.0527C36.75 43.4863 36.8242 43.8906 36.9727 44.2656C37.125 44.6367 37.3398 44.959 37.6172 45.2324C37.8945 45.5098 38.2266 45.7266 38.6133 45.8828C39.0039 46.0391 39.4336 46.1172 39.9023 46.1172ZM39.7324 40.6797C39.9668 40.6797 40.1719 40.7207 40.3477 40.8027C40.5273 40.8809 40.6758 40.9863 40.793 41.1191C40.9141 41.2559 41.0078 41.416 41.0742 41.5996C41.1406 41.7793 41.1738 41.9609 41.1738 42.1445V42.2383H38.1914C38.2344 41.9961 38.3008 41.7793 38.3906 41.5879C38.4805 41.3965 38.5918 41.2324 38.7246 41.0957C38.8574 40.9629 39.0078 40.8613 39.1758 40.791C39.3477 40.7168 39.5332 40.6797 39.7324 40.6797ZM48.1992 46H49.6289V45.9004C49.5508 45.7363 49.4902 45.541 49.4473 45.3145C49.4082 45.084 49.3887 44.8262 49.3887 44.541V41.7227C49.3887 41.3633 49.3223 41.0469 49.1895 40.7734C49.0566 40.4961 48.873 40.2676 48.6387 40.0879C48.4043 39.9082 48.125 39.7734 47.8008 39.6836C47.4805 39.5898 47.1348 39.543 46.7637 39.543C46.3496 39.543 45.9805 39.5977 45.6562 39.707C45.3359 39.8125 45.0664 39.957 44.8477 40.1406C44.6211 40.3203 44.4492 40.5273 44.332 40.7617C44.2148 40.9961 44.1543 41.2402 44.1504 41.4941H45.5566C45.5566 41.373 45.5781 41.2598 45.6211 41.1543C45.668 41.0449 45.7383 40.9531 45.832 40.8789C45.9258 40.7969 46.043 40.7324 46.1836 40.6855C46.3281 40.6387 46.4961 40.6152 46.6875 40.6152C46.8984 40.6152 47.084 40.6426 47.2441 40.6973C47.4082 40.748 47.5469 40.8223 47.6602 40.9199C47.7656 41.0176 47.8457 41.1328 47.9004 41.2656C47.959 41.3984 47.9883 41.5469 47.9883 41.7109V42.1387H46.9688C46.5117 42.1387 46.1016 42.1816 45.7383 42.2676C45.3789 42.3535 45.0762 42.4785 44.8301 42.6426C44.5645 42.8184 44.3613 43.041 44.2207 43.3105C44.084 43.5762 44.0156 43.8828 44.0156 44.2305C44.0156 44.5 44.0684 44.752 44.1738 44.9863C44.2832 45.2168 44.4355 45.4141 44.6309 45.5781C44.8223 45.7461 45.0527 45.8789 45.3223 45.9766C45.5957 46.0703 45.8965 46.1172 46.2246 46.1172C46.4277 46.1172 46.6172 46.0977 46.793 46.0586C46.9688 46.0195 47.1328 45.9648 47.2852 45.8945C47.4375 45.8281 47.5742 45.75 47.6953 45.6602C47.8203 45.5664 47.9316 45.4688 48.0293 45.3672C48.0488 45.4883 48.0703 45.6055 48.0938 45.7188C48.1211 45.8281 48.1562 45.9219 48.1992 46ZM46.4941 44.9922C46.3145 44.9922 46.1582 44.9707 46.0254 44.9277C45.8926 44.8809 45.7812 44.8184 45.6914 44.7402C45.6016 44.6621 45.5332 44.5684 45.4863 44.459C45.4395 44.3457 45.416 44.2246 45.416 44.0957C45.416 43.9395 45.4434 43.7988 45.498 43.6738C45.5566 43.5488 45.6445 43.4414 45.7617 43.3516C45.8945 43.2461 46.0723 43.166 46.2949 43.1113C46.5176 43.0527 46.7812 43.0234 47.0859 43.0234H47.9883V44.1953C47.9375 44.2969 47.8652 44.3945 47.7715 44.4883C47.6777 44.582 47.5664 44.666 47.4375 44.7402C47.3086 44.8145 47.1641 44.875 47.0039 44.9219C46.8477 44.9688 46.6777 44.9922 46.4941 44.9922ZM51.627 37V38.166H53.6309V44.8398H51.627V46H56.9648V44.8398H55.043V37H51.627ZM58.834 37V38.166H60.8379V44.8398H58.834V46H64.1719V44.8398H62.25V37H58.834ZM66.5684 48.5605C66.877 48.5605 67.1465 48.5059 67.377 48.3965C67.6074 48.291 67.8066 48.1582 67.9746 47.998C68.1426 47.8418 68.2812 47.6699 68.3906 47.4824C68.5039 47.2988 68.5977 47.125 68.6719 46.9609L71.8887 39.6602H70.3359L68.8066 43.5508L68.543 44.2305L68.3262 43.5332L66.75 39.6602H65.209L67.9102 45.7188L67.5117 46.4746C67.4688 46.5605 67.4219 46.6426 67.3711 46.7207C67.3242 46.7988 67.2617 46.8887 67.1836 46.9902C67.1016 47.0918 67.0059 47.1816 66.8965 47.2598C66.7871 47.3418 66.6641 47.3828 66.5273 47.3828C66.4648 47.3828 66.3828 47.3789 66.2812 47.3711C66.1836 47.3672 66.0957 47.3633 66.0176 47.3594L65.8242 48.4551C65.9375 48.4824 66.0547 48.5059 66.1758 48.5254C66.3008 48.5488 66.4316 48.5605 66.5684 48.5605ZM80.0039 42.7832V42.9062C80.0039 43.3633 80.0625 43.7891 80.1797 44.1836C80.3008 44.5742 80.4707 44.9121 80.6895 45.1973C80.9121 45.4863 81.1797 45.7129 81.4922 45.877C81.8047 46.0371 82.1562 46.1172 82.5469 46.1172C82.7617 46.1172 82.9609 46.0938 83.1445 46.0469C83.3281 46.0039 83.4961 45.9395 83.6484 45.8535C83.75 45.7988 83.8438 45.7344 83.9297 45.6602C84.0195 45.5859 84.1055 45.5059 84.1875 45.4199V45.8594C84.1875 46.0977 84.1523 46.3105 84.082 46.498C84.0156 46.6855 83.9199 46.8438 83.7949 46.9727C83.6582 47.1055 83.4922 47.207 83.2969 47.2773C83.1055 47.3477 82.8848 47.3828 82.6348 47.3828C82.4902 47.3828 82.3477 47.3672 82.207 47.3359C82.0664 47.3086 81.9277 47.2637 81.791 47.2012C81.6543 47.1387 81.5195 47.0566 81.3867 46.9551C81.2578 46.8574 81.1367 46.7402 81.0234 46.6035L80.3613 47.4531C80.502 47.6406 80.6699 47.8008 80.8652 47.9336C81.0605 48.0664 81.2656 48.1738 81.4805 48.2559C81.6953 48.3379 81.9102 48.3984 82.125 48.4375C82.3398 48.4766 82.5371 48.4961 82.7168 48.4961C83.1426 48.4961 83.5312 48.4355 83.8828 48.3145C84.2383 48.1973 84.543 48.0254 84.7969 47.7988C85.0469 47.5684 85.2402 47.2871 85.377 46.9551C85.5176 46.627 85.5879 46.25 85.5879 45.8242V39.6602H84.3164L84.2578 40.2988C84.1797 40.2051 84.0957 40.1191 84.0059 40.041C83.916 39.959 83.8203 39.8887 83.7188 39.8301C83.5625 39.7363 83.3887 39.666 83.1973 39.6191C83.0059 39.5684 82.793 39.543 82.5586 39.543C82.1641 39.543 81.8086 39.623 81.4922 39.7832C81.1797 39.9395 80.9121 40.1602 80.6895 40.4453C80.4668 40.7305 80.2969 41.0723 80.1797 41.4707C80.0625 41.8652 80.0039 42.3027 80.0039 42.7832ZM81.4102 42.9062V42.7832C81.4102 42.498 81.4395 42.2305 81.498 41.9805C81.5566 41.7266 81.6484 41.5039 81.7734 41.3125C81.8945 41.1211 82.0488 40.9707 82.2363 40.8613C82.4238 40.752 82.6484 40.6973 82.9102 40.6973C83.0586 40.6973 83.1953 40.7148 83.3203 40.75C83.4453 40.7812 83.5586 40.8242 83.6602 40.8789C83.7734 40.9453 83.873 41.0254 83.959 41.1191C84.0488 41.2129 84.125 41.3184 84.1875 41.4355V44.2129C84.125 44.3262 84.0527 44.4297 83.9707 44.5234C83.8887 44.6172 83.7949 44.6973 83.6895 44.7637C83.584 44.8262 83.4648 44.875 83.332 44.9102C83.2031 44.9453 83.0586 44.9629 82.8984 44.9629C82.6406 44.9629 82.418 44.9102 82.2305 44.8047C82.043 44.6953 81.8887 44.5449 81.7676 44.3535C81.6426 44.1699 81.5508 43.9531 81.4922 43.7031C81.4375 43.4531 81.4102 43.1875 81.4102 42.9062ZM87.1348 42.7715V42.8945C87.1348 43.3594 87.2012 43.7871 87.334 44.1777C87.4668 44.5684 87.6602 44.9082 87.9141 45.1973C88.1641 45.4863 88.4727 45.7129 88.8398 45.877C89.207 46.041 89.623 46.123 90.0879 46.123C90.5488 46.123 90.9609 46.041 91.3242 45.877C91.6914 45.7129 92 45.4863 92.25 45.1973C92.5 44.9082 92.6914 44.5684 92.8242 44.1777C92.957 43.7871 93.0234 43.3594 93.0234 42.8945V42.7715C93.0234 42.3105 92.957 41.8848 92.8242 41.4941C92.6914 41.0996 92.5 40.7578 92.25 40.4688C91.9961 40.1797 91.6855 39.9531 91.3184 39.7891C90.9551 39.625 90.541 39.543 90.0762 39.543C89.6113 39.543 89.1973 39.625 88.834 39.7891C88.4707 39.9531 88.1641 40.1797 87.9141 40.4688C87.6602 40.7578 87.4668 41.0996 87.334 41.4941C87.2012 41.8848 87.1348 42.3105 87.1348 42.7715ZM88.5352 42.8945V42.7715C88.5352 42.4941 88.5645 42.2285 88.623 41.9746C88.6855 41.7207 88.7812 41.498 88.9102 41.3066C89.0352 41.1152 89.1934 40.9629 89.3848 40.8496C89.5801 40.7363 89.8105 40.6797 90.0762 40.6797C90.3457 40.6797 90.5762 40.7363 90.7676 40.8496C90.9629 40.9629 91.125 41.1152 91.2539 41.3066C91.375 41.498 91.4668 41.7207 91.5293 41.9746C91.5918 42.2285 91.623 42.4941 91.623 42.7715V42.8945C91.623 43.1797 91.5918 43.4492 91.5293 43.7031C91.4707 43.957 91.3789 44.1797 91.2539 44.3711C91.1289 44.5625 90.9688 44.7148 90.7734 44.8281C90.5781 44.9375 90.3496 44.9922 90.0879 44.9922C89.8184 44.9922 89.5859 44.9375 89.3906 44.8281C89.1953 44.7148 89.0352 44.5625 88.9102 44.3711C88.7812 44.1797 88.6855 43.957 88.623 43.7031C88.5645 43.4492 88.5352 43.1797 88.5352 42.8945ZM94.3418 42.7715V42.8945C94.3418 43.3594 94.4082 43.7871 94.541 44.1777C94.6738 44.5684 94.8672 44.9082 95.1211 45.1973C95.3711 45.4863 95.6797 45.7129 96.0469 45.877C96.4141 46.041 96.8301 46.123 97.2949 46.123C97.7559 46.123 98.168 46.041 98.5312 45.877C98.8984 45.7129 99.207 45.4863 99.457 45.1973C99.707 44.9082 99.8984 44.5684 100.031 44.1777C100.164 43.7871 100.23 43.3594 100.23 42.8945V42.7715C100.23 42.3105 100.164 41.8848 100.031 41.4941C99.8984 41.0996 99.707 40.7578 99.457 40.4688C99.2031 40.1797 98.8926 39.9531 98.5254 39.7891C98.1621 39.625 97.748 39.543 97.2832 39.543C96.8184 39.543 96.4043 39.625 96.041 39.7891C95.6777 39.9531 95.3711 40.1797 95.1211 40.4688C94.8672 40.7578 94.6738 41.0996 94.541 41.4941C94.4082 41.8848 94.3418 42.3105 94.3418 42.7715ZM95.7422 42.8945V42.7715C95.7422 42.4941 95.7715 42.2285 95.8301 41.9746C95.8926 41.7207 95.9883 41.498 96.1172 41.3066C96.2422 41.1152 96.4004 40.9629 96.5918 40.8496C96.7871 40.7363 97.0176 40.6797 97.2832 40.6797C97.5527 40.6797 97.7832 40.7363 97.9746 40.8496C98.1699 40.9629 98.332 41.1152 98.4609 41.3066C98.582 41.498 98.6738 41.7207 98.7363 41.9746C98.7988 42.2285 98.8301 42.4941 98.8301 42.7715V42.8945C98.8301 43.1797 98.7988 43.4492 98.7363 43.7031C98.6777 43.957 98.5859 44.1797 98.4609 44.3711C98.3359 44.5625 98.1758 44.7148 97.9805 44.8281C97.7852 44.9375 97.5566 44.9922 97.2949 44.9922C97.0254 44.9922 96.793 44.9375 96.5977 44.8281C96.4023 44.7148 96.2422 44.5625 96.1172 44.3711C95.9883 44.1797 95.8926 43.957 95.8301 43.7031C95.7715 43.4492 95.7422 43.1797 95.7422 42.8945ZM101.619 42.7832V42.9062C101.619 43.3633 101.678 43.7891 101.795 44.1836C101.912 44.5742 102.078 44.9121 102.293 45.1973C102.508 45.4863 102.77 45.7129 103.078 45.877C103.387 46.0371 103.734 46.1172 104.121 46.1172C104.488 46.1172 104.812 46.0508 105.094 45.918C105.375 45.7812 105.617 45.5879 105.82 45.3379L105.885 46H107.156V37H105.756V40.252C105.553 40.0254 105.318 39.8516 105.053 39.7305C104.791 39.6055 104.484 39.543 104.133 39.543C103.742 39.543 103.391 39.623 103.078 39.7832C102.77 39.9395 102.508 40.1602 102.293 40.4453C102.074 40.7305 101.906 41.0723 101.789 41.4707C101.676 41.8652 101.619 42.3027 101.619 42.7832ZM103.02 42.9062V42.7832C103.02 42.498 103.047 42.2305 103.102 41.9805C103.156 41.7266 103.244 41.5039 103.365 41.3125C103.479 41.1211 103.627 40.9707 103.811 40.8613C103.998 40.752 104.223 40.6973 104.484 40.6973C104.797 40.6973 105.055 40.7676 105.258 40.9082C105.465 41.0449 105.631 41.2305 105.756 41.4648V44.1895C105.631 44.4277 105.465 44.6172 105.258 44.7578C105.051 44.8945 104.789 44.9629 104.473 44.9629C104.215 44.9629 103.994 44.9102 103.811 44.8047C103.627 44.6953 103.477 44.5449 103.359 44.3535C103.242 44.1699 103.156 43.9531 103.102 43.7031C103.047 43.4531 103.02 43.1875 103.02 42.9062ZM4.95703 62H6.38672V61.9004C6.30859 61.7363 6.24805 61.541 6.20508 61.3145C6.16602 61.084 6.14648 60.8262 6.14648 60.541V57.7227C6.14648 57.3633 6.08008 57.0469 5.94727 56.7734C5.81445 56.4961 5.63086 56.2676 5.39648 56.0879C5.16211 55.9082 4.88281 55.7734 4.55859 55.6836C4.23828 55.5898 3.89258 55.543 3.52148 55.543C3.10742 55.543 2.73828 55.5977 2.41406 55.707C2.09375 55.8125 1.82422 55.957 1.60547 56.1406C1.37891 56.3203 1.20703 56.5273 1.08984 56.7617C0.972656 56.9961 0.912109 57.2402 0.908203 57.4941H2.31445C2.31445 57.373 2.33594 57.2598 2.37891 57.1543C2.42578 57.0449 2.49609 56.9531 2.58984 56.8789C2.68359 56.7969 2.80078 56.7324 2.94141 56.6855C3.08594 56.6387 3.25391 56.6152 3.44531 56.6152C3.65625 56.6152 3.8418 56.6426 4.00195 56.6973C4.16602 56.748 4.30469 56.8223 4.41797 56.9199C4.52344 57.0176 4.60352 57.1328 4.6582 57.2656C4.7168 57.3984 4.74609 57.5469 4.74609 57.7109V58.1387H3.72656C3.26953 58.1387 2.85938 58.1816 2.49609 58.2676C2.13672 58.3535 1.83398 58.4785 1.58789 58.6426C1.32227 58.8184 1.11914 59.041 0.978516 59.3105C0.841797 59.5762 0.773438 59.8828 0.773438 60.2305C0.773438 60.5 0.826172 60.752 0.931641 60.9863C1.04102 61.2168 1.19336 61.4141 1.38867 61.5781C1.58008 61.7461 1.81055 61.8789 2.08008 61.9766C2.35352 62.0703 2.6543 62.1172 2.98242 62.1172C3.18555 62.1172 3.375 62.0977 3.55078 62.0586C3.72656 62.0195 3.89062 61.9648 4.04297 61.8945C4.19531 61.8281 4.33203 61.75 4.45312 61.6602C4.57812 61.5664 4.68945 61.4688 4.78711 61.3672C4.80664 61.4883 4.82812 61.6055 4.85156 61.7188C4.87891 61.8281 4.91406 61.9219 4.95703 62ZM3.25195 60.9922C3.07227 60.9922 2.91602 60.9707 2.7832 60.9277C2.65039 60.8809 2.53906 60.8184 2.44922 60.7402C2.35938 60.6621 2.29102 60.5684 2.24414 60.459C2.19727 60.3457 2.17383 60.2246 2.17383 60.0957C2.17383 59.9395 2.20117 59.7988 2.25586 59.6738C2.31445 59.5488 2.40234 59.4414 2.51953 59.3516C2.65234 59.2461 2.83008 59.166 3.05273 59.1113C3.27539 59.0527 3.53906 59.0234 3.84375 59.0234H4.74609V60.1953C4.69531 60.2969 4.62305 60.3945 4.5293 60.4883C4.43555 60.582 4.32422 60.666 4.19531 60.7402C4.06641 60.8145 3.92188 60.875 3.76172 60.9219C3.60547 60.9688 3.43555 60.9922 3.25195 60.9922ZM10.9277 54.1133H9.52148V55.6602H7.98633V56.709H9.52148V59.8262C9.52148 60.2324 9.57422 60.5801 9.67969 60.8691C9.78906 61.1582 9.93945 61.3945 10.1309 61.5781C10.3223 61.7656 10.5508 61.9043 10.8164 61.9941C11.0859 62.0801 11.3809 62.123 11.7012 62.123C11.877 62.123 12.0527 62.1133 12.2285 62.0938C12.4082 62.0781 12.5801 62.0547 12.7441 62.0234C12.9082 61.9922 13.0605 61.9551 13.2012 61.9121C13.3457 61.8652 13.4688 61.8105 13.5703 61.748L13.418 60.7812C13.3477 60.7969 13.2598 60.8164 13.1543 60.8398C13.0527 60.8594 12.9434 60.877 12.8262 60.8926C12.7051 60.9121 12.5801 60.9277 12.4512 60.9395C12.3223 60.9512 12.1973 60.957 12.0762 60.957C11.9082 60.957 11.7539 60.9375 11.6133 60.8984C11.4727 60.8594 11.3516 60.793 11.25 60.6992C11.1484 60.6094 11.0684 60.4863 11.0098 60.3301C10.9551 60.1699 10.9277 59.9727 10.9277 59.7383V56.709H13.3125V55.6602H10.9277V54.1133ZM24.123 62H25.5293V56.709H27.8789V55.6602H25.5293V55.2734C25.5293 55.0508 25.5566 54.8555 25.6113 54.6875C25.6699 54.5195 25.7559 54.3789 25.8691 54.2656C25.9902 54.1445 26.1445 54.0527 26.332 53.9902C26.5234 53.9277 26.75 53.8965 27.0117 53.8965C27.2617 53.8965 27.4844 53.9121 27.6797 53.9434C27.8789 53.9746 28.0566 54.0117 28.2129 54.0547L28.3242 52.9355C28.207 52.9121 28.0918 52.8906 27.9785 52.8711C27.8652 52.8477 27.7539 52.8281 27.6445 52.8125C27.5117 52.793 27.375 52.7773 27.2344 52.7656C27.0977 52.75 26.957 52.7422 26.8125 52.7422C26.4023 52.7422 26.0312 52.7969 25.6992 52.9062C25.3711 53.0156 25.0898 53.1758 24.8555 53.3867C24.6211 53.6016 24.4395 53.8672 24.3105 54.1836C24.1855 54.4961 24.123 54.8594 24.123 55.2734V55.6602H22.4238V56.709H24.123V62ZM30.0586 55.6602V56.8262H32.0098V60.8398H30.0586V62H35.2852V60.8398H33.4219V55.6602H30.0586ZM31.8809 54.0195C31.8809 54.168 31.916 54.2988 31.9863 54.4121C32.0605 54.5215 32.168 54.5977 32.3086 54.6406C32.4453 54.6836 32.5703 54.6934 32.6836 54.6699C32.7969 54.6465 32.8945 54.5977 32.9766 54.5234C33.1406 54.4805 33.2656 54.3965 33.3516 54.2715C33.4375 54.1426 33.4668 53.9922 33.4395 53.8203C33.4199 53.6523 33.3438 53.5156 33.2109 53.4102C33.082 53.3008 32.9121 53.2461 32.7012 53.2461C32.5762 53.2461 32.4629 53.2656 32.3613 53.3047C32.2637 53.3398 32.1797 53.3906 32.1094 53.457C32.0352 53.5273 31.9785 53.6113 31.9395 53.709C31.9004 53.8027 31.8809 53.9062 31.8809 54.0195ZM36.9434 62H38.3438V57.4766C38.4062 57.3711 38.4785 57.2734 38.5605 57.1836C38.6426 57.0938 38.7305 57.0176 38.8242 56.9551C38.9453 56.873 39.0801 56.8105 39.2285 56.7676C39.377 56.7207 39.5371 56.6973 39.709 56.6973C39.916 56.6973 40.0996 56.7207 40.2598 56.7676C40.4199 56.8105 40.5566 56.8848 40.6699 56.9902C40.7832 57.0957 40.8691 57.2363 40.9277 57.4121C40.9863 57.5879 41.0156 57.8066 41.0156 58.0684V62H42.416V58.0449C42.416 57.5996 42.3633 57.2207 42.2578 56.9082C42.1523 56.5918 42.0039 56.332 41.8125 56.1289C41.6211 55.9258 41.3906 55.7773 41.1211 55.6836C40.8516 55.5898 40.5547 55.543 40.2305 55.543C39.9844 55.543 39.75 55.5781 39.5273 55.6484C39.3047 55.7188 39.0996 55.8184 38.9121 55.9473C38.7949 56.0293 38.6836 56.123 38.5781 56.2285C38.4766 56.3301 38.3828 56.4414 38.2969 56.5625L38.209 55.6602H36.9434V62ZM43.9629 58.7832V58.9062C43.9629 59.3633 44.0215 59.7891 44.1387 60.1836C44.2559 60.5742 44.4219 60.9121 44.6367 61.1973C44.8516 61.4863 45.1133 61.7129 45.4219 61.877C45.7305 62.0371 46.0781 62.1172 46.4648 62.1172C46.832 62.1172 47.1562 62.0508 47.4375 61.918C47.7188 61.7812 47.9609 61.5879 48.1641 61.3379L48.2285 62H49.5V53H48.0996V56.252C47.8965 56.0254 47.6621 55.8516 47.3965 55.7305C47.1348 55.6055 46.8281 55.543 46.4766 55.543C46.0859 55.543 45.7344 55.623 45.4219 55.7832C45.1133 55.9395 44.8516 56.1602 44.6367 56.4453C44.418 56.7305 44.25 57.0723 44.1328 57.4707C44.0195 57.8652 43.9629 58.3027 43.9629 58.7832ZM45.3633 58.9062V58.7832C45.3633 58.498 45.3906 58.2305 45.4453 57.9805C45.5 57.7266 45.5879 57.5039 45.709 57.3125C45.8223 57.1211 45.9707 56.9707 46.1543 56.8613C46.3418 56.752 46.5664 56.6973 46.8281 56.6973C47.1406 56.6973 47.3984 56.7676 47.6016 56.9082C47.8086 57.0449 47.9746 57.2305 48.0996 57.4648V60.1895C47.9746 60.4277 47.8086 60.6172 47.6016 60.7578C47.3945 60.8945 47.1328 60.9629 46.8164 60.9629C46.5586 60.9629 46.3379 60.9102 46.1543 60.8047C45.9707 60.6953 45.8203 60.5449 45.7031 60.3535C45.5859 60.1699 45.5 59.9531 45.4453 59.7031C45.3906 59.4531 45.3633 59.1875 45.3633 58.9062ZM51.6797 55.6602V56.8262H53.6309V60.8398H51.6797V62H56.9062V60.8398H55.043V55.6602H51.6797ZM53.502 54.0195C53.502 54.168 53.5371 54.2988 53.6074 54.4121C53.6816 54.5215 53.7891 54.5977 53.9297 54.6406C54.0664 54.6836 54.1914 54.6934 54.3047 54.6699C54.418 54.6465 54.5156 54.5977 54.5977 54.5234C54.7617 54.4805 54.8867 54.3965 54.9727 54.2715C55.0586 54.1426 55.0879 53.9922 55.0605 53.8203C55.041 53.6523 54.9648 53.5156 54.832 53.4102C54.7031 53.3008 54.5332 53.2461 54.3223 53.2461C54.1973 53.2461 54.084 53.2656 53.9824 53.3047C53.8848 53.3398 53.8008 53.3906 53.7305 53.457C53.6562 53.5273 53.5996 53.6113 53.5605 53.709C53.5215 53.8027 53.502 53.9062 53.502 54.0195ZM58.5645 62H59.9648V57.4766C60.0273 57.3711 60.0996 57.2734 60.1816 57.1836C60.2637 57.0938 60.3516 57.0176 60.4453 56.9551C60.5664 56.873 60.7012 56.8105 60.8496 56.7676C60.998 56.7207 61.1582 56.6973 61.3301 56.6973C61.5371 56.6973 61.7207 56.7207 61.8809 56.7676C62.041 56.8105 62.1777 56.8848 62.291 56.9902C62.4043 57.0957 62.4902 57.2363 62.5488 57.4121C62.6074 57.5879 62.6367 57.8066 62.6367 58.0684V62H64.0371V58.0449C64.0371 57.5996 63.9844 57.2207 63.8789 56.9082C63.7734 56.5918 63.625 56.332 63.4336 56.1289C63.2422 55.9258 63.0117 55.7773 62.7422 55.6836C62.4727 55.5898 62.1758 55.543 61.8516 55.543C61.6055 55.543 61.3711 55.5781 61.1484 55.6484C60.9258 55.7188 60.7207 55.8184 60.5332 55.9473C60.416 56.0293 60.3047 56.123 60.1992 56.2285C60.0977 56.3301 60.0039 56.4414 59.918 56.5625L59.8301 55.6602H58.5645V62ZM65.5898 58.7832V58.9062C65.5898 59.3633 65.6484 59.7891 65.7656 60.1836C65.8867 60.5742 66.0566 60.9121 66.2754 61.1973C66.498 61.4863 66.7656 61.7129 67.0781 61.877C67.3906 62.0371 67.7422 62.1172 68.1328 62.1172C68.3477 62.1172 68.5469 62.0938 68.7305 62.0469C68.9141 62.0039 69.082 61.9395 69.2344 61.8535C69.3359 61.7988 69.4297 61.7344 69.5156 61.6602C69.6055 61.5859 69.6914 61.5059 69.7734 61.4199V61.8594C69.7734 62.0977 69.7383 62.3105 69.668 62.498C69.6016 62.6855 69.5059 62.8438 69.3809 62.9727C69.2441 63.1055 69.0781 63.207 68.8828 63.2773C68.6914 63.3477 68.4707 63.3828 68.2207 63.3828C68.0762 63.3828 67.9336 63.3672 67.793 63.3359C67.6523 63.3086 67.5137 63.2637 67.377 63.2012C67.2402 63.1387 67.1055 63.0566 66.9727 62.9551C66.8438 62.8574 66.7227 62.7402 66.6094 62.6035L65.9473 63.4531C66.0879 63.6406 66.2559 63.8008 66.4512 63.9336C66.6465 64.0664 66.8516 64.1738 67.0664 64.2559C67.2812 64.3379 67.4961 64.3984 67.7109 64.4375C67.9258 64.4766 68.123 64.4961 68.3027 64.4961C68.7285 64.4961 69.1172 64.4355 69.4688 64.3145C69.8242 64.1973 70.1289 64.0254 70.3828 63.7988C70.6328 63.5684 70.8262 63.2871 70.9629 62.9551C71.1035 62.627 71.1738 62.25 71.1738 61.8242V55.6602H69.9023L69.8438 56.2988C69.7656 56.2051 69.6816 56.1191 69.5918 56.041C69.502 55.959 69.4062 55.8887 69.3047 55.8301C69.1484 55.7363 68.9746 55.666 68.7832 55.6191C68.5918 55.5684 68.3789 55.543 68.1445 55.543C67.75 55.543 67.3945 55.623 67.0781 55.7832C66.7656 55.9395 66.498 56.1602 66.2754 56.4453C66.0527 56.7305 65.8828 57.0723 65.7656 57.4707C65.6484 57.8652 65.5898 58.3027 65.5898 58.7832ZM66.9961 58.9062V58.7832C66.9961 58.498 67.0254 58.2305 67.084 57.9805C67.1426 57.7266 67.2344 57.5039 67.3594 57.3125C67.4805 57.1211 67.6348 56.9707 67.8223 56.8613C68.0098 56.752 68.2344 56.6973 68.4961 56.6973C68.6445 56.6973 68.7812 56.7148 68.9062 56.75C69.0312 56.7812 69.1445 56.8242 69.2461 56.8789C69.3594 56.9453 69.459 57.0254 69.5449 57.1191C69.6348 57.2129 69.7109 57.3184 69.7734 57.4355V60.2129C69.7109 60.3262 69.6387 60.4297 69.5566 60.5234C69.4746 60.6172 69.3809 60.6973 69.2754 60.7637C69.1699 60.8262 69.0508 60.875 68.918 60.9102C68.7891 60.9453 68.6445 60.9629 68.4844 60.9629C68.2266 60.9629 68.0039 60.9102 67.8164 60.8047C67.6289 60.6953 67.4746 60.5449 67.3535 60.3535C67.2285 60.1699 67.1367 59.9531 67.0781 59.7031C67.0234 59.4531 66.9961 59.1875 66.9961 58.9062ZM82.998 54.1133H81.5918V55.6602H80.0566V56.709H81.5918V59.8262C81.5918 60.2324 81.6445 60.5801 81.75 60.8691C81.8594 61.1582 82.0098 61.3945 82.2012 61.5781C82.3926 61.7656 82.6211 61.9043 82.8867 61.9941C83.1562 62.0801 83.4512 62.123 83.7715 62.123C83.9473 62.123 84.123 62.1133 84.2988 62.0938C84.4785 62.0781 84.6504 62.0547 84.8145 62.0234C84.9785 61.9922 85.1309 61.9551 85.2715 61.9121C85.416 61.8652 85.5391 61.8105 85.6406 61.748L85.4883 60.7812C85.418 60.7969 85.3301 60.8164 85.2246 60.8398C85.123 60.8594 85.0137 60.877 84.8965 60.8926C84.7754 60.9121 84.6504 60.9277 84.5215 60.9395C84.3926 60.9512 84.2676 60.957 84.1465 60.957C83.9785 60.957 83.8242 60.9375 83.6836 60.8984C83.543 60.8594 83.4219 60.793 83.3203 60.6992C83.2188 60.6094 83.1387 60.4863 83.0801 60.3301C83.0254 60.1699 82.998 59.9727 82.998 59.7383V56.709H85.3828V55.6602H82.998V54.1133ZM88.793 56.5625V53H87.3926V62H88.793V57.4121C88.8594 57.3105 88.9355 57.2188 89.0215 57.1367C89.1113 57.0547 89.207 56.9844 89.3086 56.9258C89.4297 56.8516 89.5625 56.7949 89.707 56.7559C89.8555 56.7168 90.0117 56.6973 90.1758 56.6973C90.3867 56.6973 90.5723 56.7266 90.7324 56.7852C90.8965 56.8398 91.0352 56.9258 91.1484 57.043C91.2578 57.1523 91.3398 57.2949 91.3945 57.4707C91.4531 57.6465 91.4824 57.8516 91.4824 58.0859V62H92.8828V58.0977C92.8828 57.6484 92.8281 57.2637 92.7188 56.9434C92.6133 56.6191 92.4629 56.3535 92.2676 56.1465C92.0723 55.9395 91.8359 55.7871 91.5586 55.6895C91.2852 55.5918 90.9824 55.543 90.6504 55.543C90.4121 55.543 90.1855 55.5781 89.9707 55.6484C89.7598 55.7148 89.5664 55.8125 89.3906 55.9414C89.2773 56.0195 89.1699 56.1113 89.0684 56.2168C88.9668 56.3223 88.875 56.4375 88.793 56.5625ZM94.9219 55.6602V56.8262H96.873V60.8398H94.9219V62H100.148V60.8398H98.2852V55.6602H94.9219ZM96.7441 54.0195C96.7441 54.168 96.7793 54.2988 96.8496 54.4121C96.9238 54.5215 97.0312 54.5977 97.1719 54.6406C97.3086 54.6836 97.4336 54.6934 97.5469 54.6699C97.6602 54.6465 97.7578 54.5977 97.8398 54.5234C98.0039 54.4805 98.1289 54.3965 98.2148 54.2715C98.3008 54.1426 98.3301 53.9922 98.3027 53.8203C98.2832 53.6523 98.207 53.5156 98.0742 53.4102C97.9453 53.3008 97.7754 53.2461 97.5645 53.2461C97.4395 53.2461 97.3262 53.2656 97.2246 53.3047C97.127 53.3398 97.043 53.3906 96.9727 53.457C96.8984 53.5273 96.8418 53.6113 96.8027 53.709C96.7637 53.8027 96.7441 53.9062 96.7441 54.0195ZM101.807 62H103.207V57.4766C103.27 57.3711 103.342 57.2734 103.424 57.1836C103.506 57.0938 103.594 57.0176 103.688 56.9551C103.809 56.873 103.943 56.8105 104.092 56.7676C104.24 56.7207 104.4 56.6973 104.572 56.6973C104.779 56.6973 104.963 56.7207 105.123 56.7676C105.283 56.8105 105.42 56.8848 105.533 56.9902C105.646 57.0957 105.732 57.2363 105.791 57.4121C105.85 57.5879 105.879 57.8066 105.879 58.0684V62H107.279V58.0449C107.279 57.5996 107.227 57.2207 107.121 56.9082C107.016 56.5918 106.867 56.332 106.676 56.1289C106.484 55.9258 106.254 55.7773 105.984 55.6836C105.715 55.5898 105.418 55.543 105.094 55.543C104.848 55.543 104.613 55.5781 104.391 55.6484C104.168 55.7188 103.963 55.8184 103.775 55.9473C103.658 56.0293 103.547 56.123 103.441 56.2285C103.34 56.3301 103.246 56.4414 103.16 56.5625L103.072 55.6602H101.807V62ZM108.832 58.7832V58.9062C108.832 59.3633 108.891 59.7891 109.008 60.1836C109.129 60.5742 109.299 60.9121 109.518 61.1973C109.74 61.4863 110.008 61.7129 110.32 61.877C110.633 62.0371 110.984 62.1172 111.375 62.1172C111.59 62.1172 111.789 62.0938 111.973 62.0469C112.156 62.0039 112.324 61.9395 112.477 61.8535C112.578 61.7988 112.672 61.7344 112.758 61.6602C112.848 61.5859 112.934 61.5059 113.016 61.4199V61.8594C113.016 62.0977 112.98 62.3105 112.91 62.498C112.844 62.6855 112.748 62.8438 112.623 62.9727C112.486 63.1055 112.32 63.207 112.125 63.2773C111.934 63.3477 111.713 63.3828 111.463 63.3828C111.318 63.3828 111.176 63.3672 111.035 63.3359C110.895 63.3086 110.756 63.2637 110.619 63.2012C110.482 63.1387 110.348 63.0566 110.215 62.9551C110.086 62.8574 109.965 62.7402 109.852 62.6035L109.189 63.4531C109.33 63.6406 109.498 63.8008 109.693 63.9336C109.889 64.0664 110.094 64.1738 110.309 64.2559C110.523 64.3379 110.738 64.3984 110.953 64.4375C111.168 64.4766 111.365 64.4961 111.545 64.4961C111.971 64.4961 112.359 64.4355 112.711 64.3145C113.066 64.1973 113.371 64.0254 113.625 63.7988C113.875 63.5684 114.068 63.2871 114.205 62.9551C114.346 62.627 114.416 62.25 114.416 61.8242V55.6602H113.145L113.086 56.2988C113.008 56.2051 112.924 56.1191 112.834 56.041C112.744 55.959 112.648 55.8887 112.547 55.8301C112.391 55.7363 112.217 55.666 112.025 55.6191C111.834 55.5684 111.621 55.543 111.387 55.543C110.992 55.543 110.637 55.623 110.32 55.7832C110.008 55.9395 109.74 56.1602 109.518 56.4453C109.295 56.7305 109.125 57.0723 109.008 57.4707C108.891 57.8652 108.832 58.3027 108.832 58.7832ZM110.238 58.9062V58.7832C110.238 58.498 110.268 58.2305 110.326 57.9805C110.385 57.7266 110.477 57.5039 110.602 57.3125C110.723 57.1211 110.877 56.9707 111.064 56.8613C111.252 56.752 111.477 56.6973 111.738 56.6973C111.887 56.6973 112.023 56.7148 112.148 56.75C112.273 56.7812 112.387 56.8242 112.488 56.8789C112.602 56.9453 112.701 57.0254 112.787 57.1191C112.877 57.2129 112.953 57.3184 113.016 57.4355V60.2129C112.953 60.3262 112.881 60.4297 112.799 60.5234C112.717 60.6172 112.623 60.6973 112.518 60.7637C112.412 60.8262 112.293 60.875 112.16 60.9102C112.031 60.9453 111.887 60.9629 111.727 60.9629C111.469 60.9629 111.246 60.9102 111.059 60.8047C110.871 60.6953 110.717 60.5449 110.596 60.3535C110.471 60.1699 110.379 59.9531 110.32 59.7031C110.266 59.4531 110.238 59.1875 110.238 58.9062ZM120.363 60.2832C120.363 60.3848 120.34 60.4785 120.293 60.5645C120.25 60.6465 120.184 60.7227 120.094 60.793C119.984 60.8789 119.838 60.9473 119.654 60.998C119.475 61.0488 119.264 61.0742 119.021 61.0742C118.842 61.0742 118.664 61.0566 118.488 61.0215C118.312 60.9824 118.156 60.9199 118.02 60.834C117.879 60.752 117.762 60.6445 117.668 60.5117C117.578 60.375 117.527 60.209 117.516 60.0137H116.156C116.156 60.2754 116.219 60.5332 116.344 60.7871C116.469 61.041 116.652 61.2656 116.895 61.4609C117.133 61.6602 117.428 61.8203 117.779 61.9414C118.135 62.0625 118.541 62.123 118.998 62.123C119.408 62.123 119.781 62.0762 120.117 61.9824C120.453 61.8887 120.742 61.7578 120.984 61.5898C121.223 61.4219 121.406 61.2207 121.535 60.9863C121.668 60.752 121.734 60.4941 121.734 60.2129C121.734 59.9238 121.672 59.6738 121.547 59.4629C121.422 59.252 121.246 59.0684 121.02 58.9121C120.793 58.7637 120.52 58.6387 120.199 58.5371C119.879 58.4355 119.525 58.3496 119.139 58.2793C118.861 58.2324 118.631 58.1797 118.447 58.1211C118.268 58.0625 118.127 57.998 118.025 57.9277C117.916 57.8613 117.84 57.7852 117.797 57.6992C117.754 57.6094 117.732 57.5098 117.732 57.4004C117.732 57.2949 117.758 57.1953 117.809 57.1016C117.859 57.0039 117.936 56.9199 118.037 56.8496C118.139 56.7715 118.268 56.7109 118.424 56.668C118.584 56.6211 118.77 56.5977 118.98 56.5977C119.211 56.5977 119.412 56.6289 119.584 56.6914C119.756 56.75 119.896 56.8301 120.006 56.9316C120.1 57.0176 120.17 57.1152 120.217 57.2246C120.268 57.3301 120.293 57.4414 120.293 57.5586H121.693C121.693 57.2734 121.631 57.0078 121.506 56.7617C121.381 56.5156 121.203 56.3027 120.973 56.123C120.738 55.9434 120.453 55.8027 120.117 55.7012C119.781 55.5957 119.402 55.543 118.98 55.543C118.586 55.543 118.227 55.5938 117.902 55.6953C117.582 55.7969 117.309 55.9355 117.082 56.1113C116.852 56.2871 116.674 56.4922 116.549 56.7266C116.428 56.957 116.367 57.2012 116.367 57.459C116.367 57.7285 116.428 57.9648 116.549 58.168C116.67 58.3711 116.838 58.5469 117.053 58.6953C117.271 58.8516 117.531 58.9844 117.832 59.0938C118.137 59.2031 118.473 59.2949 118.84 59.3691C119.133 59.4238 119.377 59.4824 119.572 59.5449C119.768 59.6074 119.926 59.6738 120.047 59.7441C120.16 59.8223 120.24 59.9043 120.287 59.9902C120.338 60.0762 120.363 60.1738 120.363 60.2832ZM126.738 59.1113L126.791 53.4688H125.361L125.42 59.1113H126.738ZM125.25 61.2969C125.25 61.5195 125.322 61.7051 125.467 61.8535C125.611 62.002 125.816 62.0762 126.082 62.0762C126.344 62.0762 126.549 62.002 126.697 61.8535C126.846 61.7051 126.92 61.5195 126.92 61.2969C126.92 61.0703 126.846 60.8809 126.697 60.7285C126.549 60.5762 126.344 60.5 126.082 60.5C125.816 60.5 125.611 60.5762 125.467 60.7285C125.322 60.8809 125.25 61.0703 125.25 61.2969Z" fill="#35393C"/>
</svg>
