<svg width="280" height="250" viewBox="0 0 280 250" fill="none" xmlns="http://www.w3.org/2000/svg">
<path fill-rule="evenodd" clip-rule="evenodd" d="M243.042 240.986C243.042 245.964 217.202 250 185.329 250C153.456 250 127.619 245.964 127.619 240.986C127.619 236.008 153.456 231.973 185.329 231.973C217.202 231.973 243.042 236.008 243.042 240.986Z" fill="#B8BACF" fill-opacity="0.25"/>
<path fill-rule="evenodd" clip-rule="evenodd" d="M230.064 55.047C215.069 33.2327 178.598 33.2327 178.598 33.2327C178.598 33.2327 142.128 33.2327 127.129 55.047C113.367 75.0678 113.495 102.424 113.495 102.424L126.791 119.467H230.406L243.699 102.424C243.699 102.424 243.83 75.0678 230.064 55.047Z" fill="#98BDFE"/>
<path fill-rule="evenodd" clip-rule="evenodd" d="M230.087 55.0472C224.208 46.4948 215.026 41.2963 206.038 38.1353C210.688 41.0294 214.921 44.7182 218.158 49.4231C231.921 69.4439 231.789 96.8009 231.789 96.8009L218.497 113.843H122.423L126.81 119.467H230.426L243.722 102.425C243.722 102.425 243.85 75.068 230.087 55.0472Z" fill="#8087DE"/>
<path fill-rule="evenodd" clip-rule="evenodd" d="M211.661 59.4779C197.685 48.9117 159.512 48.9117 145.536 59.4779C130.363 70.9492 130.879 98.3344 130.879 98.3344H226.318C226.318 98.3344 226.831 70.9492 211.661 59.4779Z" fill="#002B43"/>
<path fill-rule="evenodd" clip-rule="evenodd" d="M131.277 98.3344C132.213 89.4004 135.315 74.4484 145.536 66.7201C159.512 56.1535 197.685 56.1535 211.661 66.7201C221.882 74.4484 224.984 89.4004 225.917 98.3344H226.318C226.318 98.3344 226.831 70.9492 211.661 59.4779C197.685 48.9117 159.512 48.9117 145.536 59.4779C130.363 70.9492 130.879 98.3344 130.879 98.3344H131.277Z" fill="#000F16"/>
<path fill-rule="evenodd" clip-rule="evenodd" d="M192.062 37.3229C192.062 38.4524 191.145 39.3679 190.018 39.3679H167.179C166.052 39.3679 165.135 38.4524 165.135 37.3229V30.1648C165.135 29.0353 166.052 28.1201 167.179 28.1201H190.018C191.145 28.1201 192.062 29.0353 192.062 30.1648V37.3229Z" fill="#98BDFE"/>
<path fill-rule="evenodd" clip-rule="evenodd" d="M172.519 33.574L175.585 4.94263H179.676L184.678 33.7439L172.519 33.574Z" fill="#98BDFE"/>
<path fill-rule="evenodd" clip-rule="evenodd" d="M182.687 4.9425C182.687 7.67205 180.475 9.885 177.748 9.885C175.017 9.885 172.805 7.67205 172.805 4.9425C172.805 2.21262 175.017 0 177.748 0C180.475 0 182.687 2.21262 182.687 4.9425Z" fill="#98BDFE"/>
<path fill-rule="evenodd" clip-rule="evenodd" d="M180.83 1.08252C181.149 1.73385 181.326 2.46537 181.326 3.23797C181.326 5.96784 179.111 8.1808 176.384 8.1808C175.214 8.1808 174.142 7.77495 173.298 7.09798C174.1 8.74768 175.789 9.88504 177.747 9.88504C180.475 9.88504 182.687 7.67209 182.687 4.94254C182.687 3.37993 181.964 1.98821 180.83 1.08252Z" fill="#A8D7E9"/>
<path fill-rule="evenodd" clip-rule="evenodd" d="M126.791 119.467H230.406L243.699 102.425H113.495L126.791 119.467Z" fill="#8087DE"/>
<path fill-rule="evenodd" clip-rule="evenodd" d="M192.062 33.9765C192.062 34.6952 191.602 35.2782 191.04 35.2782H179.621C179.055 35.2782 178.599 34.6952 178.599 33.9765V29.4218C178.599 28.7031 179.055 28.1201 179.621 28.1201H191.04C191.602 28.1201 192.062 28.7031 192.062 29.4218V33.9765Z" fill="#8087DE"/>
<path fill-rule="evenodd" clip-rule="evenodd" d="M158.204 42.6346C156.541 39.4568 149.029 41.276 146.571 42.4351C144.566 43.3825 140.938 45.4801 138.621 47.7065C136.788 49.1686 135.148 50.8709 133.722 52.7894C132.535 54.3835 130.301 57.6671 131.734 59.7598C133.311 62.0615 135.973 60.0661 137.294 58.7375C140.735 55.278 143.377 51.5728 148.043 49.4657C150.337 48.4298 160.159 46.3809 158.204 42.6346Z" fill="white"/>
<path fill-rule="evenodd" clip-rule="evenodd" d="M175.776 2.09311C173.449 2.65571 174.34 7.51803 177.202 4.90021C179.479 2.81904 177.094 1.5098 175.776 2.09311Z" fill="white"/>
<path fill-rule="evenodd" clip-rule="evenodd" d="M249.226 158.075L228.977 123.148H128.221L107.971 158.075C107.971 158.075 108.838 172.628 113.722 185.932C121.231 206.383 128.388 214.563 128.388 214.563L153.173 224.135L178.372 226.452V226.493C178.372 226.493 178.543 226.472 178.599 226.472C178.654 226.472 178.822 226.493 178.822 226.493V226.452L204.024 224.135L228.809 214.563C228.809 214.563 237.8 202.975 243.475 185.932C247.951 172.486 249.226 158.075 249.226 158.075Z" fill="#98BDFE"/>
<path fill-rule="evenodd" clip-rule="evenodd" d="M228.977 123.148H205.115L225.368 158.075C225.368 158.075 224.093 172.486 219.614 185.932C213.942 202.975 211.402 209.763 204.948 214.563C199.621 218.529 180.163 224.135 180.163 224.135L166.669 225.375L178.372 226.452V226.493C178.372 226.493 178.543 226.472 178.598 226.472C178.654 226.472 178.822 226.493 178.822 226.493V226.452L204.024 224.135L228.809 214.563C228.809 214.563 237.8 202.975 243.475 185.932C247.951 172.486 249.226 158.075 249.226 158.075L228.977 123.148Z" fill="#8087DE"/>
<path fill-rule="evenodd" clip-rule="evenodd" d="M107.971 158.075H249.226L243.722 168.549L107.971 158.075Z" fill="#8087DE"/>
<path fill-rule="evenodd" clip-rule="evenodd" d="M136.324 181.236C135.923 176.169 139.384 169.181 133.6 166.505C130.626 165.131 125.605 164.566 123.307 167.518C122.46 168.605 122.032 169.974 121.954 171.394C121.125 175.01 123.071 180.297 123.978 183.536C125.049 187.351 128.759 200.765 135.595 197.112C140.251 194.622 136.623 184.989 136.324 181.236Z" fill="white"/>
<path fill-rule="evenodd" clip-rule="evenodd" d="M143.758 130.442C140.682 126.058 136.36 127.519 133.284 130.7C126.439 134.868 119.17 151.894 129.518 153.559C135.486 154.52 137.313 147.249 139.334 143.318C141.188 139.714 146.774 134.746 143.758 130.442Z" fill="white"/>
<path fill-rule="evenodd" clip-rule="evenodd" d="M253.423 155.848C253.423 155.848 267.892 172.813 274.81 177.787C280.058 181.56 284.885 162.16 266.857 144.236C249.226 126.71 234.468 123.478 234.468 123.478L253.423 155.848Z" fill="#98BDFE"/>
<path fill-rule="evenodd" clip-rule="evenodd" d="M266.857 144.236C249.226 126.71 234.468 123.478 234.468 123.478L236.045 126.171C241.698 129.285 248.954 134.247 256.778 142.025C268.891 154.065 270.685 166.773 268.97 172.673C271.142 174.789 273.186 176.619 274.81 177.787C280.058 181.561 284.885 162.16 266.857 144.236Z" fill="#8087DE"/>
<path fill-rule="evenodd" clip-rule="evenodd" d="M124.349 123.148C124.349 123.148 69.2226 114.247 62.4365 117.069C55.6537 119.891 63.5177 131.993 80.0015 141.929C95.9956 151.57 105.312 154.197 105.312 154.197L124.349 123.148Z" fill="#98BDFE"/>
<path fill-rule="evenodd" clip-rule="evenodd" d="M62.4365 117.069C63.1168 116.788 64.1717 116.625 65.5223 116.56C67.7274 121.647 74.6088 128.586 84.7567 134.703C95.7393 141.322 104.076 145.132 111.71 143.762L105.312 154.198C105.312 154.198 95.9956 151.57 80.0015 141.929C63.5177 131.993 55.6537 119.891 62.4365 117.069Z" fill="#8087DE"/>
<path fill-rule="evenodd" clip-rule="evenodd" d="M87.6517 123.205C86.0875 120.721 80.5502 119.23 77.9442 119.371C76.6067 119.443 75.7194 119.902 75.2133 120.534C73.9876 121.307 74.1026 122.301 74.9964 123.299C75.4237 124.187 76.2912 124.944 77.4907 125.194L77.4874 125.147C82.5778 127.971 91.6051 129.491 87.6517 123.205Z" fill="white"/>
<path fill-rule="evenodd" clip-rule="evenodd" d="M128.105 217.58C128.105 217.58 137.1 241.044 144.635 241.81C152.167 242.577 152.387 226.493 152.387 226.493L128.105 217.58Z" fill="#98BDFE"/>
<path fill-rule="evenodd" clip-rule="evenodd" d="M146.327 224.174C146.239 226.451 145.542 237.555 140.245 238.962C141.796 240.581 143.373 241.656 144.888 241.81C152.423 242.577 152.644 226.493 152.644 226.493L146.327 224.174Z" fill="#8087DE"/>
<path fill-rule="evenodd" clip-rule="evenodd" d="M206.581 226.493C206.581 226.493 218.089 244.173 232.91 240.479C239.108 238.934 229.332 217.58 229.332 217.58L206.581 226.493Z" fill="#98BDFE"/>
<path fill-rule="evenodd" clip-rule="evenodd" d="M229.331 217.58L223.16 219.998C225.644 226.247 229.575 237.822 225.069 238.945C223.853 239.248 222.66 239.405 221.494 239.442C224.924 240.88 228.789 241.506 232.91 240.479C239.108 238.934 229.331 217.58 229.331 217.58Z" fill="#8087DE"/>
<path fill-rule="evenodd" clip-rule="evenodd" d="M163.14 76.4392C162.515 76.4392 162.003 75.9358 161.996 75.3078C161.996 75.3002 161.954 73.8993 161.112 72.5582C160.025 70.8286 158.102 69.9522 155.394 69.9522H155.338C149.495 69.9775 148.69 74.8747 148.661 75.0833C148.565 75.7084 147.98 76.1392 147.356 76.0452C146.732 75.9509 146.301 75.3676 146.397 74.7425C146.761 72.3055 149.101 67.6893 155.328 67.663L155.394 67.6624C164.096 67.6624 164.283 75.2049 164.283 75.2815C164.293 75.9134 163.787 76.432 163.153 76.4389L163.14 76.4392Z" fill="#30E2CF"/>
<path fill-rule="evenodd" clip-rule="evenodd" d="M209.693 76.4392C209.068 76.4392 208.556 75.9358 208.549 75.3078C208.549 75.3002 208.506 73.8993 207.665 72.5582C206.577 70.8286 204.655 69.9522 201.947 69.9522H201.891C196.048 69.9775 195.243 74.8747 195.213 75.0833C195.118 75.7084 194.533 76.1392 193.909 76.0452C193.284 75.9509 192.854 75.3676 192.949 74.7425C193.314 72.3055 195.654 67.6893 201.881 67.663L201.947 67.6624C210.649 67.6624 210.836 75.2049 210.84 75.2815C210.846 75.9134 210.34 76.432 209.706 76.4389L209.693 76.4392Z" fill="#30E2CF"/>
<path fill-rule="evenodd" clip-rule="evenodd" d="M183.617 86.5399C183.617 90.1094 181.556 93.0029 179.016 93.0029C176.476 93.0029 174.415 90.1094 174.415 86.5399C174.415 82.9704 176.476 80.0771 179.016 80.0771C181.556 80.0771 183.617 82.9704 183.617 86.5399Z" fill="#30E2CF"/>
<path d="M1.38281 58H2.71289L3.56836 52.7793L3.63281 52.375L3.69141 52.7793L4.55859 58H5.88867L7.01367 49.4688H5.70117L5.10938 54.707L5.06836 55.0645L5.00977 54.7129L4.16016 49.4688H3.08203L2.26172 54.6895L2.20312 55.041L2.16211 54.707L1.57617 49.4688H0.269531L1.38281 58ZM9.51562 52.5625V49H8.11523V58H9.51562V53.4121C9.58203 53.3105 9.6582 53.2188 9.74414 53.1367C9.83398 53.0547 9.92969 52.9844 10.0312 52.9258C10.1523 52.8516 10.2852 52.7949 10.4297 52.7559C10.5781 52.7168 10.7344 52.6973 10.8984 52.6973C11.1094 52.6973 11.2949 52.7266 11.4551 52.7852C11.6191 52.8398 11.7578 52.9258 11.8711 53.043C11.9805 53.1523 12.0625 53.2949 12.1172 53.4707C12.1758 53.6465 12.2051 53.8516 12.2051 54.0859V58H13.6055V54.0977C13.6055 53.6484 13.5508 53.2637 13.4414 52.9434C13.3359 52.6191 13.1855 52.3535 12.9902 52.1465C12.7949 51.9395 12.5586 51.7871 12.2812 51.6895C12.0078 51.5918 11.7051 51.543 11.373 51.543C11.1348 51.543 10.9082 51.5781 10.6934 51.6484C10.4824 51.7148 10.2891 51.8125 10.1133 51.9414C10 52.0195 9.89258 52.1113 9.79102 52.2168C9.68945 52.3223 9.59766 52.4375 9.51562 52.5625ZM19.3711 58H20.8008V57.9004C20.7227 57.7363 20.6621 57.541 20.6191 57.3145C20.5801 57.084 20.5605 56.8262 20.5605 56.541V53.7227C20.5605 53.3633 20.4941 53.0469 20.3613 52.7734C20.2285 52.4961 20.0449 52.2676 19.8105 52.0879C19.5762 51.9082 19.2969 51.7734 18.9727 51.6836C18.6523 51.5898 18.3066 51.543 17.9355 51.543C17.5215 51.543 17.1523 51.5977 16.8281 51.707C16.5078 51.8125 16.2383 51.957 16.0195 52.1406C15.793 52.3203 15.6211 52.5273 15.5039 52.7617C15.3867 52.9961 15.3262 53.2402 15.3223 53.4941H16.7285C16.7285 53.373 16.75 53.2598 16.793 53.1543C16.8398 53.0449 16.9102 52.9531 17.0039 52.8789C17.0977 52.7969 17.2148 52.7324 17.3555 52.6855C17.5 52.6387 17.668 52.6152 17.8594 52.6152C18.0703 52.6152 18.2559 52.6426 18.416 52.6973C18.5801 52.748 18.7188 52.8223 18.832 52.9199C18.9375 53.0176 19.0176 53.1328 19.0723 53.2656C19.1309 53.3984 19.1602 53.5469 19.1602 53.7109V54.1387H18.1406C17.6836 54.1387 17.2734 54.1816 16.9102 54.2676C16.5508 54.3535 16.248 54.4785 16.002 54.6426C15.7363 54.8184 15.5332 55.041 15.3926 55.3105C15.2559 55.5762 15.1875 55.8828 15.1875 56.2305C15.1875 56.5 15.2402 56.752 15.3457 56.9863C15.4551 57.2168 15.6074 57.4141 15.8027 57.5781C15.9941 57.7461 16.2246 57.8789 16.4941 57.9766C16.7676 58.0703 17.0684 58.1172 17.3965 58.1172C17.5996 58.1172 17.7891 58.0977 17.9648 58.0586C18.1406 58.0195 18.3047 57.9648 18.457 57.8945C18.6094 57.8281 18.7461 57.75 18.8672 57.6602C18.9922 57.5664 19.1035 57.4688 19.2012 57.3672C19.2207 57.4883 19.2422 57.6055 19.2656 57.7188C19.293 57.8281 19.3281 57.9219 19.3711 58ZM17.666 56.9922C17.4863 56.9922 17.3301 56.9707 17.1973 56.9277C17.0645 56.8809 16.9531 56.8184 16.8633 56.7402C16.7734 56.6621 16.7051 56.5684 16.6582 56.459C16.6113 56.3457 16.5879 56.2246 16.5879 56.0957C16.5879 55.9395 16.6152 55.7988 16.6699 55.6738C16.7285 55.5488 16.8164 55.4414 16.9336 55.3516C17.0664 55.2461 17.2441 55.166 17.4668 55.1113C17.6895 55.0527 17.9531 55.0234 18.2578 55.0234H19.1602V56.1953C19.1094 56.2969 19.0371 56.3945 18.9434 56.4883C18.8496 56.582 18.7383 56.666 18.6094 56.7402C18.4805 56.8145 18.3359 56.875 18.1758 56.9219C18.0195 56.9688 17.8496 56.9922 17.666 56.9922ZM25.3418 50.1133H23.9355V51.6602H22.4004V52.709H23.9355V55.8262C23.9355 56.2324 23.9883 56.5801 24.0938 56.8691C24.2031 57.1582 24.3535 57.3945 24.5449 57.5781C24.7363 57.7656 24.9648 57.9043 25.2305 57.9941C25.5 58.0801 25.7949 58.123 26.1152 58.123C26.291 58.123 26.4668 58.1133 26.6426 58.0938C26.8223 58.0781 26.9941 58.0547 27.1582 58.0234C27.3223 57.9922 27.4746 57.9551 27.6152 57.9121C27.7598 57.8652 27.8828 57.8105 27.9844 57.748L27.832 56.7812C27.7617 56.7969 27.6738 56.8164 27.5684 56.8398C27.4668 56.8594 27.3574 56.877 27.2402 56.8926C27.1191 56.9121 26.9941 56.9277 26.8652 56.9395C26.7363 56.9512 26.6113 56.957 26.4902 56.957C26.3223 56.957 26.168 56.9375 26.0273 56.8984C25.8867 56.8594 25.7656 56.793 25.6641 56.6992C25.5625 56.6094 25.4824 56.4863 25.4238 56.3301C25.3691 56.1699 25.3418 55.9727 25.3418 55.7383V52.709H27.7266V51.6602H25.3418V50.1133ZM40.9922 58H42.4219V57.9004C42.3438 57.7363 42.2832 57.541 42.2402 57.3145C42.2012 57.084 42.1816 56.8262 42.1816 56.541V53.7227C42.1816 53.3633 42.1152 53.0469 41.9824 52.7734C41.8496 52.4961 41.666 52.2676 41.4316 52.0879C41.1973 51.9082 40.918 51.7734 40.5938 51.6836C40.2734 51.5898 39.9277 51.543 39.5566 51.543C39.1426 51.543 38.7734 51.5977 38.4492 51.707C38.1289 51.8125 37.8594 51.957 37.6406 52.1406C37.4141 52.3203 37.2422 52.5273 37.125 52.7617C37.0078 52.9961 36.9473 53.2402 36.9434 53.4941H38.3496C38.3496 53.373 38.3711 53.2598 38.4141 53.1543C38.4609 53.0449 38.5312 52.9531 38.625 52.8789C38.7188 52.7969 38.8359 52.7324 38.9766 52.6855C39.1211 52.6387 39.2891 52.6152 39.4805 52.6152C39.6914 52.6152 39.877 52.6426 40.0371 52.6973C40.2012 52.748 40.3398 52.8223 40.4531 52.9199C40.5586 53.0176 40.6387 53.1328 40.6934 53.2656C40.752 53.3984 40.7812 53.5469 40.7812 53.7109V54.1387H39.7617C39.3047 54.1387 38.8945 54.1816 38.5312 54.2676C38.1719 54.3535 37.8691 54.4785 37.623 54.6426C37.3574 54.8184 37.1543 55.041 37.0137 55.3105C36.877 55.5762 36.8086 55.8828 36.8086 56.2305C36.8086 56.5 36.8613 56.752 36.9668 56.9863C37.0762 57.2168 37.2285 57.4141 37.4238 57.5781C37.6152 57.7461 37.8457 57.8789 38.1152 57.9766C38.3887 58.0703 38.6895 58.1172 39.0176 58.1172C39.2207 58.1172 39.4102 58.0977 39.5859 58.0586C39.7617 58.0195 39.9258 57.9648 40.0781 57.8945C40.2305 57.8281 40.3672 57.75 40.4883 57.6602C40.6133 57.5664 40.7246 57.4688 40.8223 57.3672C40.8418 57.4883 40.8633 57.6055 40.8867 57.7188C40.9141 57.8281 40.9492 57.9219 40.9922 58ZM39.2871 56.9922C39.1074 56.9922 38.9512 56.9707 38.8184 56.9277C38.6855 56.8809 38.5742 56.8184 38.4844 56.7402C38.3945 56.6621 38.3262 56.5684 38.2793 56.459C38.2324 56.3457 38.209 56.2246 38.209 56.0957C38.209 55.9395 38.2363 55.7988 38.291 55.6738C38.3496 55.5488 38.4375 55.4414 38.5547 55.3516C38.6875 55.2461 38.8652 55.166 39.0879 55.1113C39.3105 55.0527 39.5742 55.0234 39.8789 55.0234H40.7812V56.1953C40.7305 56.2969 40.6582 56.3945 40.5645 56.4883C40.4707 56.582 40.3594 56.666 40.2305 56.7402C40.1016 56.8145 39.957 56.875 39.7969 56.9219C39.6406 56.9688 39.4707 56.9922 39.2871 56.9922ZM48.5332 51.543C48.0957 51.543 47.6953 51.6445 47.332 51.8477C46.9727 52.0508 46.6641 52.3301 46.4062 52.6855L46.4004 52.5391L46.3418 51.6602H45.0293V58H46.4297V54.0859C46.5039 53.8984 46.5957 53.7324 46.7051 53.5879C46.8145 53.4434 46.9473 53.3242 47.1035 53.2305C47.248 53.1328 47.4141 53.0605 47.6016 53.0137C47.7891 52.9668 48 52.9434 48.2344 52.9434C48.4414 52.9434 48.6484 52.9551 48.8555 52.9785C49.0664 53.002 49.2793 53.0371 49.4941 53.084L49.6934 51.7012C49.5723 51.6582 49.4043 51.6211 49.1895 51.5898C48.9785 51.5586 48.7598 51.543 48.5332 51.543ZM54.3164 58.1172C54.9336 58.1172 55.459 57.9961 55.8926 57.7539C56.3301 57.5117 56.6543 57.2383 56.8652 56.9336L56.1152 56.207C55.9199 56.457 55.6719 56.6504 55.3711 56.7871C55.0703 56.9199 54.7461 56.9863 54.3984 56.9863C54.1445 56.9863 53.9102 56.9434 53.6953 56.8574C53.4844 56.7715 53.3008 56.6504 53.1445 56.4941C52.9883 56.3457 52.8652 56.1777 52.7754 55.9902C52.6855 55.8027 52.6191 55.5703 52.5762 55.293V55.2637H56.9707V54.6602C56.9707 54.207 56.9102 53.7891 56.7891 53.4062C56.668 53.0234 56.4883 52.6934 56.25 52.416C56.0117 52.1426 55.7168 51.9297 55.3652 51.7773C55.0137 51.6211 54.6094 51.543 54.1523 51.543C53.7422 51.543 53.3555 51.6211 52.9922 51.7773C52.6328 51.9297 52.3164 52.1484 52.043 52.4336C51.7695 52.7188 51.5547 53.0625 51.3984 53.4648C51.2422 53.8672 51.1641 54.3164 51.1641 54.8125V55.0527C51.1641 55.4863 51.2383 55.8906 51.3867 56.2656C51.5391 56.6367 51.7539 56.959 52.0312 57.2324C52.3086 57.5098 52.6406 57.7266 53.0273 57.8828C53.418 58.0391 53.8477 58.1172 54.3164 58.1172ZM54.1465 52.6797C54.3809 52.6797 54.5859 52.7207 54.7617 52.8027C54.9414 52.8809 55.0898 52.9863 55.207 53.1191C55.3281 53.2559 55.4219 53.416 55.4883 53.5996C55.5547 53.7793 55.5879 53.9609 55.5879 54.1445V54.2383H52.6055C52.6484 53.9961 52.7148 53.7793 52.8047 53.5879C52.8945 53.3965 53.0059 53.2324 53.1387 53.0957C53.2715 52.9629 53.4219 52.8613 53.5898 52.791C53.7617 52.7168 53.9473 52.6797 54.1465 52.6797ZM66.2988 58H67.4883L68.291 54.4023L68.4316 53.6172L68.5781 54.4023L69.3984 58H70.5879L71.8125 51.6602H70.541L69.9727 55.5273L69.8613 56.3008L69.7266 55.5332L68.9004 51.6602H67.9805L67.1543 55.5449L67.0254 56.2773L66.9258 55.5449L66.3398 51.6602H65.0742L66.2988 58ZM75.9375 58.1172C76.5547 58.1172 77.0801 57.9961 77.5137 57.7539C77.9512 57.5117 78.2754 57.2383 78.4863 56.9336L77.7363 56.207C77.541 56.457 77.293 56.6504 76.9922 56.7871C76.6914 56.9199 76.3672 56.9863 76.0195 56.9863C75.7656 56.9863 75.5312 56.9434 75.3164 56.8574C75.1055 56.7715 74.9219 56.6504 74.7656 56.4941C74.6094 56.3457 74.4863 56.1777 74.3965 55.9902C74.3066 55.8027 74.2402 55.5703 74.1973 55.293V55.2637H78.5918V54.6602C78.5918 54.207 78.5312 53.7891 78.4102 53.4062C78.2891 53.0234 78.1094 52.6934 77.8711 52.416C77.6328 52.1426 77.3379 51.9297 76.9863 51.7773C76.6348 51.6211 76.2305 51.543 75.7734 51.543C75.3633 51.543 74.9766 51.6211 74.6133 51.7773C74.2539 51.9297 73.9375 52.1484 73.6641 52.4336C73.3906 52.7188 73.1758 53.0625 73.0195 53.4648C72.8633 53.8672 72.7852 54.3164 72.7852 54.8125V55.0527C72.7852 55.4863 72.8594 55.8906 73.0078 56.2656C73.1602 56.6367 73.375 56.959 73.6523 57.2324C73.9297 57.5098 74.2617 57.7266 74.6484 57.8828C75.0391 58.0391 75.4688 58.1172 75.9375 58.1172ZM75.7676 52.6797C76.002 52.6797 76.207 52.7207 76.3828 52.8027C76.5625 52.8809 76.7109 52.9863 76.8281 53.1191C76.9492 53.2559 77.043 53.416 77.1094 53.5996C77.1758 53.7793 77.209 53.9609 77.209 54.1445V54.2383H74.2266C74.2695 53.9961 74.3359 53.7793 74.4258 53.5879C74.5156 53.3965 74.627 53.2324 74.7598 53.0957C74.8926 52.9629 75.043 52.8613 75.2109 52.791C75.3828 52.7168 75.5684 52.6797 75.7676 52.6797ZM1.17773 65V66.166H3.18164V72.8398H1.17773V74H6.51562V72.8398H4.59375V65H1.17773ZM11.0742 74.1172C11.6914 74.1172 12.2168 73.9961 12.6504 73.7539C13.0879 73.5117 13.4121 73.2383 13.623 72.9336L12.873 72.207C12.6777 72.457 12.4297 72.6504 12.1289 72.7871C11.8281 72.9199 11.5039 72.9863 11.1562 72.9863C10.9023 72.9863 10.668 72.9434 10.4531 72.8574C10.2422 72.7715 10.0586 72.6504 9.90234 72.4941C9.74609 72.3457 9.62305 72.1777 9.5332 71.9902C9.44336 71.8027 9.37695 71.5703 9.33398 71.293V71.2637H13.7285V70.6602C13.7285 70.207 13.668 69.7891 13.5469 69.4062C13.4258 69.0234 13.2461 68.6934 13.0078 68.416C12.7695 68.1426 12.4746 67.9297 12.123 67.7773C11.7715 67.6211 11.3672 67.543 10.9102 67.543C10.5 67.543 10.1133 67.6211 9.75 67.7773C9.39062 67.9297 9.07422 68.1484 8.80078 68.4336C8.52734 68.7188 8.3125 69.0625 8.15625 69.4648C8 69.8672 7.92188 70.3164 7.92188 70.8125V71.0527C7.92188 71.4863 7.99609 71.8906 8.14453 72.2656C8.29688 72.6367 8.51172 72.959 8.78906 73.2324C9.06641 73.5098 9.39844 73.7266 9.78516 73.8828C10.1758 74.0391 10.6055 74.1172 11.0742 74.1172ZM10.9043 68.6797C11.1387 68.6797 11.3438 68.7207 11.5195 68.8027C11.6992 68.8809 11.8477 68.9863 11.9648 69.1191C12.0859 69.2559 12.1797 69.416 12.2461 69.5996C12.3125 69.7793 12.3457 69.9609 12.3457 70.1445V70.2383H9.36328C9.40625 69.9961 9.47266 69.7793 9.5625 69.5879C9.65234 69.3965 9.76367 69.2324 9.89648 69.0957C10.0293 68.9629 10.1797 68.8613 10.3477 68.791C10.5195 68.7168 10.7051 68.6797 10.9043 68.6797ZM19.3711 74H20.8008V73.9004C20.7227 73.7363 20.6621 73.541 20.6191 73.3145C20.5801 73.084 20.5605 72.8262 20.5605 72.541V69.7227C20.5605 69.3633 20.4941 69.0469 20.3613 68.7734C20.2285 68.4961 20.0449 68.2676 19.8105 68.0879C19.5762 67.9082 19.2969 67.7734 18.9727 67.6836C18.6523 67.5898 18.3066 67.543 17.9355 67.543C17.5215 67.543 17.1523 67.5977 16.8281 67.707C16.5078 67.8125 16.2383 67.957 16.0195 68.1406C15.793 68.3203 15.6211 68.5273 15.5039 68.7617C15.3867 68.9961 15.3262 69.2402 15.3223 69.4941H16.7285C16.7285 69.373 16.75 69.2598 16.793 69.1543C16.8398 69.0449 16.9102 68.9531 17.0039 68.8789C17.0977 68.7969 17.2148 68.7324 17.3555 68.6855C17.5 68.6387 17.668 68.6152 17.8594 68.6152C18.0703 68.6152 18.2559 68.6426 18.416 68.6973C18.5801 68.748 18.7188 68.8223 18.832 68.9199C18.9375 69.0176 19.0176 69.1328 19.0723 69.2656C19.1309 69.3984 19.1602 69.5469 19.1602 69.7109V70.1387H18.1406C17.6836 70.1387 17.2734 70.1816 16.9102 70.2676C16.5508 70.3535 16.248 70.4785 16.002 70.6426C15.7363 70.8184 15.5332 71.041 15.3926 71.3105C15.2559 71.5762 15.1875 71.8828 15.1875 72.2305C15.1875 72.5 15.2402 72.752 15.3457 72.9863C15.4551 73.2168 15.6074 73.4141 15.8027 73.5781C15.9941 73.7461 16.2246 73.8789 16.4941 73.9766C16.7676 74.0703 17.0684 74.1172 17.3965 74.1172C17.5996 74.1172 17.7891 74.0977 17.9648 74.0586C18.1406 74.0195 18.3047 73.9648 18.457 73.8945C18.6094 73.8281 18.7461 73.75 18.8672 73.6602C18.9922 73.5664 19.1035 73.4688 19.2012 73.3672C19.2207 73.4883 19.2422 73.6055 19.2656 73.7188C19.293 73.8281 19.3281 73.9219 19.3711 74ZM17.666 72.9922C17.4863 72.9922 17.3301 72.9707 17.1973 72.9277C17.0645 72.8809 16.9531 72.8184 16.8633 72.7402C16.7734 72.6621 16.7051 72.5684 16.6582 72.459C16.6113 72.3457 16.5879 72.2246 16.5879 72.0957C16.5879 71.9395 16.6152 71.7988 16.6699 71.6738C16.7285 71.5488 16.8164 71.4414 16.9336 71.3516C17.0664 71.2461 17.2441 71.166 17.4668 71.1113C17.6895 71.0527 17.9531 71.0234 18.2578 71.0234H19.1602V72.1953C19.1094 72.2969 19.0371 72.3945 18.9434 72.4883C18.8496 72.582 18.7383 72.666 18.6094 72.7402C18.4805 72.8145 18.3359 72.875 18.1758 72.9219C18.0195 72.9688 17.8496 72.9922 17.666 72.9922ZM26.9121 67.543C26.4746 67.543 26.0742 67.6445 25.7109 67.8477C25.3516 68.0508 25.043 68.3301 24.7852 68.6855L24.7793 68.5391L24.7207 67.6602H23.4082V74H24.8086V70.0859C24.8828 69.8984 24.9746 69.7324 25.084 69.5879C25.1934 69.4434 25.3262 69.3242 25.4824 69.2305C25.627 69.1328 25.793 69.0605 25.9805 69.0137C26.168 68.9668 26.3789 68.9434 26.6133 68.9434C26.8203 68.9434 27.0273 68.9551 27.2344 68.9785C27.4453 69.002 27.6582 69.0371 27.873 69.084L28.0723 67.7012C27.9512 67.6582 27.7832 67.6211 27.5684 67.5898C27.3574 67.5586 27.1387 67.543 26.9121 67.543ZM29.7363 74H31.1367V69.4766C31.1992 69.3711 31.2715 69.2734 31.3535 69.1836C31.4355 69.0938 31.5234 69.0176 31.6172 68.9551C31.7383 68.873 31.873 68.8105 32.0215 68.7676C32.1699 68.7207 32.3301 68.6973 32.502 68.6973C32.709 68.6973 32.8926 68.7207 33.0527 68.7676C33.2129 68.8105 33.3496 68.8848 33.4629 68.9902C33.5762 69.0957 33.6621 69.2363 33.7207 69.4121C33.7793 69.5879 33.8086 69.8066 33.8086 70.0684V74H35.209V70.0449C35.209 69.5996 35.1562 69.2207 35.0508 68.9082C34.9453 68.5918 34.7969 68.332 34.6055 68.1289C34.4141 67.9258 34.1836 67.7773 33.9141 67.6836C33.6445 67.5898 33.3477 67.543 33.0234 67.543C32.7773 67.543 32.543 67.5781 32.3203 67.6484C32.0977 67.7188 31.8926 67.8184 31.7051 67.9473C31.5879 68.0293 31.4766 68.123 31.3711 68.2285C31.2695 68.3301 31.1758 68.4414 31.0898 68.5625L31.002 67.6602H29.7363V74ZM37.2656 67.6602V68.8262H39.2168V72.8398H37.2656V74H42.4922V72.8398H40.6289V67.6602H37.2656ZM39.0879 66.0195C39.0879 66.168 39.123 66.2988 39.1934 66.4121C39.2676 66.5215 39.375 66.5977 39.5156 66.6406C39.6523 66.6836 39.7773 66.6934 39.8906 66.6699C40.0039 66.6465 40.1016 66.5977 40.1836 66.5234C40.3477 66.4805 40.4727 66.3965 40.5586 66.2715C40.6445 66.1426 40.6738 65.9922 40.6465 65.8203C40.627 65.6523 40.5508 65.5156 40.418 65.4102C40.2891 65.3008 40.1191 65.2461 39.9082 65.2461C39.7832 65.2461 39.6699 65.2656 39.5684 65.3047C39.4707 65.3398 39.3867 65.3906 39.3164 65.457C39.2422 65.5273 39.1855 65.6113 39.1465 65.709C39.1074 65.8027 39.0879 65.9062 39.0879 66.0195ZM44.1504 74H45.5508V69.4766C45.6133 69.3711 45.6855 69.2734 45.7676 69.1836C45.8496 69.0938 45.9375 69.0176 46.0312 68.9551C46.1523 68.873 46.2871 68.8105 46.4355 68.7676C46.584 68.7207 46.7441 68.6973 46.916 68.6973C47.123 68.6973 47.3066 68.7207 47.4668 68.7676C47.627 68.8105 47.7637 68.8848 47.877 68.9902C47.9902 69.0957 48.0762 69.2363 48.1348 69.4121C48.1934 69.5879 48.2227 69.8066 48.2227 70.0684V74H49.623V70.0449C49.623 69.5996 49.5703 69.2207 49.4648 68.9082C49.3594 68.5918 49.2109 68.332 49.0195 68.1289C48.8281 67.9258 48.5977 67.7773 48.3281 67.6836C48.0586 67.5898 47.7617 67.543 47.4375 67.543C47.1914 67.543 46.957 67.5781 46.7344 67.6484C46.5117 67.7188 46.3066 67.8184 46.1191 67.9473C46.002 68.0293 45.8906 68.123 45.7852 68.2285C45.6836 68.3301 45.5898 68.4414 45.5039 68.5625L45.416 67.6602H44.1504V74ZM51.1758 70.7832V70.9062C51.1758 71.3633 51.2344 71.7891 51.3516 72.1836C51.4727 72.5742 51.6426 72.9121 51.8613 73.1973C52.084 73.4863 52.3516 73.7129 52.6641 73.877C52.9766 74.0371 53.3281 74.1172 53.7188 74.1172C53.9336 74.1172 54.1328 74.0938 54.3164 74.0469C54.5 74.0039 54.668 73.9395 54.8203 73.8535C54.9219 73.7988 55.0156 73.7344 55.1016 73.6602C55.1914 73.5859 55.2773 73.5059 55.3594 73.4199V73.8594C55.3594 74.0977 55.3242 74.3105 55.2539 74.498C55.1875 74.6855 55.0918 74.8438 54.9668 74.9727C54.8301 75.1055 54.6641 75.207 54.4688 75.2773C54.2773 75.3477 54.0566 75.3828 53.8066 75.3828C53.6621 75.3828 53.5195 75.3672 53.3789 75.3359C53.2383 75.3086 53.0996 75.2637 52.9629 75.2012C52.8262 75.1387 52.6914 75.0566 52.5586 74.9551C52.4297 74.8574 52.3086 74.7402 52.1953 74.6035L51.5332 75.4531C51.6738 75.6406 51.8418 75.8008 52.0371 75.9336C52.2324 76.0664 52.4375 76.1738 52.6523 76.2559C52.8672 76.3379 53.082 76.3984 53.2969 76.4375C53.5117 76.4766 53.709 76.4961 53.8887 76.4961C54.3145 76.4961 54.7031 76.4355 55.0547 76.3145C55.4102 76.1973 55.7148 76.0254 55.9688 75.7988C56.2188 75.5684 56.4121 75.2871 56.5488 74.9551C56.6895 74.627 56.7598 74.25 56.7598 73.8242V67.6602H55.4883L55.4297 68.2988C55.3516 68.2051 55.2676 68.1191 55.1777 68.041C55.0879 67.959 54.9922 67.8887 54.8906 67.8301C54.7344 67.7363 54.5605 67.666 54.3691 67.6191C54.1777 67.5684 53.9648 67.543 53.7305 67.543C53.3359 67.543 52.9805 67.623 52.6641 67.7832C52.3516 67.9395 52.084 68.1602 51.8613 68.4453C51.6387 68.7305 51.4688 69.0723 51.3516 69.4707C51.2344 69.8652 51.1758 70.3027 51.1758 70.7832ZM52.582 70.9062V70.7832C52.582 70.498 52.6113 70.2305 52.6699 69.9805C52.7285 69.7266 52.8203 69.5039 52.9453 69.3125C53.0664 69.1211 53.2207 68.9707 53.4082 68.8613C53.5957 68.752 53.8203 68.6973 54.082 68.6973C54.2305 68.6973 54.3672 68.7148 54.4922 68.75C54.6172 68.7812 54.7305 68.8242 54.832 68.8789C54.9453 68.9453 55.0449 69.0254 55.1309 69.1191C55.2207 69.2129 55.2969 69.3184 55.3594 69.4355V72.2129C55.2969 72.3262 55.2246 72.4297 55.1426 72.5234C55.0605 72.6172 54.9668 72.6973 54.8613 72.7637C54.7559 72.8262 54.6367 72.875 54.5039 72.9102C54.375 72.9453 54.2305 72.9629 54.0703 72.9629C53.8125 72.9629 53.5898 72.9102 53.4023 72.8047C53.2148 72.6953 53.0605 72.5449 52.9395 72.3535C52.8145 72.1699 52.7227 71.9531 52.6641 71.7031C52.6094 71.4531 52.582 71.1875 52.582 70.9062ZM65.7715 74H67.1719V69.4766C67.2344 69.3711 67.3066 69.2734 67.3887 69.1836C67.4707 69.0938 67.5586 69.0176 67.6523 68.9551C67.7734 68.873 67.9082 68.8105 68.0566 68.7676C68.2051 68.7207 68.3652 68.6973 68.5371 68.6973C68.7441 68.6973 68.9277 68.7207 69.0879 68.7676C69.248 68.8105 69.3848 68.8848 69.498 68.9902C69.6113 69.0957 69.6973 69.2363 69.7559 69.4121C69.8145 69.5879 69.8438 69.8066 69.8438 70.0684V74H71.2441V70.0449C71.2441 69.5996 71.1914 69.2207 71.0859 68.9082C70.9805 68.5918 70.832 68.332 70.6406 68.1289C70.4492 67.9258 70.2188 67.7773 69.9492 67.6836C69.6797 67.5898 69.3828 67.543 69.0586 67.543C68.8125 67.543 68.5781 67.5781 68.3555 67.6484C68.1328 67.7188 67.9277 67.8184 67.7402 67.9473C67.623 68.0293 67.5117 68.123 67.4062 68.2285C67.3047 68.3301 67.2109 68.4414 67.125 68.5625L67.0371 67.6602H65.7715V74ZM75.9375 74.1172C76.5547 74.1172 77.0801 73.9961 77.5137 73.7539C77.9512 73.5117 78.2754 73.2383 78.4863 72.9336L77.7363 72.207C77.541 72.457 77.293 72.6504 76.9922 72.7871C76.6914 72.9199 76.3672 72.9863 76.0195 72.9863C75.7656 72.9863 75.5312 72.9434 75.3164 72.8574C75.1055 72.7715 74.9219 72.6504 74.7656 72.4941C74.6094 72.3457 74.4863 72.1777 74.3965 71.9902C74.3066 71.8027 74.2402 71.5703 74.1973 71.293V71.2637H78.5918V70.6602C78.5918 70.207 78.5312 69.7891 78.4102 69.4062C78.2891 69.0234 78.1094 68.6934 77.8711 68.416C77.6328 68.1426 77.3379 67.9297 76.9863 67.7773C76.6348 67.6211 76.2305 67.543 75.7734 67.543C75.3633 67.543 74.9766 67.6211 74.6133 67.7773C74.2539 67.9297 73.9375 68.1484 73.6641 68.4336C73.3906 68.7188 73.1758 69.0625 73.0195 69.4648C72.8633 69.8672 72.7852 70.3164 72.7852 70.8125V71.0527C72.7852 71.4863 72.8594 71.8906 73.0078 72.2656C73.1602 72.6367 73.375 72.959 73.6523 73.2324C73.9297 73.5098 74.2617 73.7266 74.6484 73.8828C75.0391 74.0391 75.4688 74.1172 75.9375 74.1172ZM75.7676 68.6797C76.002 68.6797 76.207 68.7207 76.3828 68.8027C76.5625 68.8809 76.7109 68.9863 76.8281 69.1191C76.9492 69.2559 77.043 69.416 77.1094 69.5996C77.1758 69.7793 77.209 69.9609 77.209 70.1445V70.2383H74.2266C74.2695 69.9961 74.3359 69.7793 74.4258 69.5879C74.5156 69.3965 74.627 69.2324 74.7598 69.0957C74.8926 68.9629 75.043 68.8613 75.2109 68.791C75.3828 68.7168 75.5684 68.6797 75.7676 68.6797ZM82.9688 69.793L81.4688 67.6602H79.9277L82.1484 70.7832L79.8516 74H81.4043L82.9805 71.7852L84.5625 74H86.1094L83.8125 70.7832L86.0391 67.6602H84.4863L82.9688 69.793ZM90.2051 66.1133H88.7988V67.6602H87.2637V68.709H88.7988V71.8262C88.7988 72.2324 88.8516 72.5801 88.957 72.8691C89.0664 73.1582 89.2168 73.3945 89.4082 73.5781C89.5996 73.7656 89.8281 73.9043 90.0938 73.9941C90.3633 74.0801 90.6582 74.123 90.9785 74.123C91.1543 74.123 91.3301 74.1133 91.5059 74.0938C91.6855 74.0781 91.8574 74.0547 92.0215 74.0234C92.1855 73.9922 92.3379 73.9551 92.4785 73.9121C92.623 73.8652 92.7461 73.8105 92.8477 73.748L92.6953 72.7812C92.625 72.7969 92.5371 72.8164 92.4316 72.8398C92.3301 72.8594 92.2207 72.877 92.1035 72.8926C91.9824 72.9121 91.8574 72.9277 91.7285 72.9395C91.5996 72.9512 91.4746 72.957 91.3535 72.957C91.1855 72.957 91.0312 72.9375 90.8906 72.8984C90.75 72.8594 90.6289 72.793 90.5273 72.6992C90.4258 72.6094 90.3457 72.4863 90.2871 72.3301C90.2324 72.1699 90.2051 71.9727 90.2051 71.7383V68.709H92.5898V67.6602H90.2051V66.1133ZM96.6445 71.4863H97.9512C97.9512 71.334 97.9551 71.2012 97.9629 71.0879C97.9707 70.9707 97.9902 70.8633 98.0215 70.7656C98.0488 70.668 98.0957 70.5723 98.1621 70.4785C98.2285 70.3809 98.3203 70.2754 98.4375 70.1621C98.625 69.9941 98.8125 69.8184 99 69.6348C99.1914 69.4512 99.3613 69.2559 99.5098 69.0488C99.6621 68.8418 99.7852 68.6211 99.8789 68.3867C99.9766 68.1484 100.025 67.8887 100.025 67.6074C100.025 67.2441 99.9648 66.9219 99.8438 66.6406C99.7227 66.3594 99.5488 66.123 99.3223 65.9316C99.0957 65.7402 98.8164 65.5957 98.4844 65.498C98.1562 65.3965 97.7832 65.3457 97.3652 65.3457C96.9902 65.3457 96.6426 65.3945 96.3223 65.4922C96.002 65.5859 95.7227 65.7285 95.4844 65.9199C95.2461 66.1074 95.0566 66.3418 94.916 66.623C94.7793 66.9043 94.709 67.2305 94.7051 67.6016H96.1113C96.1113 67.4102 96.1465 67.2461 96.2168 67.1094C96.291 66.9727 96.3867 66.8613 96.5039 66.7754C96.6211 66.6895 96.7539 66.627 96.9023 66.5879C97.0508 66.5449 97.2051 66.5234 97.3652 66.5234C97.5684 66.5234 97.748 66.5488 97.9043 66.5996C98.0645 66.6465 98.1992 66.7188 98.3086 66.8164C98.4062 66.9102 98.4805 67.0293 98.5312 67.1738C98.5859 67.3145 98.6133 67.4785 98.6133 67.666C98.6133 67.834 98.5781 67.998 98.5078 68.1582C98.4414 68.3184 98.3535 68.4727 98.2441 68.6211C98.1309 68.7734 98.0059 68.9199 97.8691 69.0605C97.7363 69.1973 97.6035 69.3281 97.4707 69.4531C97.2832 69.6133 97.1348 69.7578 97.0254 69.8867C96.916 70.0156 96.834 70.1523 96.7793 70.2969C96.7246 70.4453 96.6875 70.6133 96.668 70.8008C96.6523 70.9844 96.6445 71.2129 96.6445 71.4863ZM96.4512 73.291C96.4512 73.5098 96.5234 73.6953 96.668 73.8477C96.8125 73.9961 97.0176 74.0703 97.2832 74.0703C97.5449 74.0703 97.75 73.9961 97.8984 73.8477C98.0508 73.6953 98.127 73.5098 98.127 73.291C98.127 73.0605 98.0508 72.8691 97.8984 72.7168C97.75 72.5645 97.5449 72.4883 97.2832 72.4883C97.0176 72.4883 96.8125 72.5645 96.668 72.7168C96.5234 72.8691 96.4512 73.0605 96.4512 73.291Z" fill="#35393C"/>
</svg>
