<svg width="260" height="210" viewBox="0 0 260 210" fill="none" xmlns="http://www.w3.org/2000/svg">
<path fill-rule="evenodd" clip-rule="evenodd" d="M181.363 197.789C181.363 201.772 160.691 205 135.192 205C109.694 205 89.022 201.772 89.022 197.789C89.022 193.807 109.694 190.579 135.192 190.579C160.691 190.579 181.363 193.807 181.363 197.789Z" fill="#B8BACF" fill-opacity="0.25"/>
<path fill-rule="evenodd" clip-rule="evenodd" d="M171.504 49.0372C159.505 31.5859 130.329 31.5859 130.329 31.5859C130.329 31.5859 101.152 31.5859 89.1534 49.0372C78.1431 65.0541 78.2456 86.9398 78.2456 86.9398L88.8828 100.574H171.775L182.409 86.9398C182.409 86.9398 182.514 65.0541 171.504 49.0372Z" fill="#98BDFE"/>
<path fill-rule="evenodd" clip-rule="evenodd" d="M171.519 49.0372C166.816 42.1955 159.471 38.0364 152.28 35.5076C156 37.8229 159.387 40.7745 161.976 44.5379C172.986 60.5551 172.881 82.4404 172.881 82.4404L162.247 96.0742H85.3882L88.8979 100.574H171.79L182.427 86.9397C182.427 86.9397 182.53 65.0541 171.519 49.0372Z" fill="#8087DE"/>
<path fill-rule="evenodd" clip-rule="evenodd" d="M156.778 52.5821C145.597 44.1289 115.059 44.1289 103.878 52.5821C91.7398 61.7592 92.1526 83.6674 92.1526 83.6674H168.504C168.504 83.6674 168.914 61.7592 156.778 52.5821Z" fill="#002B43"/>
<path fill-rule="evenodd" clip-rule="evenodd" d="M92.4704 83.6674C93.2199 76.52 95.7017 64.5588 103.878 58.3757C115.059 49.9229 145.597 49.9229 156.778 58.3757C164.955 64.5588 167.437 76.52 168.183 83.6674H168.504C168.504 83.6674 168.914 61.7592 156.778 52.5821C145.597 44.1289 115.059 44.1289 103.878 52.5821C91.7398 61.7592 92.1526 83.6674 92.1526 83.6674H92.4704Z" fill="#000F16"/>
<path fill-rule="evenodd" clip-rule="evenodd" d="M141.1 34.8584C141.1 35.7619 140.367 36.4944 139.465 36.4944H121.193C120.292 36.4944 119.558 35.7619 119.558 34.8584V29.1321C119.558 28.2286 120.292 27.4958 121.193 27.4958H139.465C140.367 27.4958 141.1 28.2286 141.1 29.1321V34.8584Z" fill="#98BDFE"/>
<path fill-rule="evenodd" clip-rule="evenodd" d="M125.464 31.8585L127.917 8.95361H131.191L135.192 31.9955L125.464 31.8585Z" fill="#98BDFE"/>
<path fill-rule="evenodd" clip-rule="evenodd" d="M133.602 8.95349C133.602 11.1371 131.83 12.9078 129.648 12.9078C127.463 12.9078 125.694 11.1371 125.694 8.95349C125.694 6.76984 127.463 5 129.648 5C131.83 5 133.602 6.76984 133.602 8.95349Z" fill="#98BDFE"/>
<path fill-rule="evenodd" clip-rule="evenodd" d="M132.114 5.86548C132.369 6.38707 132.511 6.97202 132.511 7.59036C132.511 9.77375 130.739 11.5439 128.557 11.5439C127.624 11.5439 126.764 11.2197 126.088 10.6786C126.73 11.9976 128.081 12.9078 129.648 12.9078C131.83 12.9078 133.602 11.1371 133.602 8.9535C133.602 7.7042 133.021 6.59003 132.114 5.86548Z" fill="#8087DE"/>
<path fill-rule="evenodd" clip-rule="evenodd" d="M88.8828 100.574H171.775L182.409 86.9399H78.2456L88.8828 100.574Z" fill="#8087DE"/>
<path fill-rule="evenodd" clip-rule="evenodd" d="M141.1 32.1812C141.1 32.7562 140.734 33.2223 140.282 33.2223H131.146C130.694 33.2223 130.329 32.7562 130.329 32.1812V28.5369C130.329 27.962 130.694 27.4958 131.146 27.4958H140.282C140.734 27.4958 141.1 27.962 141.1 28.5369V32.1812Z" fill="#8087DE"/>
<path fill-rule="evenodd" clip-rule="evenodd" d="M114.011 39.1075C112.683 36.5652 106.673 38.0212 104.707 38.9484C103.103 39.7058 100.198 41.3844 98.347 43.165C96.8798 44.3352 95.5653 45.6968 94.4272 47.2316C93.4781 48.5067 91.6904 51.1338 92.8364 52.8082C94.0986 54.649 96.2281 53.0532 97.2849 51.9898C100.037 49.2225 102.151 46.2578 105.884 44.5726C107.719 43.7437 115.577 42.1048 114.011 39.1075Z" fill="white"/>
<path fill-rule="evenodd" clip-rule="evenodd" d="M128.073 6.67393C126.209 7.12401 126.921 11.0141 129.211 8.92014C131.033 7.2552 129.124 6.20781 128.073 6.67393Z" fill="white"/>
<path fill-rule="evenodd" clip-rule="evenodd" d="M186.832 131.46L170.632 103.519H90.0265L73.8267 131.46C73.8267 131.46 74.5207 143.103 78.4274 153.746C84.4347 170.107 90.1606 176.651 90.1606 176.651L109.988 184.308L130.148 186.161V186.194C130.148 186.194 130.284 186.178 130.329 186.178C130.374 186.178 130.508 186.194 130.508 186.194V186.161L150.669 184.308L170.498 176.651C170.498 176.651 177.69 167.38 182.231 153.746C185.811 142.989 186.832 131.46 186.832 131.46Z" fill="#98BDFE"/>
<path fill-rule="evenodd" clip-rule="evenodd" d="M170.631 103.519H151.542L167.745 131.46C167.745 131.46 166.725 142.989 163.141 153.746C158.604 167.38 156.572 172.81 151.408 176.651C147.147 179.823 131.58 184.308 131.58 184.308L120.786 185.3L130.148 186.161V186.194C130.148 186.194 130.284 186.178 130.329 186.178C130.374 186.178 130.508 186.194 130.508 186.194V186.161L150.669 184.308L170.497 176.651C170.497 176.651 177.69 167.38 182.231 153.746C185.811 142.989 186.831 131.46 186.831 131.46L170.631 103.519Z" fill="#8087DE"/>
<path fill-rule="evenodd" clip-rule="evenodd" d="M73.8267 131.46H186.832L182.428 139.839L73.8267 131.46Z" fill="#8087DE"/>
<path fill-rule="evenodd" clip-rule="evenodd" d="M96.5091 149.989C96.1884 145.935 98.957 140.345 94.33 138.204C91.9504 137.105 87.9333 136.653 86.0957 139.015C85.4176 139.884 85.0756 140.979 85.0125 142.115C84.35 145.008 85.9066 149.238 86.6323 151.83C87.4893 154.881 90.4574 165.612 95.9255 162.69C99.651 160.698 96.7484 152.992 96.5091 149.989Z" fill="white"/>
<path fill-rule="evenodd" clip-rule="evenodd" d="M102.456 109.354C99.9953 105.847 96.5384 107.015 94.0774 109.56C88.6015 112.894 82.7861 126.516 91.0648 127.848C95.8391 128.616 97.3005 122.799 98.9174 119.655C100.4 116.771 104.87 112.797 102.456 109.354Z" fill="white"/>
<path fill-rule="evenodd" clip-rule="evenodd" d="M89.9341 179.064C89.9341 179.064 97.1296 197.836 103.158 198.449C109.184 199.062 109.359 186.195 109.359 186.195L89.9341 179.064Z" fill="#98BDFE"/>
<path fill-rule="evenodd" clip-rule="evenodd" d="M104.512 184.34C104.441 186.161 103.884 195.044 99.646 196.171C100.887 197.465 102.149 198.325 103.361 198.449C109.389 199.063 109.565 186.195 109.565 186.195L104.512 184.34Z" fill="#8087DE"/>
<path fill-rule="evenodd" clip-rule="evenodd" d="M152.715 186.195C152.715 186.195 161.922 200.339 173.779 197.384C178.737 196.148 170.916 179.064 170.916 179.064L152.715 186.195Z" fill="#98BDFE"/>
<path fill-rule="evenodd" clip-rule="evenodd" d="M170.915 179.064L165.978 180.998C167.965 185.998 171.109 195.259 167.505 196.157C166.533 196.399 165.578 196.524 164.645 196.554C167.39 197.704 170.481 198.205 173.778 197.384C178.736 196.148 170.915 179.064 170.915 179.064Z" fill="#8087DE"/>
<path fill-rule="evenodd" clip-rule="evenodd" d="M141.119 71.5728C140.767 71.5618 140.472 71.8402 140.462 72.193C140.459 72.2317 140.346 75.0983 138.521 76.6021C136.781 78.0386 133.624 78.5194 132.091 78.515C130.658 78.5778 127.4 78.0386 125.657 76.6021C123.836 75.0983 123.722 72.2317 123.72 72.193C123.71 71.8402 123.415 71.5618 123.063 71.5728C122.71 71.5823 122.432 71.8767 122.442 72.2298C122.445 72.371 122.566 75.708 124.845 77.5885C127.172 79.5087 130.174 79.8005 131.786 79.8005C133.71 79.8005 137.01 79.5087 139.336 77.5885C141.616 75.708 141.734 72.371 141.739 72.2298C141.75 71.8767 141.471 71.5823 141.119 71.5728Z" fill="#3AEDB1"/>
<path fill-rule="evenodd" clip-rule="evenodd" d="M110.13 61.9664C110.13 64.0496 108.442 65.7382 106.36 65.7382C104.275 65.7382 102.587 64.0496 102.587 61.9664C102.587 59.8832 104.275 58.1948 106.36 58.1948C108.442 58.1948 110.13 59.8832 110.13 61.9664Z" fill="#3AEDB1"/>
<path fill-rule="evenodd" clip-rule="evenodd" d="M158.07 61.9664C158.07 64.0496 156.38 65.7382 154.298 65.7382C152.215 65.7382 150.525 64.0496 150.525 61.9664C150.525 59.8832 152.215 58.1948 154.298 58.1948C156.38 58.1948 158.07 59.8832 158.07 61.9664Z" fill="#3AEDB1"/>
<path fill-rule="evenodd" clip-rule="evenodd" d="M48.2073 90.7809C48.6732 90.8643 49.1228 90.5556 49.2057 90.0896L58.168 41.1286C58.2548 40.6632 57.9466 40.2131 57.4773 40.1301C57.3996 40.1152 57.3229 40.1108 57.2467 40.1176C56.8714 40.1504 56.5497 40.4292 56.4788 40.8214L47.516 89.7824C47.4336 90.2483 47.7413 90.694 48.2073 90.7809Z" fill="#2E313C"/>
<path fill-rule="evenodd" clip-rule="evenodd" d="M1.99965 46.8754C17.9368 55.444 36.4855 51.2171 52.6431 58.7087C53.3536 59.0347 54.0642 59.3878 54.765 59.765C55.2517 57.1419 55.7413 54.5242 56.2285 51.9011C57.1981 46.694 58.169 41.4836 59.1429 36.2775C59.6036 33.8039 60.0633 31.3342 60.5234 28.8607C59.9446 28.6012 59.3667 28.3595 58.7807 28.1338C42.596 21.839 23.9924 27.3982 7.98815 20.2163C8.44109 23.6497 8.5173 26.9573 8.22258 30.1143C7.924 33.2844 7.2511 36.3021 6.19714 39.1277C5.16248 41.9042 3.76701 44.4959 1.99965 46.8754Z" fill="#012169"/>
<path d="M60.1726 30.7507L60.5238 28.8487C60.5238 28.8487 58.9374 28.1402 57.8902 27.766C56.9883 27.4437 54.964 26.8589 54.964 26.8589C54.964 26.8589 49.4043 28.1806 43.8445 30.4581C38.2848 32.7356 35.9438 34.8474 30.9693 37.4809C25.6356 40.3046 15.4605 42.9237 10.4859 43.9186C5.51143 44.9135 3.04172 45.3816 3.04172 45.3816L2 46.874C2 46.874 3.41288 47.6162 4.34095 48.0445C5.2429 48.4607 6.6819 49.0394 6.6819 49.0394C6.6819 49.0394 12.9684 48.4268 16.9236 47.43C23.7219 45.7165 29.2136 43.9186 33.8955 41.5776C38.9053 39.0727 44.3831 35.1555 49.6969 33.3843C55.0107 31.613 60.1726 30.7507 60.1726 30.7507Z" fill="#FAFAFA"/>
<path d="M29.5062 40.6997L32.725 41.2849C32.725 41.2849 23.2788 44.647 17.0699 46.2595C12.373 47.4792 4.92619 48.3078 4.92619 48.3078C4.92619 48.3078 4.08682 47.9276 3.549 47.664C2.94408 47.3676 2 46.874 2 46.874C2 46.874 7.70862 46.2122 11.5101 45.5279C18.6715 44.2389 29.5062 40.6997 29.5062 40.6997Z" fill="#C8102E"/>
<path d="M49.6969 57.6715L54.7654 59.7667L55.5906 55.3306C55.5906 55.3306 49.6972 48.893 42.0891 43.9184C39.2761 42.0792 33.996 36.5559 28.6284 32.7989C25.7019 30.7506 22.5088 27.417 19.8498 25.6413C16.9941 23.7342 14.8756 22.5573 14.8756 22.5573L7.9873 20.2163L8.32089 23.7277C8.32089 23.7277 12.8199 26.4415 15.4605 28.4096C19.52 31.4354 23.3612 35.1399 25.4098 36.603C28.7628 38.9976 32.7253 43.3332 32.7253 43.3332C32.7253 43.3332 38.5699 47.1779 42.0891 50.0634C45.54 52.8929 49.6969 57.6715 49.6969 57.6715Z" fill="#FAFAFA"/>
<path d="M39.1621 42.7481L35.0654 42.1628C35.0654 42.1628 39.9752 45.4402 45.5119 50.3854C51.0486 55.3307 54.7879 59.7785 54.7879 59.7785L55.3147 56.7938C55.3147 56.7938 50.3924 51.9283 47.2384 49.1857C44.0844 46.4431 39.1621 42.7481 39.1621 42.7481Z" fill="#C8102E"/>
<path d="M26.58 36.3104L30.3841 36.603C30.3841 36.603 28.3358 35.1399 24.9709 32.2868C21.6061 29.4338 18.8159 26.7289 14.29 24.0204C12.1672 22.7499 10.0495 21.5884 7.9873 20.2163L8.20357 22.5573C8.20357 22.5573 13.3578 25.5072 16.9236 28.117C20.5389 30.7631 26.58 36.3104 26.58 36.3104Z" fill="#C8102E"/>
<path d="M38.5769 36.3104L35.9434 36.0178C35.9434 36.0178 42.3637 32.2906 46.4776 30.6336C50.5915 28.9766 57.3631 27.5903 57.3631 27.5903C57.3631 27.5903 58.0876 27.8217 58.7676 28.0878C59.4594 28.3584 60.5234 28.8486 60.5234 28.8486C60.5234 28.8486 53.7532 29.8475 49.6965 31.2188C45.6397 32.5901 38.5769 36.3104 38.5769 36.3104Z" fill="#C8102E"/>
<path d="M58.3584 40.407L56.7161 49.1855C56.7161 49.1855 52.5259 47.1902 47.8598 45.9667C41.9692 44.4222 37.3613 44.211 31.2371 43.6258C25.8318 43.1093 22.7757 42.6933 17.5306 41.2848C13.2161 40.1262 6.74042 37.4808 6.74042 37.4808C6.74042 37.4808 7.45017 35.204 7.73769 33.6767C8.03439 32.1007 8.19855 29.5801 8.19855 29.5801C8.19855 29.5801 12.8646 31.6284 17.8222 33.0915C23.1075 34.6513 27.1543 34.8472 33.2785 35.1398L33.5095 35.1509C37.9788 35.3642 42.2987 35.5704 46.9849 36.6029C52.6861 37.8591 58.3584 40.407 58.3584 40.407Z" fill="#FAFAFA"/>
<path d="M58.3584 40.407L56.72 49.1856L54.6716 48.3077C54.6716 48.3077 55.6419 45.5169 56.0761 43.8599C56.5103 42.2029 56.8954 39.8218 56.8954 39.8218L58.3584 40.407Z" fill="#EEEDEE"/>
<path d="M29.2137 36.8955C30.1473 31.9817 31.7302 24.4299 31.7302 24.4299C31.7302 24.4299 33.9874 24.4885 35.3587 24.547C36.73 24.6055 38.8701 24.7226 38.8701 24.7226C38.8701 24.7226 36.9125 33.8767 35.8269 39.7047C34.7413 45.5327 33.3104 53.8674 33.3104 53.8674C33.3104 53.8674 31.1702 53.6333 29.7989 53.4578C28.4276 53.3407 26.2875 53.1066 26.2875 53.1066C26.2875 53.1066 27.9761 43.4092 29.2137 36.8955Z" fill="#FAFAFA"/>
<path d="M30.3796 38.066C31.2405 33.2087 33.1303 24.4651 33.1303 24.4651C33.1303 24.4651 33.633 24.4768 34.9911 24.5353C36.3492 24.5938 37.5195 24.6523 37.5195 24.6523C37.5195 24.6523 35.6043 33.7672 34.5933 39.5291C33.5824 45.2909 31.8463 53.7211 31.8463 53.7211C31.8463 53.7211 30.3832 53.6528 29.7979 53.5748C29.2127 53.4812 27.7496 53.2822 27.7496 53.2822C27.7496 53.2822 29.2385 44.5047 30.3796 38.066Z" fill="#C8102E"/>
<path d="M58.0655 41.9382L57.0124 47.7225C57.0124 47.7225 51.9406 45.3453 47.356 44.211C41.6282 42.7939 37.4933 42.4622 31.1627 41.9543L30.9625 41.9382C25.5658 41.5052 22.953 41.1166 17.8011 39.8218C13.5633 38.7567 7.1205 36.1485 7.1205 36.1485C7.1205 36.1485 7.49461 34.8418 7.64728 33.9694C7.85211 32.7989 8.08644 31.0432 8.08644 31.0432C8.08644 31.0432 13.2841 33.2016 18.1468 34.5039C23.3308 35.8922 26.6394 35.8952 32.725 36.6029C37.248 37.129 41.4913 37.0259 46.1855 38.066C51.7996 39.31 58.0655 41.9382 58.0655 41.9382Z" fill="#C8102E"/>
<path d="M58.083 41.9344L57.012 47.7224L55.1392 46.903C55.1392 46.903 55.6416 45.5168 56.0758 43.8598C56.5101 42.2028 56.6199 41.3608 56.6199 41.3608L58.083 41.9344Z" fill="#B5263D"/>
<g style="mix-blend-mode:overlay">
<path d="M54.6714 48.3076L56.7197 49.1855L54.7884 59.7783L52.6231 58.7249C52.6231 58.7249 52.6231 56.2083 53.2083 53.5748C53.7935 50.9412 54.6714 48.3076 54.6714 48.3076Z" fill="#2E313C" fill-opacity="0.6"/>
</g>
<g style="mix-blend-mode:overlay">
<path d="M58.7677 29.1169L60.5234 29.8778L58.3581 41.4069L56.895 40.8217C56.895 40.8217 57.1876 37.0177 57.1876 34.3841C57.1876 31.7505 58.7677 29.1169 58.7677 29.1169Z" fill="#2E313C" fill-opacity="0.6"/>
</g>
<path fill-rule="evenodd" clip-rule="evenodd" d="M189.992 129.412C189.992 129.412 201.388 143.135 206.87 147.187C211.029 150.259 215.093 134.792 200.859 120.265C186.94 106.059 175.169 103.32 175.169 103.32L189.992 129.412Z" fill="#98BDFE"/>
<path fill-rule="evenodd" clip-rule="evenodd" d="M200.859 120.265C186.94 106.059 175.169 103.32 175.169 103.32L176.4 105.491C180.892 108.04 186.643 112.085 192.82 118.39C202.381 128.147 203.688 138.333 202.251 143.033C203.967 144.75 205.582 146.235 206.87 147.187C211.029 150.259 215.093 134.792 200.859 120.265Z" fill="#8087DE"/>
<path fill-rule="evenodd" clip-rule="evenodd" d="M84.7378 103.519C84.7378 103.519 49.2894 81.4863 42.4724 81.4863C35.6554 81.4863 38.3822 93.7567 49.2894 107.159C59.873 120.164 70.2864 127.917 70.2864 127.917L84.7378 103.519Z" fill="#98BDFE"/>
<path fill-rule="evenodd" clip-rule="evenodd" d="M42.4724 81.4863C43.1536 81.4863 44.1213 81.7066 45.3102 82.1026C45.5055 86.8965 49.1183 94.7176 55.8346 102.969C63.0988 111.898 70.2838 118.35 74.0748 121.518L70.2864 127.917C70.2864 127.917 59.873 120.164 49.2894 107.159C38.3822 93.7567 35.6554 81.4863 42.4724 81.4863Z" fill="#8087DE"/>
<path fill-rule="evenodd" clip-rule="evenodd" d="M50.0988 86.6126C51.0318 86.0011 53.7397 87.3787 54.5073 87.7567C55.7929 88.3887 59.1133 90.4772 59.8048 92.471C60.5774 93.514 60.7115 94.5432 59.4367 95.1776C57.5123 96.1351 52.157 91.797 50.995 90.3676C50.272 89.4771 48.8224 87.4486 50.0988 86.6126Z" fill="white"/>
</svg>
