<svg width="316" height="250" viewBox="0 0 316 250" fill="none" xmlns="http://www.w3.org/2000/svg">
<path d="M1.38281 64H2.71289L3.56836 58.7793L3.63281 58.375L3.69141 58.7793L4.55859 64H5.88867L7.01367 55.4688H5.70117L5.10938 60.707L5.06836 61.0645L5.00977 60.7129L4.16016 55.4688H3.08203L2.26172 60.6895L2.20312 61.041L2.16211 60.707L1.57617 55.4688H0.269531L1.38281 64ZM11.0742 64.1172C11.6914 64.1172 12.2168 63.9961 12.6504 63.7539C13.0879 63.5117 13.4121 63.2383 13.623 62.9336L12.873 62.207C12.6777 62.457 12.4297 62.6504 12.1289 62.7871C11.8281 62.9199 11.5039 62.9863 11.1562 62.9863C10.9023 62.9863 10.668 62.9434 10.4531 62.8574C10.2422 62.7715 10.0586 62.6504 9.90234 62.4941C9.74609 62.3457 9.62305 62.1777 9.5332 61.9902C9.44336 61.8027 9.37695 61.5703 9.33398 61.293V61.2637H13.7285V60.6602C13.7285 60.207 13.668 59.7891 13.5469 59.4062C13.4258 59.0234 13.2461 58.6934 13.0078 58.416C12.7695 58.1426 12.4746 57.9297 12.123 57.7773C11.7715 57.6211 11.3672 57.543 10.9102 57.543C10.5 57.543 10.1133 57.6211 9.75 57.7773C9.39062 57.9297 9.07422 58.1484 8.80078 58.4336C8.52734 58.7188 8.3125 59.0625 8.15625 59.4648C8 59.8672 7.92188 60.3164 7.92188 60.8125V61.0527C7.92188 61.4863 7.99609 61.8906 8.14453 62.2656C8.29688 62.6367 8.51172 62.959 8.78906 63.2324C9.06641 63.5098 9.39844 63.7266 9.78516 63.8828C10.1758 64.0391 10.6055 64.1172 11.0742 64.1172ZM10.9043 58.6797C11.1387 58.6797 11.3438 58.7207 11.5195 58.8027C11.6992 58.8809 11.8477 58.9863 11.9648 59.1191C12.0859 59.2559 12.1797 59.416 12.2461 59.5996C12.3125 59.7793 12.3457 59.9609 12.3457 60.1445V60.2383H9.36328C9.40625 59.9961 9.47266 59.7793 9.5625 59.5879C9.65234 59.3965 9.76367 59.2324 9.89648 59.0957C10.0293 58.9629 10.1797 58.8613 10.3477 58.791C10.5195 58.7168 10.7051 58.6797 10.9043 58.6797ZM26.5781 64H28.0078V63.9004C27.9297 63.7363 27.8691 63.541 27.8262 63.3145C27.7871 63.084 27.7676 62.8262 27.7676 62.541V59.7227C27.7676 59.3633 27.7012 59.0469 27.5684 58.7734C27.4355 58.4961 27.252 58.2676 27.0176 58.0879C26.7832 57.9082 26.5039 57.7734 26.1797 57.6836C25.8594 57.5898 25.5137 57.543 25.1426 57.543C24.7285 57.543 24.3594 57.5977 24.0352 57.707C23.7148 57.8125 23.4453 57.957 23.2266 58.1406C23 58.3203 22.8281 58.5273 22.7109 58.7617C22.5938 58.9961 22.5332 59.2402 22.5293 59.4941H23.9355C23.9355 59.373 23.957 59.2598 24 59.1543C24.0469 59.0449 24.1172 58.9531 24.2109 58.8789C24.3047 58.7969 24.4219 58.7324 24.5625 58.6855C24.707 58.6387 24.875 58.6152 25.0664 58.6152C25.2773 58.6152 25.4629 58.6426 25.623 58.6973C25.7871 58.748 25.9258 58.8223 26.0391 58.9199C26.1445 59.0176 26.2246 59.1328 26.2793 59.2656C26.3379 59.3984 26.3672 59.5469 26.3672 59.7109V60.1387H25.3477C24.8906 60.1387 24.4805 60.1816 24.1172 60.2676C23.7578 60.3535 23.4551 60.4785 23.209 60.6426C22.9434 60.8184 22.7402 61.041 22.5996 61.3105C22.4629 61.5762 22.3945 61.8828 22.3945 62.2305C22.3945 62.5 22.4473 62.752 22.5527 62.9863C22.6621 63.2168 22.8145 63.4141 23.0098 63.5781C23.2012 63.7461 23.4316 63.8789 23.7012 63.9766C23.9746 64.0703 24.2754 64.1172 24.6035 64.1172C24.8066 64.1172 24.9961 64.0977 25.1719 64.0586C25.3477 64.0195 25.5117 63.9648 25.6641 63.8945C25.8164 63.8281 25.9531 63.75 26.0742 63.6602C26.1992 63.5664 26.3105 63.4688 26.4082 63.3672C26.4277 63.4883 26.4492 63.6055 26.4727 63.7188C26.5 63.8281 26.5352 63.9219 26.5781 64ZM24.873 62.9922C24.6934 62.9922 24.5371 62.9707 24.4043 62.9277C24.2715 62.8809 24.1602 62.8184 24.0703 62.7402C23.9805 62.6621 23.9121 62.5684 23.8652 62.459C23.8184 62.3457 23.7949 62.2246 23.7949 62.0957C23.7949 61.9395 23.8223 61.7988 23.877 61.6738C23.9355 61.5488 24.0234 61.4414 24.1406 61.3516C24.2734 61.2461 24.4512 61.166 24.6738 61.1113C24.8965 61.0527 25.1602 61.0234 25.4648 61.0234H26.3672V62.1953C26.3164 62.2969 26.2441 62.3945 26.1504 62.4883C26.0566 62.582 25.9453 62.666 25.8164 62.7402C25.6875 62.8145 25.543 62.875 25.3828 62.9219C25.2266 62.9688 25.0566 62.9922 24.873 62.9922ZM34.1191 57.543C33.6816 57.543 33.2812 57.6445 32.918 57.8477C32.5586 58.0508 32.25 58.3301 31.9922 58.6855L31.9863 58.5391L31.9277 57.6602H30.6152V64H32.0156V60.0859C32.0898 59.8984 32.1816 59.7324 32.291 59.5879C32.4004 59.4434 32.5332 59.3242 32.6895 59.2305C32.834 59.1328 33 59.0605 33.1875 59.0137C33.375 58.9668 33.5859 58.9434 33.8203 58.9434C34.0273 58.9434 34.2344 58.9551 34.4414 58.9785C34.6523 59.002 34.8652 59.0371 35.0801 59.084L35.2793 57.7012C35.1582 57.6582 34.9902 57.6211 34.7754 57.5898C34.5645 57.5586 34.3457 57.543 34.1191 57.543ZM39.9023 64.1172C40.5195 64.1172 41.0449 63.9961 41.4785 63.7539C41.916 63.5117 42.2402 63.2383 42.4512 62.9336L41.7012 62.207C41.5059 62.457 41.2578 62.6504 40.957 62.7871C40.6562 62.9199 40.332 62.9863 39.9844 62.9863C39.7305 62.9863 39.4961 62.9434 39.2812 62.8574C39.0703 62.7715 38.8867 62.6504 38.7305 62.4941C38.5742 62.3457 38.4512 62.1777 38.3613 61.9902C38.2715 61.8027 38.2051 61.5703 38.1621 61.293V61.2637H42.5566V60.6602C42.5566 60.207 42.4961 59.7891 42.375 59.4062C42.2539 59.0234 42.0742 58.6934 41.8359 58.416C41.5977 58.1426 41.3027 57.9297 40.9512 57.7773C40.5996 57.6211 40.1953 57.543 39.7383 57.543C39.3281 57.543 38.9414 57.6211 38.5781 57.7773C38.2188 57.9297 37.9023 58.1484 37.6289 58.4336C37.3555 58.7188 37.1406 59.0625 36.9844 59.4648C36.8281 59.8672 36.75 60.3164 36.75 60.8125V61.0527C36.75 61.4863 36.8242 61.8906 36.9727 62.2656C37.125 62.6367 37.3398 62.959 37.6172 63.2324C37.8945 63.5098 38.2266 63.7266 38.6133 63.8828C39.0039 64.0391 39.4336 64.1172 39.9023 64.1172ZM39.7324 58.6797C39.9668 58.6797 40.1719 58.7207 40.3477 58.8027C40.5273 58.8809 40.6758 58.9863 40.793 59.1191C40.9141 59.2559 41.0078 59.416 41.0742 59.5996C41.1406 59.7793 41.1738 59.9609 41.1738 60.1445V60.2383H38.1914C38.2344 59.9961 38.3008 59.7793 38.3906 59.5879C38.4805 59.3965 38.5918 59.2324 38.7246 59.0957C38.8574 58.9629 39.0078 58.8613 39.1758 58.791C39.3477 58.7168 39.5332 58.6797 39.7324 58.6797ZM51.627 55V56.166H53.6309V62.8398H51.627V64H56.9648V62.8398H55.043V55H51.627ZM58.3066 60.7715V60.8945C58.3066 61.3594 58.373 61.7871 58.5059 62.1777C58.6387 62.5684 58.832 62.9082 59.0859 63.1973C59.3359 63.4863 59.6445 63.7129 60.0117 63.877C60.3789 64.041 60.7949 64.123 61.2598 64.123C61.7207 64.123 62.1328 64.041 62.4961 63.877C62.8633 63.7129 63.1719 63.4863 63.4219 63.1973C63.6719 62.9082 63.8633 62.5684 63.9961 62.1777C64.1289 61.7871 64.1953 61.3594 64.1953 60.8945V60.7715C64.1953 60.3105 64.1289 59.8848 63.9961 59.4941C63.8633 59.0996 63.6719 58.7578 63.4219 58.4688C63.168 58.1797 62.8574 57.9531 62.4902 57.7891C62.127 57.625 61.7129 57.543 61.248 57.543C60.7832 57.543 60.3691 57.625 60.0059 57.7891C59.6426 57.9531 59.3359 58.1797 59.0859 58.4688C58.832 58.7578 58.6387 59.0996 58.5059 59.4941C58.373 59.8848 58.3066 60.3105 58.3066 60.7715ZM59.707 60.8945V60.7715C59.707 60.4941 59.7363 60.2285 59.7949 59.9746C59.8574 59.7207 59.9531 59.498 60.082 59.3066C60.207 59.1152 60.3652 58.9629 60.5566 58.8496C60.752 58.7363 60.9824 58.6797 61.248 58.6797C61.5176 58.6797 61.748 58.7363 61.9395 58.8496C62.1348 58.9629 62.2969 59.1152 62.4258 59.3066C62.5469 59.498 62.6387 59.7207 62.7012 59.9746C62.7637 60.2285 62.7949 60.4941 62.7949 60.7715V60.8945C62.7949 61.1797 62.7637 61.4492 62.7012 61.7031C62.6426 61.957 62.5508 62.1797 62.4258 62.3711C62.3008 62.5625 62.1406 62.7148 61.9453 62.8281C61.75 62.9375 61.5215 62.9922 61.2598 62.9922C60.9902 62.9922 60.7578 62.9375 60.5625 62.8281C60.3672 62.7148 60.207 62.5625 60.082 62.3711C59.9531 62.1797 59.8574 61.957 59.7949 61.7031C59.7363 61.4492 59.707 61.1797 59.707 60.8945ZM69.9141 62.2832C69.9141 62.3848 69.8906 62.4785 69.8438 62.5645C69.8008 62.6465 69.7344 62.7227 69.6445 62.793C69.5352 62.8789 69.3887 62.9473 69.2051 62.998C69.0254 63.0488 68.8145 63.0742 68.5723 63.0742C68.3926 63.0742 68.2148 63.0566 68.0391 63.0215C67.8633 62.9824 67.707 62.9199 67.5703 62.834C67.4297 62.752 67.3125 62.6445 67.2188 62.5117C67.1289 62.375 67.0781 62.209 67.0664 62.0137H65.707C65.707 62.2754 65.7695 62.5332 65.8945 62.7871C66.0195 63.041 66.2031 63.2656 66.4453 63.4609C66.6836 63.6602 66.9785 63.8203 67.3301 63.9414C67.6855 64.0625 68.0918 64.123 68.5488 64.123C68.959 64.123 69.332 64.0762 69.668 63.9824C70.0039 63.8887 70.293 63.7578 70.5352 63.5898C70.7734 63.4219 70.957 63.2207 71.0859 62.9863C71.2188 62.752 71.2852 62.4941 71.2852 62.2129C71.2852 61.9238 71.2227 61.6738 71.0977 61.4629C70.9727 61.252 70.7969 61.0684 70.5703 60.9121C70.3438 60.7637 70.0703 60.6387 69.75 60.5371C69.4297 60.4355 69.0762 60.3496 68.6895 60.2793C68.4121 60.2324 68.1816 60.1797 67.998 60.1211C67.8184 60.0625 67.6777 59.998 67.5762 59.9277C67.4668 59.8613 67.3906 59.7852 67.3477 59.6992C67.3047 59.6094 67.2832 59.5098 67.2832 59.4004C67.2832 59.2949 67.3086 59.1953 67.3594 59.1016C67.4102 59.0039 67.4863 58.9199 67.5879 58.8496C67.6895 58.7715 67.8184 58.7109 67.9746 58.668C68.1348 58.6211 68.3203 58.5977 68.5312 58.5977C68.7617 58.5977 68.9629 58.6289 69.1348 58.6914C69.3066 58.75 69.4473 58.8301 69.5566 58.9316C69.6504 59.0176 69.7207 59.1152 69.7676 59.2246C69.8184 59.3301 69.8438 59.4414 69.8438 59.5586H71.2441C71.2441 59.2734 71.1816 59.0078 71.0566 58.7617C70.9316 58.5156 70.7539 58.3027 70.5234 58.123C70.2891 57.9434 70.0039 57.8027 69.668 57.7012C69.332 57.5957 68.9531 57.543 68.5312 57.543C68.1367 57.543 67.7773 57.5938 67.4531 57.6953C67.1328 57.7969 66.8594 57.9355 66.6328 58.1113C66.4023 58.2871 66.2246 58.4922 66.0996 58.7266C65.9785 58.957 65.918 59.2012 65.918 59.459C65.918 59.7285 65.9785 59.9648 66.0996 60.168C66.2207 60.3711 66.3887 60.5469 66.6035 60.6953C66.8223 60.8516 67.082 60.9844 67.3828 61.0938C67.6875 61.2031 68.0234 61.2949 68.3906 61.3691C68.6836 61.4238 68.9277 61.4824 69.123 61.5449C69.3184 61.6074 69.4766 61.6738 69.5977 61.7441C69.7109 61.8223 69.791 61.9043 69.8379 61.9902C69.8887 62.0762 69.9141 62.1738 69.9141 62.2832ZM75.791 56.1133H74.3848V57.6602H72.8496V58.709H74.3848V61.8262C74.3848 62.2324 74.4375 62.5801 74.543 62.8691C74.6523 63.1582 74.8027 63.3945 74.9941 63.5781C75.1855 63.7656 75.4141 63.9043 75.6797 63.9941C75.9492 64.0801 76.2441 64.123 76.5645 64.123C76.7402 64.123 76.916 64.1133 77.0918 64.0938C77.2715 64.0781 77.4434 64.0547 77.6074 64.0234C77.7715 63.9922 77.9238 63.9551 78.0645 63.9121C78.209 63.8652 78.332 63.8105 78.4336 63.748L78.2812 62.7812C78.2109 62.7969 78.123 62.8164 78.0176 62.8398C77.916 62.8594 77.8066 62.877 77.6895 62.8926C77.5684 62.9121 77.4434 62.9277 77.3145 62.9395C77.1855 62.9512 77.0605 62.957 76.9395 62.957C76.7715 62.957 76.6172 62.9375 76.4766 62.8984C76.3359 62.8594 76.2148 62.793 76.1133 62.6992C76.0117 62.6094 75.9316 62.4863 75.873 62.3301C75.8184 62.1699 75.791 61.9727 75.791 61.7383V58.709H78.1758V57.6602H75.791V56.1133ZM83.2734 63.8184V62.6348H81.8965V63.8711C81.8965 64.2578 81.8496 64.6055 81.7559 64.9141C81.666 65.2227 81.5371 65.5156 81.3691 65.793L82.1543 66.209C82.4902 65.9082 82.7598 65.5391 82.9629 65.1016C83.1699 64.668 83.2734 64.2402 83.2734 63.8184ZM1.17773 71V72.166H3.18164V78.8398H1.17773V80H6.51562V78.8398H4.59375V71H1.17773ZM11.0742 80.1172C11.6914 80.1172 12.2168 79.9961 12.6504 79.7539C13.0879 79.5117 13.4121 79.2383 13.623 78.9336L12.873 78.207C12.6777 78.457 12.4297 78.6504 12.1289 78.7871C11.8281 78.9199 11.5039 78.9863 11.1562 78.9863C10.9023 78.9863 10.668 78.9434 10.4531 78.8574C10.2422 78.7715 10.0586 78.6504 9.90234 78.4941C9.74609 78.3457 9.62305 78.1777 9.5332 77.9902C9.44336 77.8027 9.37695 77.5703 9.33398 77.293V77.2637H13.7285V76.6602C13.7285 76.207 13.668 75.7891 13.5469 75.4062C13.4258 75.0234 13.2461 74.6934 13.0078 74.416C12.7695 74.1426 12.4746 73.9297 12.123 73.7773C11.7715 73.6211 11.3672 73.543 10.9102 73.543C10.5 73.543 10.1133 73.6211 9.75 73.7773C9.39062 73.9297 9.07422 74.1484 8.80078 74.4336C8.52734 74.7188 8.3125 75.0625 8.15625 75.4648C8 75.8672 7.92188 76.3164 7.92188 76.8125V77.0527C7.92188 77.4863 7.99609 77.8906 8.14453 78.2656C8.29688 78.6367 8.51172 78.959 8.78906 79.2324C9.06641 79.5098 9.39844 79.7266 9.78516 79.8828C10.1758 80.0391 10.6055 80.1172 11.0742 80.1172ZM10.9043 74.6797C11.1387 74.6797 11.3438 74.7207 11.5195 74.8027C11.6992 74.8809 11.8477 74.9863 11.9648 75.1191C12.0859 75.2559 12.1797 75.416 12.2461 75.5996C12.3125 75.7793 12.3457 75.9609 12.3457 76.1445V76.2383H9.36328C9.40625 75.9961 9.47266 75.7793 9.5625 75.5879C9.65234 75.3965 9.76367 75.2324 9.89648 75.0957C10.0293 74.9629 10.1797 74.8613 10.3477 74.791C10.5195 74.7168 10.7051 74.6797 10.9043 74.6797ZM18.1348 72.1133H16.7285V73.6602H15.1934V74.709H16.7285V77.8262C16.7285 78.2324 16.7812 78.5801 16.8867 78.8691C16.9961 79.1582 17.1465 79.3945 17.3379 79.5781C17.5293 79.7656 17.7578 79.9043 18.0234 79.9941C18.293 80.0801 18.5879 80.123 18.9082 80.123C19.084 80.123 19.2598 80.1133 19.4355 80.0938C19.6152 80.0781 19.7871 80.0547 19.9512 80.0234C20.1152 79.9922 20.2676 79.9551 20.4082 79.9121C20.5527 79.8652 20.6758 79.8105 20.7773 79.748L20.625 78.7812C20.5547 78.7969 20.4668 78.8164 20.3613 78.8398C20.2598 78.8594 20.1504 78.877 20.0332 78.8926C19.9121 78.9121 19.7871 78.9277 19.6582 78.9395C19.5293 78.9512 19.4043 78.957 19.2832 78.957C19.1152 78.957 18.9609 78.9375 18.8203 78.8984C18.6797 78.8594 18.5586 78.793 18.457 78.6992C18.3555 78.6094 18.2754 78.4863 18.2168 78.3301C18.1621 78.1699 18.1348 77.9727 18.1348 77.7383V74.709H20.5195V73.6602H18.1348V72.1133ZM26.0684 71.8145V70.8652H24.8672V71.8203C24.8672 72.1836 24.8203 72.5117 24.7266 72.8047C24.6328 73.0938 24.5039 73.3691 24.3398 73.6309L25.0195 74.0762C25.1758 73.9395 25.3164 73.7812 25.4414 73.6016C25.5703 73.418 25.6836 73.2266 25.7812 73.0273C25.8711 72.8281 25.9414 72.625 25.9922 72.418C26.043 72.207 26.0684 72.0059 26.0684 71.8145ZM33.8789 78.2832C33.8789 78.3848 33.8555 78.4785 33.8086 78.5645C33.7656 78.6465 33.6992 78.7227 33.6094 78.793C33.5 78.8789 33.3535 78.9473 33.1699 78.998C32.9902 79.0488 32.7793 79.0742 32.5371 79.0742C32.3574 79.0742 32.1797 79.0566 32.0039 79.0215C31.8281 78.9824 31.6719 78.9199 31.5352 78.834C31.3945 78.752 31.2773 78.6445 31.1836 78.5117C31.0938 78.375 31.043 78.209 31.0312 78.0137H29.6719C29.6719 78.2754 29.7344 78.5332 29.8594 78.7871C29.9844 79.041 30.168 79.2656 30.4102 79.4609C30.6484 79.6602 30.9434 79.8203 31.2949 79.9414C31.6504 80.0625 32.0566 80.123 32.5137 80.123C32.9238 80.123 33.2969 80.0762 33.6328 79.9824C33.9688 79.8887 34.2578 79.7578 34.5 79.5898C34.7383 79.4219 34.9219 79.2207 35.0508 78.9863C35.1836 78.752 35.25 78.4941 35.25 78.2129C35.25 77.9238 35.1875 77.6738 35.0625 77.4629C34.9375 77.252 34.7617 77.0684 34.5352 76.9121C34.3086 76.7637 34.0352 76.6387 33.7148 76.5371C33.3945 76.4355 33.041 76.3496 32.6543 76.2793C32.377 76.2324 32.1465 76.1797 31.9629 76.1211C31.7832 76.0625 31.6426 75.998 31.541 75.9277C31.4316 75.8613 31.3555 75.7852 31.3125 75.6992C31.2695 75.6094 31.248 75.5098 31.248 75.4004C31.248 75.2949 31.2734 75.1953 31.3242 75.1016C31.375 75.0039 31.4512 74.9199 31.5527 74.8496C31.6543 74.7715 31.7832 74.7109 31.9395 74.668C32.0996 74.6211 32.2852 74.5977 32.4961 74.5977C32.7266 74.5977 32.9277 74.6289 33.0996 74.6914C33.2715 74.75 33.4121 74.8301 33.5215 74.9316C33.6152 75.0176 33.6855 75.1152 33.7324 75.2246C33.7832 75.3301 33.8086 75.4414 33.8086 75.5586H35.209C35.209 75.2734 35.1465 75.0078 35.0215 74.7617C34.8965 74.5156 34.7188 74.3027 34.4883 74.123C34.2539 73.9434 33.9688 73.8027 33.6328 73.7012C33.2969 73.5957 32.918 73.543 32.4961 73.543C32.1016 73.543 31.7422 73.5938 31.418 73.6953C31.0977 73.7969 30.8242 73.9355 30.5977 74.1113C30.3672 74.2871 30.1895 74.4922 30.0645 74.7266C29.9434 74.957 29.8828 75.2012 29.8828 75.459C29.8828 75.7285 29.9434 75.9648 30.0645 76.168C30.1855 76.3711 30.3535 76.5469 30.5684 76.6953C30.7871 76.8516 31.0469 76.9844 31.3477 77.0938C31.6523 77.2031 31.9883 77.2949 32.3555 77.3691C32.6484 77.4238 32.8926 77.4824 33.0879 77.5449C33.2832 77.6074 33.4414 77.6738 33.5625 77.7441C33.6758 77.8223 33.7559 77.9043 33.8027 77.9902C33.8535 78.0762 33.8789 78.1738 33.8789 78.2832ZM43.9688 76.7832V76.9062C43.9688 77.3633 44.0273 77.7891 44.1445 78.1836C44.2656 78.5742 44.4355 78.9121 44.6543 79.1973C44.877 79.4863 45.1445 79.7129 45.457 79.877C45.7695 80.0371 46.1211 80.1172 46.5117 80.1172C46.7266 80.1172 46.9258 80.0938 47.1094 80.0469C47.293 80.0039 47.4609 79.9395 47.6133 79.8535C47.7148 79.7988 47.8086 79.7344 47.8945 79.6602C47.9844 79.5859 48.0703 79.5059 48.1523 79.4199V79.8594C48.1523 80.0977 48.1172 80.3105 48.0469 80.498C47.9805 80.6855 47.8848 80.8438 47.7598 80.9727C47.623 81.1055 47.457 81.207 47.2617 81.2773C47.0703 81.3477 46.8496 81.3828 46.5996 81.3828C46.4551 81.3828 46.3125 81.3672 46.1719 81.3359C46.0312 81.3086 45.8926 81.2637 45.7559 81.2012C45.6191 81.1387 45.4844 81.0566 45.3516 80.9551C45.2227 80.8574 45.1016 80.7402 44.9883 80.6035L44.3262 81.4531C44.4668 81.6406 44.6348 81.8008 44.8301 81.9336C45.0254 82.0664 45.2305 82.1738 45.4453 82.2559C45.6602 82.3379 45.875 82.3984 46.0898 82.4375C46.3047 82.4766 46.502 82.4961 46.6816 82.4961C47.1074 82.4961 47.4961 82.4355 47.8477 82.3145C48.2031 82.1973 48.5078 82.0254 48.7617 81.7988C49.0117 81.5684 49.2051 81.2871 49.3418 80.9551C49.4824 80.627 49.5527 80.25 49.5527 79.8242V73.6602H48.2812L48.2227 74.2988C48.1445 74.2051 48.0605 74.1191 47.9707 74.041C47.8809 73.959 47.7852 73.8887 47.6836 73.8301C47.5273 73.7363 47.3535 73.666 47.1621 73.6191C46.9707 73.5684 46.7578 73.543 46.5234 73.543C46.1289 73.543 45.7734 73.623 45.457 73.7832C45.1445 73.9395 44.877 74.1602 44.6543 74.4453C44.4316 74.7305 44.2617 75.0723 44.1445 75.4707C44.0273 75.8652 43.9688 76.3027 43.9688 76.7832ZM45.375 76.9062V76.7832C45.375 76.498 45.4043 76.2305 45.4629 75.9805C45.5215 75.7266 45.6133 75.5039 45.7383 75.3125C45.8594 75.1211 46.0137 74.9707 46.2012 74.8613C46.3887 74.752 46.6133 74.6973 46.875 74.6973C47.0234 74.6973 47.1602 74.7148 47.2852 74.75C47.4102 74.7812 47.5234 74.8242 47.625 74.8789C47.7383 74.9453 47.8379 75.0254 47.9238 75.1191C48.0137 75.2129 48.0898 75.3184 48.1523 75.4355V78.2129C48.0898 78.3262 48.0176 78.4297 47.9355 78.5234C47.8535 78.6172 47.7598 78.6973 47.6543 78.7637C47.5488 78.8262 47.4297 78.875 47.2969 78.9102C47.168 78.9453 47.0234 78.9629 46.8633 78.9629C46.6055 78.9629 46.3828 78.9102 46.1953 78.8047C46.0078 78.6953 45.8535 78.5449 45.7324 78.3535C45.6074 78.1699 45.5156 77.9531 45.457 77.7031C45.4023 77.4531 45.375 77.1875 45.375 76.9062ZM51.0996 76.7715V76.8945C51.0996 77.3594 51.166 77.7871 51.2988 78.1777C51.4316 78.5684 51.625 78.9082 51.8789 79.1973C52.1289 79.4863 52.4375 79.7129 52.8047 79.877C53.1719 80.041 53.5879 80.123 54.0527 80.123C54.5137 80.123 54.9258 80.041 55.2891 79.877C55.6562 79.7129 55.9648 79.4863 56.2148 79.1973C56.4648 78.9082 56.6562 78.5684 56.7891 78.1777C56.9219 77.7871 56.9883 77.3594 56.9883 76.8945V76.7715C56.9883 76.3105 56.9219 75.8848 56.7891 75.4941C56.6562 75.0996 56.4648 74.7578 56.2148 74.4688C55.9609 74.1797 55.6504 73.9531 55.2832 73.7891C54.9199 73.625 54.5059 73.543 54.041 73.543C53.5762 73.543 53.1621 73.625 52.7988 73.7891C52.4355 73.9531 52.1289 74.1797 51.8789 74.4688C51.625 74.7578 51.4316 75.0996 51.2988 75.4941C51.166 75.8848 51.0996 76.3105 51.0996 76.7715ZM52.5 76.8945V76.7715C52.5 76.4941 52.5293 76.2285 52.5879 75.9746C52.6504 75.7207 52.7461 75.498 52.875 75.3066C53 75.1152 53.1582 74.9629 53.3496 74.8496C53.5449 74.7363 53.7754 74.6797 54.041 74.6797C54.3105 74.6797 54.541 74.7363 54.7324 74.8496C54.9277 74.9629 55.0898 75.1152 55.2188 75.3066C55.3398 75.498 55.4316 75.7207 55.4941 75.9746C55.5566 76.2285 55.5879 76.4941 55.5879 76.7715V76.8945C55.5879 77.1797 55.5566 77.4492 55.4941 77.7031C55.4355 77.957 55.3438 78.1797 55.2188 78.3711C55.0938 78.5625 54.9336 78.7148 54.7383 78.8281C54.543 78.9375 54.3145 78.9922 54.0527 78.9922C53.7832 78.9922 53.5508 78.9375 53.3555 78.8281C53.1602 78.7148 53 78.5625 52.875 78.3711C52.7461 78.1797 52.6504 77.957 52.5879 77.7031C52.5293 77.4492 52.5 77.1797 52.5 76.8945ZM71.3438 76.8945V76.7715C71.3438 76.4121 71.3105 76.0723 71.2441 75.752C71.1816 75.4316 71.0879 75.1406 70.9629 74.8789C70.8691 74.6914 70.7598 74.5195 70.6348 74.3633C70.5137 74.2031 70.375 74.0684 70.2188 73.959C70.0352 73.8262 69.8281 73.7246 69.5977 73.6543C69.3711 73.5801 69.1211 73.543 68.8477 73.543C68.6406 73.543 68.4473 73.5645 68.2676 73.6074C68.0918 73.6465 67.9297 73.707 67.7812 73.7891C67.668 73.8516 67.5625 73.9238 67.4648 74.0059C67.3672 74.0879 67.2773 74.1797 67.1953 74.2812V71H65.7949V80H67.0605L67.125 79.3086C67.1953 79.3945 67.2676 79.4746 67.3418 79.5488C67.4199 79.6191 67.502 79.6855 67.5879 79.748C67.7559 79.8691 67.9453 79.9609 68.1562 80.0234C68.3672 80.0859 68.6016 80.1172 68.8594 80.1172C69.1133 80.1172 69.3477 80.084 69.5625 80.0176C69.7812 79.9551 69.9785 79.8652 70.1543 79.748C70.373 79.6035 70.5605 79.4219 70.7168 79.2031C70.873 78.9844 70.998 78.7402 71.0918 78.4707C71.1738 78.2441 71.2363 77.998 71.2793 77.7324C71.3223 77.4668 71.3438 77.1875 71.3438 76.8945ZM69.9434 76.7715V76.8945C69.9434 77.0703 69.9336 77.2402 69.9141 77.4043C69.8945 77.5684 69.8652 77.7207 69.8262 77.8613C69.7793 78.0488 69.7109 78.2188 69.6211 78.3711C69.5352 78.5195 69.4238 78.6426 69.2871 78.7402C69.1855 78.8105 69.0703 78.8672 68.9414 78.9102C68.8125 78.9492 68.668 78.9688 68.5078 78.9688C68.332 78.9688 68.1719 78.9473 68.0273 78.9043C67.8867 78.8574 67.7617 78.7949 67.6523 78.7168C67.5547 78.6426 67.4668 78.5586 67.3887 78.4648C67.3145 78.3672 67.25 78.2598 67.1953 78.1426V75.5176C67.2422 75.416 67.2969 75.3223 67.3594 75.2363C67.4258 75.1465 67.5 75.0684 67.582 75.002C67.6953 74.9043 67.8281 74.8301 67.9805 74.7793C68.1328 74.7246 68.3047 74.6973 68.4961 74.6973C68.6523 74.6973 68.793 74.7148 68.918 74.75C69.043 74.7852 69.1543 74.8379 69.252 74.9082C69.4004 75.0098 69.5176 75.1348 69.6035 75.2832C69.6934 75.4277 69.7656 75.5898 69.8203 75.7695C69.8594 75.918 69.8887 76.0781 69.9082 76.25C69.9316 76.418 69.9434 76.5918 69.9434 76.7715ZM77.0273 80H78.457V79.9004C78.3789 79.7363 78.3184 79.541 78.2754 79.3145C78.2363 79.084 78.2168 78.8262 78.2168 78.541V75.7227C78.2168 75.3633 78.1504 75.0469 78.0176 74.7734C77.8848 74.4961 77.7012 74.2676 77.4668 74.0879C77.2324 73.9082 76.9531 73.7734 76.6289 73.6836C76.3086 73.5898 75.9629 73.543 75.5918 73.543C75.1777 73.543 74.8086 73.5977 74.4844 73.707C74.1641 73.8125 73.8945 73.957 73.6758 74.1406C73.4492 74.3203 73.2773 74.5273 73.1602 74.7617C73.043 74.9961 72.9824 75.2402 72.9785 75.4941H74.3848C74.3848 75.373 74.4062 75.2598 74.4492 75.1543C74.4961 75.0449 74.5664 74.9531 74.6602 74.8789C74.7539 74.7969 74.8711 74.7324 75.0117 74.6855C75.1562 74.6387 75.3242 74.6152 75.5156 74.6152C75.7266 74.6152 75.9121 74.6426 76.0723 74.6973C76.2363 74.748 76.375 74.8223 76.4883 74.9199C76.5938 75.0176 76.6738 75.1328 76.7285 75.2656C76.7871 75.3984 76.8164 75.5469 76.8164 75.7109V76.1387H75.7969C75.3398 76.1387 74.9297 76.1816 74.5664 76.2676C74.207 76.3535 73.9043 76.4785 73.6582 76.6426C73.3926 76.8184 73.1895 77.041 73.0488 77.3105C72.9121 77.5762 72.8438 77.8828 72.8438 78.2305C72.8438 78.5 72.8965 78.752 73.002 78.9863C73.1113 79.2168 73.2637 79.4141 73.459 79.5781C73.6504 79.7461 73.8809 79.8789 74.1504 79.9766C74.4238 80.0703 74.7246 80.1172 75.0527 80.1172C75.2559 80.1172 75.4453 80.0977 75.6211 80.0586C75.7969 80.0195 75.9609 79.9648 76.1133 79.8945C76.2656 79.8281 76.4023 79.75 76.5234 79.6602C76.6484 79.5664 76.7598 79.4688 76.8574 79.3672C76.877 79.4883 76.8984 79.6055 76.9219 79.7188C76.9492 79.8281 76.9844 79.9219 77.0273 80ZM75.3223 78.9922C75.1426 78.9922 74.9863 78.9707 74.8535 78.9277C74.7207 78.8809 74.6094 78.8184 74.5195 78.7402C74.4297 78.6621 74.3613 78.5684 74.3145 78.459C74.2676 78.3457 74.2441 78.2246 74.2441 78.0957C74.2441 77.9395 74.2715 77.7988 74.3262 77.6738C74.3848 77.5488 74.4727 77.4414 74.5898 77.3516C74.7227 77.2461 74.9004 77.166 75.123 77.1113C75.3457 77.0527 75.6094 77.0234 75.9141 77.0234H76.8164V78.1953C76.7656 78.2969 76.6934 78.3945 76.5996 78.4883C76.5059 78.582 76.3945 78.666 76.2656 78.7402C76.1367 78.8145 75.9922 78.875 75.832 78.9219C75.6758 78.9688 75.5059 78.9922 75.3223 78.9922ZM82.9453 78.9922C82.6523 78.9922 82.4082 78.9336 82.2129 78.8164C82.0176 78.6992 81.8633 78.543 81.75 78.3477C81.6328 78.1602 81.5488 77.9434 81.498 77.6973C81.4512 77.4473 81.4277 77.1934 81.4277 76.9355V76.7305C81.4277 76.4766 81.4512 76.2266 81.498 75.9805C81.5488 75.7344 81.6348 75.5156 81.7559 75.3242C81.8691 75.1328 82.0215 74.9785 82.2129 74.8613C82.4082 74.7402 82.6523 74.6797 82.9453 74.6797C83.1367 74.6797 83.3145 74.7129 83.4785 74.7793C83.6465 74.8457 83.791 74.9355 83.9121 75.0488C84.0293 75.1621 84.1191 75.2949 84.1816 75.4473C84.248 75.5996 84.2812 75.7617 84.2812 75.9336H85.5996C85.6035 75.582 85.5391 75.2598 85.4062 74.9668C85.2773 74.6738 85.0957 74.4219 84.8613 74.2109C84.627 74 84.3457 73.8359 84.0176 73.7188C83.6934 73.6016 83.3398 73.543 82.957 73.543C82.4727 73.543 82.0469 73.6289 81.6797 73.8008C81.3164 73.9688 81.0117 74.1973 80.7656 74.4863C80.5195 74.7754 80.334 75.1133 80.209 75.5C80.0879 75.8867 80.0273 76.2969 80.0273 76.7305V76.9355C80.0273 77.373 80.0898 77.7852 80.2148 78.1719C80.3398 78.5547 80.5254 78.8906 80.7715 79.1797C81.0137 79.4688 81.3164 79.6992 81.6797 79.8711C82.0469 80.0391 82.4746 80.123 82.9629 80.123C83.3145 80.123 83.6484 80.0664 83.9648 79.9531C84.2852 79.8359 84.5684 79.6758 84.8145 79.4727C85.0566 79.2773 85.248 79.0449 85.3887 78.7754C85.5332 78.502 85.6035 78.2109 85.5996 77.9023H84.2812C84.2812 78.0625 84.2441 78.209 84.1699 78.3418C84.0996 78.4746 84.0039 78.5898 83.8828 78.6875C83.7578 78.7852 83.6133 78.8613 83.4492 78.916C83.2891 78.9668 83.1211 78.9922 82.9453 78.9922ZM89.5723 77.2402L91.5938 80H93.3281L90.5039 76.3027L92.9707 73.6602H91.2832L89.3906 75.6523L88.8105 76.2969V71H87.4043V80H88.8105V77.9609L89.5723 77.2402ZM103.207 74.5625V71H101.807V80H103.207V75.4121C103.273 75.3105 103.35 75.2188 103.436 75.1367C103.525 75.0547 103.621 74.9844 103.723 74.9258C103.844 74.8516 103.977 74.7949 104.121 74.7559C104.27 74.7168 104.426 74.6973 104.59 74.6973C104.801 74.6973 104.986 74.7266 105.146 74.7852C105.311 74.8398 105.449 74.9258 105.562 75.043C105.672 75.1523 105.754 75.2949 105.809 75.4707C105.867 75.6465 105.896 75.8516 105.896 76.0859V80H107.297V76.0977C107.297 75.6484 107.242 75.2637 107.133 74.9434C107.027 74.6191 106.877 74.3535 106.682 74.1465C106.486 73.9395 106.25 73.7871 105.973 73.6895C105.699 73.5918 105.396 73.543 105.064 73.543C104.826 73.543 104.6 73.5781 104.385 73.6484C104.174 73.7148 103.98 73.8125 103.805 73.9414C103.691 74.0195 103.584 74.1113 103.482 74.2168C103.381 74.3223 103.289 74.4375 103.207 74.5625ZM108.756 76.7715V76.8945C108.756 77.3594 108.822 77.7871 108.955 78.1777C109.088 78.5684 109.281 78.9082 109.535 79.1973C109.785 79.4863 110.094 79.7129 110.461 79.877C110.828 80.041 111.244 80.123 111.709 80.123C112.17 80.123 112.582 80.041 112.945 79.877C113.312 79.7129 113.621 79.4863 113.871 79.1973C114.121 78.9082 114.312 78.5684 114.445 78.1777C114.578 77.7871 114.645 77.3594 114.645 76.8945V76.7715C114.645 76.3105 114.578 75.8848 114.445 75.4941C114.312 75.0996 114.121 74.7578 113.871 74.4688C113.617 74.1797 113.307 73.9531 112.939 73.7891C112.576 73.625 112.162 73.543 111.697 73.543C111.232 73.543 110.818 73.625 110.455 73.7891C110.092 73.9531 109.785 74.1797 109.535 74.4688C109.281 74.7578 109.088 75.0996 108.955 75.4941C108.822 75.8848 108.756 76.3105 108.756 76.7715ZM110.156 76.8945V76.7715C110.156 76.4941 110.186 76.2285 110.244 75.9746C110.307 75.7207 110.402 75.498 110.531 75.3066C110.656 75.1152 110.814 74.9629 111.006 74.8496C111.201 74.7363 111.432 74.6797 111.697 74.6797C111.967 74.6797 112.197 74.7363 112.389 74.8496C112.584 74.9629 112.746 75.1152 112.875 75.3066C112.996 75.498 113.088 75.7207 113.15 75.9746C113.213 76.2285 113.244 76.4941 113.244 76.7715V76.8945C113.244 77.1797 113.213 77.4492 113.15 77.7031C113.092 77.957 113 78.1797 112.875 78.3711C112.75 78.5625 112.59 78.7148 112.395 78.8281C112.199 78.9375 111.971 78.9922 111.709 78.9922C111.439 78.9922 111.207 78.9375 111.012 78.8281C110.816 78.7148 110.656 78.5625 110.531 78.3711C110.402 78.1797 110.307 77.957 110.244 77.7031C110.186 77.4492 110.156 77.1797 110.156 76.8945ZM117.018 73.6602H115.799V80H117.088V75.1309C117.111 75.0723 117.137 75.0195 117.164 74.9727C117.195 74.9258 117.23 74.8848 117.27 74.8496C117.32 74.7988 117.381 74.7617 117.451 74.7383C117.525 74.7109 117.609 74.6973 117.703 74.6973C117.789 74.6973 117.865 74.709 117.932 74.7324C118.002 74.7559 118.062 74.793 118.113 74.8438C118.164 74.8945 118.201 74.9648 118.225 75.0547C118.252 75.1406 118.266 75.2461 118.266 75.3711V80H119.531V75.2949C119.531 75.2559 119.531 75.2266 119.531 75.207C119.531 75.1836 119.531 75.1641 119.531 75.1484C119.547 75.082 119.57 75.0234 119.602 74.9727C119.633 74.918 119.672 74.8711 119.719 74.832C119.77 74.7891 119.828 74.7559 119.895 74.7324C119.961 74.709 120.039 74.6973 120.129 74.6973C120.215 74.6973 120.293 74.709 120.363 74.7324C120.438 74.7559 120.5 74.793 120.551 74.8438C120.602 74.8984 120.641 74.9707 120.668 75.0605C120.695 75.1465 120.709 75.252 120.709 75.377V80H121.998V75.3887C121.998 75.0566 121.963 74.7734 121.893 74.5391C121.826 74.3008 121.73 74.1074 121.605 73.959C121.48 73.8184 121.332 73.7148 121.16 73.6484C120.992 73.5781 120.807 73.543 120.604 73.543C120.447 73.543 120.303 73.5625 120.17 73.6016C120.041 73.6406 119.924 73.6953 119.818 73.7656C119.736 73.8203 119.66 73.8867 119.59 73.9648C119.52 74.043 119.457 74.127 119.402 74.2168C119.363 74.1191 119.316 74.0332 119.262 73.959C119.207 73.8809 119.145 73.8145 119.074 73.7598C118.984 73.6855 118.877 73.6309 118.752 73.5957C118.627 73.5605 118.486 73.543 118.33 73.543C118.029 73.543 117.771 73.6152 117.557 73.7598C117.346 73.9043 117.18 74.1035 117.059 74.3574L117.018 73.6602ZM126.387 80.1172C127.004 80.1172 127.529 79.9961 127.963 79.7539C128.4 79.5117 128.725 79.2383 128.936 78.9336L128.186 78.207C127.99 78.457 127.742 78.6504 127.441 78.7871C127.141 78.9199 126.816 78.9863 126.469 78.9863C126.215 78.9863 125.98 78.9434 125.766 78.8574C125.555 78.7715 125.371 78.6504 125.215 78.4941C125.059 78.3457 124.936 78.1777 124.846 77.9902C124.756 77.8027 124.689 77.5703 124.646 77.293V77.2637H129.041V76.6602C129.041 76.207 128.98 75.7891 128.859 75.4062C128.738 75.0234 128.559 74.6934 128.32 74.416C128.082 74.1426 127.787 73.9297 127.436 73.7773C127.084 73.6211 126.68 73.543 126.223 73.543C125.812 73.543 125.426 73.6211 125.062 73.7773C124.703 73.9297 124.387 74.1484 124.113 74.4336C123.84 74.7188 123.625 75.0625 123.469 75.4648C123.312 75.8672 123.234 76.3164 123.234 76.8125V77.0527C123.234 77.4863 123.309 77.8906 123.457 78.2656C123.609 78.6367 123.824 78.959 124.102 79.2324C124.379 79.5098 124.711 79.7266 125.098 79.8828C125.488 80.0391 125.918 80.1172 126.387 80.1172ZM126.217 74.6797C126.451 74.6797 126.656 74.7207 126.832 74.8027C127.012 74.8809 127.16 74.9863 127.277 75.1191C127.398 75.2559 127.492 75.416 127.559 75.5996C127.625 75.7793 127.658 75.9609 127.658 76.1445V76.2383H124.676C124.719 75.9961 124.785 75.7793 124.875 75.5879C124.965 75.3965 125.076 75.2324 125.209 75.0957C125.342 74.9629 125.492 74.8613 125.66 74.791C125.832 74.7168 126.018 74.6797 126.217 74.6797ZM133.945 77.1113L133.998 71.4688H132.568L132.627 77.1113H133.945ZM132.457 79.2969C132.457 79.5195 132.529 79.7051 132.674 79.8535C132.818 80.002 133.023 80.0762 133.289 80.0762C133.551 80.0762 133.756 80.002 133.904 79.8535C134.053 79.7051 134.127 79.5195 134.127 79.2969C134.127 79.0703 134.053 78.8809 133.904 78.7285C133.756 78.5762 133.551 78.5 133.289 78.5C133.023 78.5 132.818 78.5762 132.674 78.7285C132.529 78.8809 132.457 79.0703 132.457 79.2969Z" fill="#35393C"/>
<path fill-rule="evenodd" clip-rule="evenodd" d="M276.763 241.017C276.763 245.978 251.014 250 219.249 250C187.484 250 161.731 245.978 161.731 241.017C161.731 236.056 187.484 232.034 219.249 232.034C251.014 232.034 276.763 236.056 276.763 241.017Z" fill="#B8BACF" fill-opacity="0.25"/>
<path fill-rule="evenodd" clip-rule="evenodd" d="M266.466 54.8601C251.519 33.1196 215.171 33.1196 215.171 33.1196C215.171 33.1196 178.824 33.1196 163.877 54.8601C150.161 74.813 150.292 102.078 150.292 102.078L163.539 119.062H266.803L280.055 102.078C280.055 102.078 280.182 74.813 266.466 54.8601Z" fill="#98BDFE"/>
<path fill-rule="evenodd" clip-rule="evenodd" d="M266.486 54.86C260.626 46.3366 251.476 41.1557 242.518 38.0054C247.153 40.8898 251.371 44.5664 254.597 49.255C268.313 69.208 268.182 96.4726 268.182 96.4726L254.934 113.457H159.187L163.559 119.062H266.826L280.074 102.078C280.074 102.078 280.202 74.813 266.486 54.86Z" fill="#8087DE"/>
<path fill-rule="evenodd" clip-rule="evenodd" d="M248.122 59.276C234.193 48.7452 196.149 48.7452 182.22 59.276C167.102 70.7084 167.613 98.0009 167.613 98.0009H262.729C262.729 98.0009 263.243 70.7084 248.122 59.276Z" fill="#002B43"/>
<path fill-rule="evenodd" clip-rule="evenodd" d="M168.013 98.0009C168.943 89.0968 172.035 74.1958 182.22 66.493C196.149 55.9632 234.193 55.9632 248.122 66.493C258.308 74.1958 261.399 89.0968 262.333 98.0009H262.729C262.729 98.0009 263.243 70.7084 248.122 59.276C234.193 48.7452 196.149 48.7452 182.22 59.276C167.102 70.7084 167.613 98.0009 167.613 98.0009H168.013Z" fill="#000F16"/>
<path fill-rule="evenodd" clip-rule="evenodd" d="M228.59 37.1957C228.59 38.3214 227.676 39.2338 226.553 39.2338H203.791C202.667 39.2338 201.753 38.3214 201.753 37.1957V30.0628C201.753 28.9372 202.667 28.0244 203.791 28.0244H226.553C227.676 28.0244 228.59 28.9372 228.59 30.0628V37.1957Z" fill="#98BDFE"/>
<path fill-rule="evenodd" clip-rule="evenodd" d="M209.112 33.4591L212.168 4.92505H216.245L221.23 33.6291L209.112 33.4591Z" fill="#98BDFE"/>
<path fill-rule="evenodd" clip-rule="evenodd" d="M219.249 4.92511C219.249 7.64541 217.042 9.85087 214.323 9.85087C211.602 9.85087 209.397 7.64541 209.397 4.92511C209.397 2.20481 211.602 0 214.323 0C217.042 0 219.249 2.20481 219.249 4.92511Z" fill="#98BDFE"/>
<path fill-rule="evenodd" clip-rule="evenodd" d="M217.395 1.07812C217.713 1.72725 217.89 2.45629 217.89 3.22659C217.89 5.9469 215.682 8.15203 212.964 8.15203C211.801 8.15203 210.73 7.74788 209.889 7.07386C210.688 8.71731 212.371 9.85082 214.323 9.85082C217.041 9.85082 219.249 7.64537 219.249 4.92507C219.249 3.36808 218.525 1.98074 217.395 1.07812Z" fill="#8087DE"/>
<path fill-rule="evenodd" clip-rule="evenodd" d="M163.539 119.062H266.803L280.054 102.078H150.292L163.539 119.062Z" fill="#8087DE"/>
<path fill-rule="evenodd" clip-rule="evenodd" d="M228.59 33.8606C228.59 34.5769 228.134 35.1579 227.571 35.1579H216.19C215.627 35.1579 215.171 34.5769 215.171 33.8606V29.321C215.171 28.6048 215.627 28.0244 216.19 28.0244H227.571C228.134 28.0244 228.59 28.6048 228.59 29.321V33.8606Z" fill="#8087DE"/>
<path fill-rule="evenodd" clip-rule="evenodd" d="M194.846 42.4897C193.189 39.3223 185.702 41.1361 183.255 42.2909C181.254 43.2351 177.638 45.3262 175.333 47.5441C173.502 49.0022 171.868 50.6981 170.446 52.6101C169.264 54.1985 167.037 57.4713 168.465 59.5569C170.037 61.8508 172.69 59.8621 174.006 58.538C177.435 55.0906 180.069 51.3973 184.719 49.2976C187.005 48.2653 196.798 46.223 194.846 42.4897Z" fill="white"/>
<path fill-rule="evenodd" clip-rule="evenodd" d="M285.56 157.54L265.379 122.731H164.964L144.783 157.54C144.783 157.54 145.647 172.043 150.514 185.302C157.998 205.684 165.131 213.836 165.131 213.836L189.832 223.375L214.945 225.684V225.725C214.945 225.725 215.116 225.704 215.171 225.704C215.227 225.704 215.397 225.725 215.397 225.725V225.684L240.511 223.375L265.212 213.836C265.212 213.836 274.172 202.286 279.828 185.302C284.289 171.901 285.56 157.54 285.56 157.54Z" fill="#98BDFE"/>
<path fill-rule="evenodd" clip-rule="evenodd" d="M265.379 122.731H241.598L261.783 157.54C261.783 157.54 260.512 171.901 256.051 185.302C250.395 202.286 247.863 209.051 241.434 213.836C236.122 217.788 216.73 223.375 216.73 223.375L203.283 224.611L214.945 225.684V225.725C214.945 225.725 215.116 225.704 215.171 225.704C215.227 225.704 215.397 225.725 215.397 225.725V225.684L240.511 223.375L265.212 213.836C265.212 213.836 274.172 202.286 279.829 185.302C284.289 171.901 285.56 157.54 285.56 157.54L265.379 122.731Z" fill="#8087DE"/>
<path fill-rule="evenodd" clip-rule="evenodd" d="M144.783 157.54H285.56L280.074 167.978L144.783 157.54Z" fill="#8087DE"/>
<path fill-rule="evenodd" clip-rule="evenodd" d="M173.044 180.622C172.641 175.571 176.09 168.607 170.325 165.94C167.365 164.571 162.36 164.008 160.068 166.95C159.223 168.033 158.797 169.398 158.718 170.812C157.893 174.416 159.832 179.686 160.739 182.915C161.804 186.715 165.504 200.084 172.313 196.444C176.954 193.963 173.339 184.362 173.044 180.622Z" fill="white"/>
<path fill-rule="evenodd" clip-rule="evenodd" d="M180.449 130C177.387 125.631 173.076 127.086 170.011 130.257C163.189 134.41 155.944 151.379 166.258 153.039C172.205 153.996 174.026 146.749 176.04 142.832C177.891 139.24 183.455 134.289 180.449 130Z" fill="white"/>
<path fill-rule="evenodd" clip-rule="evenodd" d="M289.742 155.319C289.742 155.319 304.163 172.227 311.057 177.185C316.29 180.945 321.098 161.611 303.131 143.748C285.56 126.28 270.852 123.059 270.852 123.059L289.742 155.319Z" fill="#98BDFE"/>
<path fill-rule="evenodd" clip-rule="evenodd" d="M303.131 143.748C285.56 126.28 270.852 123.059 270.852 123.059L272.424 125.743C278.057 128.847 285.291 133.792 293.086 141.543C305.158 153.543 306.95 166.207 305.237 172.087C307.405 174.197 309.439 176.02 311.06 177.185C316.29 180.945 321.098 161.611 303.131 143.748Z" fill="#8087DE"/>
<path fill-rule="evenodd" clip-rule="evenodd" d="M141.491 154.532C141.491 154.532 126.613 171.037 119.581 175.803C114.249 179.418 109.975 159.959 128.427 142.596C146.47 125.619 161.263 122.803 161.263 122.803L141.491 154.532Z" fill="#98BDFE"/>
<path fill-rule="evenodd" clip-rule="evenodd" d="M128.427 142.596C146.47 125.619 161.263 122.803 161.263 122.803L159.616 125.444C153.901 128.391 146.535 133.135 138.527 140.669C126.131 152.332 123.992 164.943 125.542 170.868C123.318 172.916 121.235 174.683 119.581 175.803C114.249 179.418 109.975 159.959 128.427 142.596Z" fill="#8087DE"/>
<path fill-rule="evenodd" clip-rule="evenodd" d="M164.85 216.842C164.85 216.842 173.814 240.226 181.323 240.991C188.83 241.755 189.049 225.725 189.049 225.725L164.85 216.842Z" fill="#98BDFE"/>
<path fill-rule="evenodd" clip-rule="evenodd" d="M183.01 223.414C182.921 225.683 182.227 236.75 176.951 238.153C178.493 239.765 180.065 240.837 181.578 240.991C189.085 241.755 189.304 225.725 189.304 225.725L183.01 223.414Z" fill="#8087DE"/>
<path fill-rule="evenodd" clip-rule="evenodd" d="M267.865 215.344C267.865 215.344 260.715 239.345 253.284 240.68C245.856 242.016 244.412 226.05 244.412 226.05L267.865 215.344Z" fill="#98BDFE"/>
<path fill-rule="evenodd" clip-rule="evenodd" d="M250.261 223.284C250.519 225.54 252.059 236.521 257.427 237.517C256.012 239.242 254.525 240.431 253.031 240.7C245.604 242.036 244.159 226.069 244.159 226.069L250.261 223.284Z" fill="#8087DE"/>
<path fill-rule="evenodd" clip-rule="evenodd" d="M233.715 93.9216C233.063 93.9412 232.516 93.425 232.497 92.771C232.493 92.6993 232.281 87.3828 228.901 84.5941C225.671 81.9294 219.816 81.038 216.973 81.0458C214.317 80.9299 208.274 81.9294 205.045 84.5941C201.665 87.3828 201.452 92.6993 201.449 92.771C201.432 93.425 200.882 93.9412 200.23 93.9216C199.575 93.9035 199.061 93.3576 199.078 92.7029C199.087 92.4409 199.307 86.2522 203.535 82.7649C207.852 79.2036 213.419 78.6619 216.409 78.6619C219.976 78.6619 226.094 79.2036 230.41 82.7649C234.639 86.2522 234.858 92.4409 234.868 92.7029C234.884 93.3576 234.37 93.9035 233.715 93.9216Z" fill="#30E2CF"/>
<path fill-rule="evenodd" clip-rule="evenodd" d="M197.397 70.2584C197.627 71.2573 196.893 72.2798 195.753 72.5428L185.859 74.8275C184.719 75.0902 183.609 74.4938 183.38 73.4952C183.147 72.4963 183.884 71.4735 185.024 71.2108L194.918 68.9261C196.058 68.6631 197.168 69.2598 197.397 70.2584Z" fill="#30E2CF"/>
<path fill-rule="evenodd" clip-rule="evenodd" d="M248.073 73.3555C247.86 74.3587 246.763 74.9767 245.62 74.7366L235.68 72.6497C234.537 72.4093 233.78 71.4015 233.99 70.3984C234.203 69.3955 235.3 68.7772 236.443 69.0169L246.383 71.1042C247.526 71.3446 248.283 72.352 248.073 73.3555Z" fill="#30E2CF"/>
<path fill-rule="evenodd" clip-rule="evenodd" d="M212.439 2.15029C209.919 2.7587 210.882 8.01724 213.977 5.18665C216.441 2.93603 213.86 1.52021 212.439 2.15029Z" fill="white"/>
</svg>
