<svg width="201" height="250" viewBox="0 0 201 250" fill="none" xmlns="http://www.w3.org/2000/svg">
<path fill-rule="evenodd" clip-rule="evenodd" d="M161.763 241.017C161.763 245.978 136.014 250 104.249 250C72.4836 250 46.7314 245.978 46.7314 241.017C46.7314 236.056 72.4836 232.034 104.249 232.034C136.014 232.034 161.763 236.056 161.763 241.017Z" fill="#B8BACF" fill-opacity="0.25"/>
<path fill-rule="evenodd" clip-rule="evenodd" d="M151.466 54.86C136.519 33.1195 100.171 33.1195 100.171 33.1195C100.171 33.1195 63.8243 33.1195 48.8767 54.86C35.1605 74.8129 35.2915 102.078 35.2915 102.078L48.5394 119.062H151.803L165.055 102.078C165.055 102.078 165.182 74.8129 151.466 54.86Z" fill="#98BDFE"/>
<path fill-rule="evenodd" clip-rule="evenodd" d="M151.486 54.86C145.626 46.3366 136.476 41.1557 127.518 38.0054C132.153 40.8898 136.371 44.5664 139.597 49.255C153.313 69.208 153.182 96.4726 153.182 96.4726L139.934 113.457H44.1865L48.5588 119.062H151.826L165.074 102.078C165.074 102.078 165.202 74.813 151.486 54.86Z" fill="#8087DE"/>
<path fill-rule="evenodd" clip-rule="evenodd" d="M133.122 59.276C119.193 48.7452 81.1494 48.7452 67.2203 59.276C52.1025 70.7084 52.6134 98.0009 52.6134 98.0009H147.729C147.729 98.0009 148.243 70.7084 133.122 59.276Z" fill="#002B43"/>
<path fill-rule="evenodd" clip-rule="evenodd" d="M53.0129 98.0009C53.9431 89.0968 57.0348 74.1958 67.2203 66.493C81.1494 55.9632 119.193 55.9632 133.122 66.493C143.308 74.1958 146.399 89.0968 147.333 98.0009H147.729C147.729 98.0009 148.243 70.7084 133.122 59.276C119.193 48.7452 81.1494 48.7452 67.2203 59.276C52.1025 70.7084 52.6134 98.0009 52.6134 98.0009H53.0129Z" fill="#000F16"/>
<path fill-rule="evenodd" clip-rule="evenodd" d="M113.59 37.1957C113.59 38.3214 112.676 39.2338 111.553 39.2338H88.7905C87.6672 39.2338 86.7534 38.3214 86.7534 37.1957V30.0628C86.7534 28.9372 87.6672 28.0244 88.7905 28.0244H111.553C112.676 28.0244 113.59 28.9372 113.59 30.0628V37.1957Z" fill="#98BDFE"/>
<path fill-rule="evenodd" clip-rule="evenodd" d="M94.1123 33.4591L97.168 4.92511H101.245L106.23 33.6291L94.1123 33.4591Z" fill="#98BDFE"/>
<path fill-rule="evenodd" clip-rule="evenodd" d="M104.249 4.92511C104.249 7.64541 102.042 9.85087 99.3232 9.85087C96.6016 9.85087 94.3975 7.64541 94.3975 4.92511C94.3975 2.20481 96.6016 0 99.3232 0C102.042 0 104.249 2.20481 104.249 4.92511Z" fill="#98BDFE"/>
<path fill-rule="evenodd" clip-rule="evenodd" d="M102.395 1.07819C102.713 1.72731 102.89 2.45635 102.89 3.22665C102.89 5.94696 100.682 8.15209 97.964 8.15209C96.8013 8.15209 95.7304 7.74794 94.8887 7.07393C95.6878 8.71737 97.3712 9.85088 99.3232 9.85088C102.041 9.85088 104.249 7.64543 104.249 4.92513C104.249 3.36814 103.525 1.98081 102.395 1.07819Z" fill="#8087DE"/>
<path fill-rule="evenodd" clip-rule="evenodd" d="M48.5393 119.062H151.803L165.054 102.078H35.2915L48.5393 119.062Z" fill="#8087DE"/>
<path fill-rule="evenodd" clip-rule="evenodd" d="M113.59 33.8606C113.59 34.5769 113.134 35.1579 112.571 35.1579H101.19C100.627 35.1579 100.171 34.5769 100.171 33.8606V29.321C100.171 28.6048 100.627 28.0244 101.19 28.0244H112.571C113.134 28.0244 113.59 28.6048 113.59 29.321V33.8606Z" fill="#8087DE"/>
<path fill-rule="evenodd" clip-rule="evenodd" d="M79.8458 42.4897C78.1886 39.3223 70.7017 41.1361 68.2552 42.2909C66.2541 43.2351 62.6384 45.3262 60.3328 47.5441C58.502 49.0022 56.8677 50.6981 55.4463 52.6101C54.264 54.1985 52.0369 57.4713 53.4649 59.5569C55.0369 61.8508 57.6897 59.8621 59.0063 58.538C62.4354 55.0906 65.0686 51.3973 69.7192 49.2976C72.0052 48.2653 81.7978 46.223 79.8458 42.4897Z" fill="white"/>
<path fill-rule="evenodd" clip-rule="evenodd" d="M170.56 157.54L150.379 122.731H49.9639L29.7827 157.54C29.7827 157.54 30.6473 172.043 35.5142 185.302C42.9978 205.684 50.131 213.836 50.131 213.836L74.8318 223.375L99.9453 225.684V225.725C99.9453 225.725 100.116 225.704 100.171 225.704C100.227 225.704 100.397 225.725 100.397 225.725V225.684L125.511 223.375L150.212 213.836C150.212 213.836 159.172 202.286 164.828 185.302C169.289 171.901 170.56 157.54 170.56 157.54Z" fill="#98BDFE"/>
<path fill-rule="evenodd" clip-rule="evenodd" d="M150.379 122.731H126.598L146.783 157.54C146.783 157.54 145.512 171.901 141.051 185.302C135.395 202.286 132.863 209.051 126.434 213.836C121.122 217.788 101.73 223.375 101.73 223.375L88.2827 224.611L99.9454 225.684V225.725C99.9454 225.725 100.116 225.704 100.171 225.704C100.227 225.704 100.397 225.725 100.397 225.725V225.684L125.511 223.375L150.212 213.836C150.212 213.836 159.172 202.286 164.829 185.302C169.289 171.901 170.56 157.54 170.56 157.54L150.379 122.731Z" fill="#8087DE"/>
<path fill-rule="evenodd" clip-rule="evenodd" d="M29.7827 157.54H170.56L165.074 167.978L29.7827 157.54Z" fill="#8087DE"/>
<path fill-rule="evenodd" clip-rule="evenodd" d="M58.0438 180.622C57.6409 175.571 61.0896 168.607 55.3254 165.94C52.3648 164.571 47.3604 164.008 45.0678 166.95C44.2228 168.033 43.7971 169.398 43.7185 170.812C42.8931 174.416 44.832 179.686 45.7392 182.915C46.8036 186.715 50.5045 200.084 57.3134 196.444C61.9543 193.963 58.3385 184.362 58.0438 180.622Z" fill="white"/>
<path fill-rule="evenodd" clip-rule="evenodd" d="M65.4487 130C62.3865 125.631 58.0765 127.086 55.011 130.257C48.1889 134.41 40.9444 151.379 51.2577 153.039C57.2053 153.996 59.0263 146.749 61.0405 142.832C62.8909 139.24 68.4553 134.289 65.4487 130Z" fill="white"/>
<path fill-rule="evenodd" clip-rule="evenodd" d="M174.742 155.319C174.742 155.319 189.163 172.227 196.057 177.185C201.29 180.945 206.098 161.611 188.131 143.748C170.56 126.28 155.852 123.059 155.852 123.059L174.742 155.319Z" fill="#98BDFE"/>
<path fill-rule="evenodd" clip-rule="evenodd" d="M188.131 143.748C170.56 126.28 155.852 123.059 155.852 123.059L157.424 125.743C163.057 128.847 170.291 133.792 178.086 141.543C190.158 153.543 191.95 166.207 190.237 172.087C192.405 174.197 194.439 176.02 196.06 177.185C201.29 180.945 206.098 161.611 188.131 143.748Z" fill="#8087DE"/>
<path fill-rule="evenodd" clip-rule="evenodd" d="M26.4913 154.532C26.4913 154.532 11.6125 171.037 4.58088 175.803C-0.750997 179.418 -5.02501 159.959 13.4269 142.596C31.4695 125.619 46.2632 122.803 46.2632 122.803L26.4913 154.532Z" fill="#98BDFE"/>
<path fill-rule="evenodd" clip-rule="evenodd" d="M13.4269 142.596C31.4695 125.619 46.2632 122.803 46.2632 122.803L44.6158 125.443C38.9007 128.391 31.535 133.135 23.5274 140.668C11.1311 152.332 8.99244 164.942 10.5416 170.867C8.31777 172.916 6.23481 174.683 4.58088 175.803C-0.750997 179.418 -5.02501 159.959 13.4269 142.596Z" fill="#8087DE"/>
<path fill-rule="evenodd" clip-rule="evenodd" d="M49.8496 216.842C49.8496 216.842 58.8136 240.226 66.3234 240.991C73.8299 241.755 74.0494 225.725 74.0494 225.725L49.8496 216.842Z" fill="#98BDFE"/>
<path fill-rule="evenodd" clip-rule="evenodd" d="M68.0096 223.414C67.9212 225.683 67.2269 236.75 61.9507 238.153C63.4933 239.765 65.0653 240.837 66.5784 240.991C74.0849 241.755 74.3044 225.725 74.3044 225.725L68.0096 223.414Z" fill="#8087DE"/>
<path fill-rule="evenodd" clip-rule="evenodd" d="M152.865 215.344C152.865 215.344 145.715 239.345 138.284 240.68C130.856 242.016 129.412 226.05 129.412 226.05L152.865 215.344Z" fill="#98BDFE"/>
<path fill-rule="evenodd" clip-rule="evenodd" d="M135.261 223.284C135.519 225.54 137.059 236.521 142.427 237.517C141.012 239.242 139.525 240.431 138.031 240.7C130.604 242.036 129.159 226.069 129.159 226.069L135.261 223.284Z" fill="#8087DE"/>
<path fill-rule="evenodd" clip-rule="evenodd" d="M118.715 93.9216C118.063 93.9412 117.516 93.425 117.497 92.771C117.493 92.6993 117.281 87.3828 113.901 84.5941C110.671 81.9294 104.816 81.038 101.973 81.0458C99.3166 80.9299 93.274 81.9294 90.0448 84.5941C86.6649 87.3828 86.452 92.6993 86.4487 92.771C86.4323 93.425 85.8821 93.9412 85.2304 93.9216C84.5753 93.9035 84.0612 93.3576 84.0775 92.7029C84.0874 92.4409 84.3068 86.2522 88.5349 82.7649C92.8515 79.2036 98.4192 78.6619 101.409 78.6619C104.976 78.6619 111.094 79.2036 115.41 82.7649C119.639 86.2522 119.858 92.4409 119.868 92.7029C119.884 93.3576 119.37 93.9035 118.715 93.9216Z" fill="#30E2CF"/>
<path fill-rule="evenodd" clip-rule="evenodd" d="M82.3972 70.2584C82.6265 71.2573 81.8929 72.2798 80.7531 72.5428L70.859 74.8275C69.7193 75.0902 68.609 74.4938 68.3798 73.4952C68.1472 72.4963 68.8842 71.4735 70.0239 71.2108L79.918 68.9261C81.0577 68.6631 82.168 69.2598 82.3972 70.2584Z" fill="#30E2CF"/>
<path fill-rule="evenodd" clip-rule="evenodd" d="M133.073 73.3555C132.86 74.3587 131.763 74.9767 130.62 74.7366L120.68 72.6497C119.537 72.4093 118.78 71.4015 118.99 70.3984C119.203 69.3955 120.3 68.7772 121.443 69.0169L131.383 71.1042C132.526 71.3446 133.283 72.352 133.073 73.3555Z" fill="#30E2CF"/>
<path fill-rule="evenodd" clip-rule="evenodd" d="M97.439 2.15029C94.9193 2.7587 95.8824 8.01724 98.9774 5.18665C101.441 2.93603 98.8605 1.52021 97.439 2.15029Z" fill="white"/>
</svg>
