<svg width="209" height="250" viewBox="0 0 209 250" fill="none" xmlns="http://www.w3.org/2000/svg">
<path fill-rule="evenodd" clip-rule="evenodd" d="M169.762 241.022C169.762 245.981 144.025 250 112.279 250C80.5335 250 54.8003 245.981 54.8003 241.022C54.8003 236.063 80.5335 232.044 112.279 232.044C144.025 232.044 169.762 236.063 169.762 241.022Z" fill="#B8BACF" fill-opacity="0.25"/>
<path fill-rule="evenodd" clip-rule="evenodd" d="M155.887 54.8278C140.952 33.1009 104.627 33.101 104.627 33.101C104.627 33.101 68.3018 33.1009 53.3634 54.8278C39.6523 74.7676 39.7832 102.016 39.7832 102.016L53.023 118.991H156.227L169.467 102.016C169.467 102.016 169.598 74.7676 155.887 54.8278Z" fill="#98BDFE"/>
<path fill-rule="evenodd" clip-rule="evenodd" d="M155.907 54.8278C150.051 46.3112 140.909 41.1331 131.957 37.9844C136.589 40.8647 140.804 44.5404 144.025 49.2275C157.736 69.1673 157.605 96.4159 157.605 96.4159L144.366 113.39H48.6763L53.0426 118.991H156.247L169.487 102.016C169.487 102.016 169.618 74.7676 155.907 54.8278Z" fill="#8087DE"/>
<path fill-rule="evenodd" clip-rule="evenodd" d="M137.784 58.925C123.808 48.3583 85.6352 48.3583 71.6584 58.925C56.4862 70.3963 57.0021 97.7816 57.0021 97.7816H152.441C152.441 97.7816 152.954 70.3963 137.784 58.925Z" fill="#002B43"/>
<path fill-rule="evenodd" clip-rule="evenodd" d="M57.3994 97.7816C58.3363 88.8472 61.4385 73.8958 71.6584 66.1669C85.6352 55.6009 123.808 55.6009 137.784 66.1669C148.005 73.8958 151.107 88.8472 152.04 97.7816H152.441C152.441 97.7816 152.954 70.3963 137.784 58.925C123.808 48.3583 85.6352 48.3583 71.6584 58.925C56.4862 70.3963 57.0021 97.7816 57.0021 97.7816H57.3994Z" fill="#000F16"/>
<path fill-rule="evenodd" clip-rule="evenodd" d="M118.21 82.6632C117.77 82.6494 117.402 82.9975 117.388 83.4385C117.385 83.4868 117.244 87.0701 114.963 88.9498C112.788 90.7454 108.841 91.3465 106.925 91.3409C105.134 91.4194 101.062 90.7454 98.8832 88.9498C96.6062 87.0701 96.4645 83.4868 96.4612 83.4385C96.4484 82.9975 96.0804 82.6494 95.6397 82.6632C95.1993 82.6751 94.8513 83.0431 94.8641 83.4845C94.8674 83.661 95.0189 87.8322 97.8677 90.1828C100.776 92.5831 104.529 92.9479 106.544 92.9479C108.949 92.9479 113.074 92.5831 115.982 90.1828C118.831 87.8322 118.979 83.661 118.986 83.4845C118.999 83.0431 118.65 82.6751 118.21 82.6632Z" fill="#3AEDB1"/>
<path fill-rule="evenodd" clip-rule="evenodd" d="M79.4745 70.6554C79.4745 73.2594 77.3644 75.3702 74.762 75.3702C72.156 75.3702 70.0459 73.2594 70.0459 70.6554C70.0459 68.0514 72.156 65.9409 74.762 65.9409C77.3644 65.9409 79.4745 68.0514 79.4745 70.6554Z" fill="#3AEDB1"/>
<path fill-rule="evenodd" clip-rule="evenodd" d="M139.399 70.6554C139.399 73.2594 137.286 75.3702 134.684 75.3702C132.081 75.3702 129.968 73.2594 129.968 70.6554C129.968 68.0514 132.081 65.9409 134.684 65.9409C137.286 65.9409 139.399 68.0514 139.399 70.6554Z" fill="#3AEDB1"/>
<path fill-rule="evenodd" clip-rule="evenodd" d="M118.037 37.1759C118.037 38.2986 117.123 39.2118 115.997 39.2118H93.2527C92.1267 39.2118 91.2168 38.2986 91.2168 37.1759V30.0471C91.2168 28.9211 92.1267 28.0079 93.2527 28.0079H115.997C117.123 28.0079 118.037 28.9211 118.037 30.0471V37.1759Z" fill="#98BDFE"/>
<path fill-rule="evenodd" clip-rule="evenodd" d="M98.5684 33.4413L101.625 4.92273H105.7L110.682 33.6115L98.5684 33.4413Z" fill="#98BDFE"/>
<path fill-rule="evenodd" clip-rule="evenodd" d="M108.699 4.92275C108.699 7.64271 106.496 9.84551 103.776 9.84551C101.059 9.84551 98.853 7.64271 98.853 4.92275C98.853 2.20607 101.059 0 103.776 0C106.496 0 108.699 2.20607 108.699 4.92275Z" fill="#98BDFE"/>
<path fill-rule="evenodd" clip-rule="evenodd" d="M106.849 1.08014C107.163 1.72821 107.34 2.45812 107.34 3.2273C107.34 5.94398 105.137 8.15006 102.417 8.15006C101.255 8.15006 100.188 7.74419 99.3472 7.06993C100.143 8.71303 101.828 9.84552 103.776 9.84552C106.496 9.84552 108.698 7.64272 108.698 4.92277C108.698 3.36804 107.975 1.98024 106.849 1.08014Z" fill="#8087DE"/>
<path fill-rule="evenodd" clip-rule="evenodd" d="M53.0229 118.991H156.227L169.467 102.016H39.7832L53.0229 118.991Z" fill="#8087DE"/>
<path fill-rule="evenodd" clip-rule="evenodd" d="M118.037 33.8406C118.037 34.5574 117.579 35.1368 117.016 35.1368H105.645C105.082 35.1368 104.627 34.5574 104.627 33.8406V29.3041C104.627 28.5906 105.082 28.0079 105.645 28.0079H117.016C117.579 28.0079 118.037 28.5906 118.037 29.3041V33.8406Z" fill="#8087DE"/>
<path fill-rule="evenodd" clip-rule="evenodd" d="M84.3106 42.4653C82.6577 39.3002 75.1721 41.1135 72.7271 42.2656C70.7305 43.2115 67.1137 45.2998 64.8094 47.5157C62.9798 48.9722 61.3465 50.6677 59.926 52.5792C58.7476 54.1666 56.5219 57.4365 57.949 59.5214C59.5168 61.8159 62.168 59.8291 63.4871 58.5035C66.914 55.0602 69.5456 51.3681 74.1934 49.2701C76.4781 48.239 86.2614 46.1966 84.3106 42.4653Z" fill="white"/>
<path fill-rule="evenodd" clip-rule="evenodd" d="M174.972 157.446L154.8 122.656H54.45L34.2778 157.446C34.2778 157.446 35.1419 171.94 40.009 185.189C47.4881 205.561 54.6169 213.708 54.6169 213.708L79.3027 223.239L104.401 225.547V225.589C104.401 225.589 104.568 225.57 104.627 225.57C104.682 225.57 104.849 225.589 104.849 225.589V225.547L129.948 223.239L154.633 213.708C154.633 213.708 163.592 202.164 169.241 185.189C173.702 171.799 174.972 157.446 174.972 157.446Z" fill="#98BDFE"/>
<path fill-rule="evenodd" clip-rule="evenodd" d="M154.8 122.656H131.038L151.206 157.446C151.206 157.446 149.936 171.799 145.479 185.189C139.826 202.164 137.296 208.926 130.871 213.708C125.565 217.655 106.185 223.239 106.185 223.239L92.7422 224.476L104.401 225.547V225.589C104.401 225.589 104.568 225.57 104.627 225.57C104.682 225.57 104.849 225.589 104.849 225.589V225.547L129.948 223.239L154.633 213.708C154.633 213.708 163.592 202.164 169.241 185.189C173.703 171.799 174.972 157.446 174.972 157.446L154.8 122.656Z" fill="#8087DE"/>
<path fill-rule="evenodd" clip-rule="evenodd" d="M34.2778 157.446H174.972L169.487 167.878L34.2778 157.446Z" fill="#8087DE"/>
<path fill-rule="evenodd" clip-rule="evenodd" d="M62.5216 180.512C62.1223 175.468 65.5689 168.506 59.8049 165.842C56.846 164.474 51.8447 163.911 49.5535 166.85C48.7123 167.933 48.2868 169.295 48.2083 170.709C47.3802 174.313 49.3211 179.579 50.2245 182.803C51.2915 186.603 54.9869 199.964 61.7917 196.324C66.433 193.846 62.8194 184.253 62.5216 180.512Z" fill="white"/>
<path fill-rule="evenodd" clip-rule="evenodd" d="M69.9223 129.923C66.8619 125.556 62.5578 127.01 59.4941 130.178C52.673 134.332 45.4329 151.29 55.7432 152.946C61.6838 153.905 63.507 146.661 65.5199 142.747C67.366 139.156 72.927 134.207 69.9223 129.923Z" fill="white"/>
<path fill-rule="evenodd" clip-rule="evenodd" d="M157.687 122.499C157.687 122.499 193.645 84.9895 201.867 82.8848C210.089 80.7835 210.587 96.4224 201.566 115.953C192.814 134.904 177.826 154.582 177.826 154.582L157.687 122.499Z" fill="#98BDFE"/>
<path fill-rule="evenodd" clip-rule="evenodd" d="M201.868 82.8848C201.046 83.0943 199.946 83.6606 198.637 84.505C199.881 90.3475 197.933 100.893 192.382 112.919C186.373 125.929 175.015 139.385 171.418 144.377L177.827 154.582C177.827 154.582 192.814 134.904 201.567 115.953C210.587 96.4224 210.09 80.7835 201.868 82.8848Z" fill="#8087DE"/>
<path fill-rule="evenodd" clip-rule="evenodd" d="M194.251 91.4212C192.938 90.9728 190.097 93.4669 189.289 94.1608C187.934 95.3195 184.572 98.8643 184.35 101.483C183.741 102.979 183.895 104.262 185.63 104.635C188.248 105.195 193.367 98.3111 194.329 96.2262C194.925 94.93 196.048 92.0366 194.251 91.4212Z" fill="white"/>
<path fill-rule="evenodd" clip-rule="evenodd" d="M50.4798 122.611C50.4798 122.611 14.5411 85.0811 6.31901 82.9733C-1.89977 80.8654 -2.4071 96.5043 6.60376 116.041C15.3462 134.996 30.324 154.684 30.324 154.684L50.4798 122.611Z" fill="#98BDFE"/>
<path fill-rule="evenodd" clip-rule="evenodd" d="M6.31901 82.9733C7.14056 83.1827 8.24032 83.749 9.55283 84.5934C8.30578 90.4359 10.2435 100.985 15.7914 113.011C21.7943 126.024 33.1421 139.487 36.736 144.478L30.324 154.684C30.324 154.684 15.3462 134.996 6.60376 116.041C-2.4071 96.5043 -1.89977 80.8654 6.31901 82.9733Z" fill="#8087DE"/>
<path fill-rule="evenodd" clip-rule="evenodd" d="M13.9321 91.5129C15.2446 91.0644 18.0857 93.5618 18.8941 94.2557C20.2492 95.4144 23.6074 98.9625 23.8267 101.581C24.4355 103.077 24.2817 104.36 22.5469 104.73C19.9284 105.289 14.8126 98.4027 13.8535 96.3178C13.2546 95.0216 12.1352 92.1282 13.9321 91.5129Z" fill="white"/>
<path fill-rule="evenodd" clip-rule="evenodd" d="M54.3325 216.713C54.3325 216.713 63.2943 240.083 70.7963 240.845C78.3015 241.611 78.5208 225.589 78.5208 225.589L54.3325 216.713Z" fill="#98BDFE"/>
<path fill-rule="evenodd" clip-rule="evenodd" d="M72.4815 223.278C72.3964 225.547 71.7025 236.606 66.4263 238.011C67.9712 239.621 69.539 240.691 71.0512 240.845C78.5564 241.611 78.7757 225.589 78.7757 225.589L72.4815 223.278Z" fill="#8087DE"/>
<path fill-rule="evenodd" clip-rule="evenodd" d="M132.494 225.589C132.494 225.589 143.96 243.199 158.718 239.52C164.895 237.981 155.154 216.713 155.154 216.713L132.494 225.589Z" fill="#98BDFE"/>
<path fill-rule="evenodd" clip-rule="evenodd" d="M155.154 216.713L149.007 219.122C151.485 225.344 155.396 236.875 150.912 237.991C149.701 238.295 148.513 238.449 147.351 238.485C150.768 239.919 154.617 240.544 158.718 239.52C164.894 237.981 155.154 216.713 155.154 216.713Z" fill="#8087DE"/>
<path fill-rule="evenodd" clip-rule="evenodd" d="M101.439 2.15029C98.9193 2.7587 99.8824 8.01724 102.977 5.18665C105.441 2.93603 102.86 1.52021 101.439 2.15029Z" fill="white"/>
</svg>
